<svg xmlns="http://www.w3.org/2000/svg" xmlns:xlink="http://www.w3.org/1999/xlink" width="1920" zoomAndPan="magnify" viewBox="0 0 1440 809.999993" height="1080" preserveAspectRatio="xMidYMid meet" version="1.0"><defs><clipPath id="947ba0e3b7"><path d="M 569 246 L 873.800781 246 L 873.800781 565 L 569 565 Z M 569 246 " clip-rule="nonzero"/></clipPath><clipPath id="7e2a81d379"><path d="M 566.300781 244 L 871 244 L 871 562 L 566.300781 562 Z M 566.300781 244 " clip-rule="nonzero"/></clipPath><clipPath id="a1cdbc3f8f"><path d="M 569 246 L 873.800781 246 L 873.800781 565 L 569 565 Z M 569 246 " clip-rule="nonzero"/></clipPath><clipPath id="f4ab26e3a4"><path d="M 566.300781 244 L 871 244 L 871 562 L 566.300781 562 Z M 566.300781 244 " clip-rule="nonzero"/></clipPath></defs><g clip-path="url(#947ba0e3b7)"><path fill="#000000" d="M 658.097656 277.980469 C 658.070312 264.832031 666.460938 252.785156 679.289062 248.496094 C 679.550781 248.421875 679.8125 248.332031 680.070312 248.246094 C 689.054688 245.816406 697.71875 246.707031 705.992188 251.867188 C 711.6875 255.554688 716.195312 261.074219 718.5 267.796875 C 718.515625 267.820312 718.527344 267.847656 718.539062 267.871094 C 727.410156 273.042969 735.277344 280.0625 742.238281 288.003906 L 746.0625 288.113281 L 743.320312 289.242188 C 748.578125 295.382812 753.296875 302.042969 757.527344 308.792969 C 758.359375 310.121094 759.175781 311.445312 759.972656 312.773438 C 775.085938 307.726562 791.648438 303.285156 807.085938 302.34375 C 820.214844 301.546875 834.71875 303.296875 844.386719 313.144531 L 844.769531 313.542969 L 845.105469 313.964844 C 860.976562 333.921875 857.835938 356.472656 847.539062 376.84375 C 846.273438 379.347656 844.894531 381.828125 843.429688 384.261719 C 845.355469 385.636719 847.265625 387.027344 849.152344 388.453125 L 849.261719 388.539062 L 849.375 388.640625 C 864.585938 400.820312 871.871094 415.222656 873.359375 431.890625 C 873.359375 431.890625 873.359375 431.90625 873.359375 431.917969 L 873.371094 432.140625 L 873.371094 432.152344 C 873.808594 450.910156 862.03125 463.734375 845.777344 471.363281 C 835.128906 476.363281 822.707031 479.238281 810.511719 480.816406 C 809.171875 480.988281 807.84375 481.136719 806.515625 481.285156 C 806.726562 491.59375 805.871094 502.136719 803.191406 512.074219 C 801.503906 518.339844 799.082031 524.367188 795.746094 529.960938 C 796.550781 545.925781 785.507812 560.511719 769.402344 563.726562 C 753.246094 566.9375 737.449219 557.632812 732.089844 542.550781 C 716.34375 531.910156 703.847656 517.148438 694.242188 500.8125 C 678.707031 507.359375 661.410156 512.78125 645.414062 513.101562 C 623.6875 513.550781 606.800781 504.148438 599.242188 483.480469 L 599.207031 483.433594 L 598.757812 482.117188 C 598.757812 482.105469 598.757812 482.09375 598.746094 482.082031 C 592.640625 463.957031 600.769531 445.550781 610.660156 429.96875 C 601.984375 423.457031 594.179688 415.765625 588.507812 406.6875 C 586.039062 403.164062 583.730469 398.015625 582.179688 393.289062 C 576.089844 388.925781 571.78125 382.363281 570.292969 374.90625 C 569.820312 372.527344 569.648438 370.144531 569.746094 367.8125 C 570.753906 357.628906 574.824219 349.839844 582.378906 344.753906 C 584.042969 343.585938 585.804688 342.59375 587.652344 341.800781 C 589.476562 341.019531 591.386719 340.398438 593.398438 339.988281 C 593.484375 339.964844 593.570312 339.953125 593.660156 339.925781 C 593.707031 339.914062 593.769531 339.914062 593.820312 339.902344 C 597.804688 339.132812 601.847656 339.183594 605.734375 340.015625 C 607.394531 340.375 609.035156 340.882812 610.609375 341.527344 C 622.496094 337.410156 634.894531 334.40625 647.4375 333.363281 C 647.550781 322.449219 648.726562 311.148438 651.878906 300.644531 C 653.578125 295 655.839844 289.578125 658.816406 284.566406 C 658.777344 284.378906 658.742188 284.195312 658.703125 284.007812 C 658.296875 281.988281 658.109375 279.964844 658.097656 277.980469 Z M 742.398438 506.058594 C 744.484375 504.382812 746.78125 502.945312 749.238281 501.816406 L 769.710938 492.375 C 770.058594 488.765625 770.269531 485.121094 770.382812 481.585938 C 759.625 481.175781 748.777344 480.035156 738.21875 478.308594 C 738.132812 478.296875 738.058594 478.285156 737.96875 478.273438 C 734 480.640625 729.890625 483.035156 725.671875 485.378906 C 728.304688 489.375 731.183594 493.367188 734.261719 497.140625 C 736.828125 500.300781 739.546875 503.316406 742.398438 506.058594 Z M 832.175781 420.367188 C 827.757812 426.683594 821.144531 431.394531 813.339844 433.367188 L 801.875 436.257812 C 802.085938 437.511719 802.296875 438.753906 802.507812 440.003906 C 802.90625 442.449219 803.289062 444.890625 803.660156 447.335938 C 811.675781 446.109375 819.878906 444.433594 827.152344 441.878906 C 829.644531 441.007812 836.65625 438.207031 838.007812 435.6875 L 838.367188 435.03125 L 838.816406 434.421875 C 839.597656 433.367188 840.191406 432.265625 839.992188 430.925781 C 839.546875 427.6875 836.085938 423.804688 832.175781 420.367188 Z M 705.074219 304.960938 L 700.980469 306.644531 C 699.132812 307.402344 697.195312 307.984375 695.222656 308.382812 C 692.816406 308.855469 690.371094 309.054688 687.9375 308.953125 C 685.332031 316.171875 684.464844 324.96875 684.316406 332.917969 C 693.648438 333.664062 702.953125 334.765625 712.199219 336.253906 C 716.875 333.425781 721.652344 330.722656 726.542969 328.230469 C 720.535156 319.523438 713.425781 311.296875 705.074219 304.960938 Z M 626.765625 380.921875 C 625.078125 384.832031 622.546875 388.367188 619.332031 391.242188 C 622.792969 395.0625 627.113281 398.5 631.382812 401.441406 C 633.230469 399.332031 635.128906 397.234375 637.050781 395.175781 C 641.542969 390.351562 646.234375 385.6875 651.136719 381.394531 C 651.421875 381.148438 651.71875 380.886719 652.015625 380.636719 C 651.53125 377.984375 651.085938 375.328125 650.664062 372.675781 C 650.367188 370.777344 650.082031 368.878906 649.820312 366.96875 C 642.957031 367.527344 636.246094 368.839844 629.71875 371.050781 C 629.53125 371.113281 629.332031 371.171875 629.148438 371.246094 C 628.898438 374.621094 628.082031 377.882812 626.765625 380.921875 Z M 632.945312 464.480469 C 631.726562 468.015625 631.171875 471.175781 631.777344 473.386719 C 631.804688 473.484375 631.839844 473.59375 631.863281 473.695312 C 632.25 474.8125 633.476562 475.40625 634.558594 475.804688 C 648.566406 479.089844 664.4375 475.628906 678.359375 470.519531 C 677.480469 468.546875 676.621094 466.574219 675.792969 464.589844 C 675.195312 463.175781 674.601562 461.761719 674.015625 460.347656 C 666.632812 457.855469 659.3125 455.1875 652.042969 452.398438 L 651.941406 452.359375 L 651.855469 452.324219 C 648.257812 450.859375 644.671875 449.320312 641.132812 447.683594 C 638.15625 452.742188 634.792969 459.046875 632.945312 464.480469 Z M 821.953125 340.1875 C 809.976562 332.820312 790.148438 337.980469 775.628906 343.4375 C 776.933594 346.378906 778.199219 349.34375 779.425781 352.304688 C 790.730469 356.152344 802.171875 360.554688 812.941406 365.863281 C 816.207031 360.34375 819.878906 353.324219 821.417969 347.417969 C 822.125 344.691406 822.386719 342.183594 821.953125 340.1875 Z M 821.953125 340.1875 " fill-opacity="0.2" fill-rule="evenodd"/></g><g clip-path="url(#7e2a81d379)"><path fill="#ffffff" d="M 654.820312 275.128906 C 654.796875 261.980469 663.171875 249.945312 676.003906 245.65625 C 676.261719 245.566406 676.523438 245.492188 676.785156 245.40625 C 685.769531 242.976562 694.441406 243.867188 702.707031 249.027344 C 708.414062 252.710938 712.90625 258.234375 715.226562 264.957031 C 715.238281 264.980469 715.238281 265.003906 715.25 265.03125 C 724.121094 270.203125 732 277.222656 738.964844 285.148438 L 742.785156 285.273438 L 740.042969 286.402344 C 745.292969 292.542969 750.019531 299.203125 754.25 305.953125 C 755.082031 307.277344 755.886719 308.605469 756.683594 309.933594 C 771.808594 304.886719 788.363281 300.445312 803.808594 299.5 C 816.925781 298.695312 831.429688 300.457031 841.097656 310.304688 L 841.484375 310.691406 L 841.816406 311.125 C 857.699219 331.082031 854.546875 353.632812 844.261719 374 C 842.996094 376.507812 841.617188 378.988281 840.15625 381.417969 C 842.078125 382.796875 843.988281 384.1875 845.863281 385.613281 L 845.988281 385.699219 L 846.097656 385.785156 C 861.300781 397.964844 868.59375 412.378906 870.085938 429.039062 C 870.085938 429.050781 870.085938 429.0625 870.085938 429.078125 L 870.085938 429.3125 C 870.53125 448.066406 858.742188 460.882812 842.5 468.523438 C 831.851562 473.519531 819.433594 476.398438 807.222656 477.972656 C 805.882812 478.136719 804.554688 478.296875 803.226562 478.433594 C 803.4375 488.753906 802.59375 499.285156 799.914062 509.234375 C 798.214844 515.496094 795.808594 521.527344 792.46875 527.109375 C 793.261719 543.085938 782.230469 557.671875 766.125 560.871094 C 749.96875 564.097656 734.160156 554.792969 728.8125 539.710938 C 713.066406 529.066406 700.570312 514.304688 690.96875 497.957031 C 675.417969 504.507812 658.121094 509.941406 642.140625 510.261719 C 620.398438 510.710938 603.523438 501.308594 595.96875 480.640625 L 595.929688 480.578125 L 595.484375 479.265625 C 595.484375 479.253906 595.472656 479.238281 595.472656 479.238281 C 589.367188 461.105469 597.492188 442.710938 607.371094 427.117188 C 598.710938 420.605469 590.890625 412.914062 585.234375 403.847656 C 582.753906 400.324219 580.457031 395.164062 578.894531 390.449219 C 572.8125 386.082031 568.496094 379.507812 567.019531 372.066406 C 566.535156 369.671875 566.359375 367.289062 566.460938 364.957031 C 567.476562 354.789062 571.535156 346.996094 579.105469 341.898438 C 580.753906 340.746094 582.527344 339.753906 584.378906 338.960938 C 586.1875 338.164062 588.113281 337.558594 590.121094 337.136719 C 590.210938 337.125 590.285156 337.097656 590.371094 337.085938 C 590.433594 337.074219 590.484375 337.0625 590.542969 337.050781 C 594.527344 336.28125 598.574219 336.34375 602.445312 337.171875 C 604.121094 337.53125 605.746094 338.042969 607.332031 338.675781 C 619.207031 334.570312 631.617188 331.566406 644.160156 330.511719 C 644.273438 319.609375 645.441406 308.308594 648.589844 297.800781 C 650.292969 292.15625 652.5625 286.738281 655.539062 281.726562 C 655.503906 281.539062 655.453125 281.355469 655.417969 281.15625 C 655.019531 279.132812 654.820312 277.125 654.820312 275.128906 Z M 739.125 503.21875 C 741.195312 501.53125 743.492188 500.105469 745.960938 498.976562 L 766.421875 489.535156 C 766.78125 485.925781 766.980469 482.277344 767.09375 478.742188 C 756.347656 478.335938 745.488281 477.191406 734.929688 475.46875 C 734.855469 475.457031 734.769531 475.445312 734.695312 475.429688 C 730.722656 477.800781 726.617188 480.183594 722.398438 482.539062 C 725.027344 486.535156 727.894531 490.515625 730.984375 494.296875 C 733.554688 497.460938 736.269531 500.464844 739.125 503.21875 Z M 828.886719 417.515625 C 824.46875 423.828125 817.867188 428.554688 810.0625 430.527344 L 798.585938 433.417969 C 798.796875 434.671875 799.019531 435.910156 799.21875 437.164062 C 799.628906 439.609375 800.011719 442.050781 800.386719 444.496094 C 808.390625 443.265625 816.589844 441.59375 823.863281 439.039062 C 826.355469 438.15625 833.367188 435.367188 834.730469 432.847656 L 835.09375 432.179688 L 835.539062 431.570312 C 836.320312 430.515625 836.902344 429.425781 836.71875 428.085938 C 836.257812 424.835938 832.808594 420.964844 828.886719 417.515625 Z M 701.800781 302.117188 L 697.703125 303.792969 C 695.84375 304.5625 693.921875 305.144531 691.945312 305.53125 C 689.527344 306.015625 687.082031 306.210938 684.652344 306.113281 C 682.058594 313.332031 681.175781 322.113281 681.027344 330.066406 C 690.371094 330.824219 699.664062 331.925781 708.921875 333.414062 C 713.585938 330.585938 718.378906 327.882812 723.253906 325.390625 C 717.25 316.679688 710.136719 308.457031 701.800781 302.117188 Z M 623.488281 378.070312 C 621.789062 381.976562 619.269531 385.511719 616.054688 388.402344 C 619.519531 392.210938 623.835938 395.660156 628.105469 398.597656 C 629.953125 396.492188 631.839844 394.394531 633.761719 392.324219 C 638.253906 387.511719 642.957031 382.847656 647.847656 378.554688 C 648.144531 378.304688 648.441406 378.046875 648.726562 377.796875 C 648.257812 375.144531 647.796875 372.488281 647.386719 369.832031 C 647.089844 367.9375 646.804688 366.027344 646.542969 364.128906 C 639.683594 364.6875 632.957031 366 626.441406 368.195312 C 626.242188 368.269531 626.058594 368.332031 625.859375 368.394531 C 625.625 371.769531 624.804688 375.042969 623.488281 378.070312 Z M 629.65625 461.636719 C 628.453125 465.171875 627.882812 468.335938 628.488281 470.542969 C 628.515625 470.644531 628.550781 470.742188 628.589844 470.84375 C 628.960938 471.972656 630.191406 472.566406 631.269531 472.949219 C 645.292969 476.25 661.160156 472.789062 675.070312 467.667969 C 674.203125 465.707031 673.347656 463.722656 672.503906 461.75 C 671.90625 460.324219 671.324219 458.910156 670.742188 457.496094 C 663.359375 455.015625 656.023438 452.347656 648.753906 449.542969 L 648.667969 449.519531 L 648.578125 449.480469 C 644.96875 448.019531 641.394531 446.46875 637.859375 444.84375 C 634.878906 449.890625 631.503906 456.203125 629.65625 461.636719 Z M 818.664062 337.335938 C 806.703125 329.980469 786.871094 335.140625 772.355469 340.597656 C 773.65625 343.535156 774.910156 346.488281 776.140625 349.464844 C 787.441406 353.300781 798.894531 357.703125 809.65625 363.011719 C 812.929688 357.492188 816.589844 350.484375 818.140625 344.566406 C 818.847656 341.835938 819.109375 339.34375 818.664062 337.335938 Z M 818.664062 337.335938 " fill-opacity="1" fill-rule="evenodd"/></g><path fill="#db2b35" d="M 715.832031 370.40625 C 735.003906 365.902344 754.199219 377.785156 758.691406 396.949219 C 763.195312 416.113281 751.308594 435.304688 732.136719 439.804688 C 712.96875 444.308594 693.769531 432.414062 689.265625 413.25 C 684.761719 394.085938 696.664062 374.894531 715.832031 370.40625 Z M 715.832031 370.40625 " fill-opacity="1" fill-rule="evenodd"/><path fill="#c7252e" d="M 735.773438 387.632812 C 747.5 395.546875 754.648438 408.660156 754.933594 422.800781 C 759.261719 415.246094 760.851562 406.089844 758.691406 396.949219 C 758.34375 395.449219 757.898438 393.984375 757.378906 392.570312 C 756.507812 390.277344 755.429688 388.09375 754.152344 386.082031 C 752.949219 384.171875 751.582031 382.398438 750.070312 380.785156 C 741.632812 371.757812 728.726562 367.367188 715.832031 370.40625 C 712.382812 371.210938 709.171875 372.488281 706.242188 374.164062 C 704.578125 375.117188 703.015625 376.195312 701.550781 377.386719 C 699.789062 378.816406 698.175781 380.390625 696.722656 382.113281 C 696.476562 382.410156 696.226562 382.722656 695.980469 383.03125 C 709.207031 378.007812 724.046875 379.71875 735.773438 387.632812 Z M 735.773438 387.632812 " fill-opacity="1" fill-rule="evenodd"/><path fill="#052c49" d="M 689.914062 295.320312 C 694.367188 294.429688 698.214844 292.171875 701.066406 289.058594 C 714.878906 297.355469 727.324219 310.976562 738.390625 329.792969 C 730.117188 333.277344 720.996094 338.128906 711.054688 344.316406 C 697.976562 342.074219 684.539062 340.570312 670.742188 339.816406 C 669.898438 319.460938 672.566406 304.339844 678.746094 294.453125 C 682.195312 295.730469 686.027344 296.089844 689.914062 295.320312 Z M 777.492188 462.222656 C 777.453125 460.25 777.378906 458.761719 777.269531 456.191406 C 777.378906 458.039062 777.441406 460 777.492188 462.222656 Z M 777.269531 456.179688 C 766.558594 456.339844 756.746094 454.457031 750.179688 453.316406 C 746.0625 456.082031 742.699219 458.25 738.007812 461.191406 C 754.335938 450.957031 767.6875 441.269531 774.636719 435.863281 C 776.078125 444.695312 776.882812 449.644531 777.269531 456.179688 Z M 740.203125 517.765625 C 728.789062 509.394531 717.65625 495.726562 707.695312 478.570312 L 707.507812 478.667969 C 716.21875 474.179688 724.707031 469.328125 732.621094 464.503906 C 747.984375 467.246094 763.992188 468.609375 777.589844 468.484375 C 777.777344 486.65625 776.175781 500.6875 772.789062 510.585938 C 767.925781 507.085938 761.671875 505.535156 755.328125 506.800781 C 748.679688 508.128906 743.292969 512.285156 740.203125 517.765625 Z M 707.394531 478.730469 C 706.613281 479.128906 705.832031 479.539062 705.050781 479.933594 Z M 705.050781 479.933594 C 704.257812 480.332031 703.460938 480.726562 702.667969 481.125 C 703.460938 480.726562 704.257812 480.332031 705.050781 479.933594 Z M 702.632812 481.136719 C 700.261719 482.316406 697.878906 483.457031 695.484375 484.5625 C 706.367188 505.820312 720.683594 522.542969 737.773438 533.097656 C 740.179688 545.21875 751.96875 553.082031 764.078125 550.664062 C 776.113281 548.269531 783.957031 536.632812 781.699219 524.601562 C 790.78125 511.453125 794.304688 492.871094 792.296875 468.882812 C 823.6875 467.121094 860.503906 457.71875 859.660156 429.351562 C 859.425781 421.347656 854.523438 405.894531 839.582031 393.910156 C 835.824219 391.070312 831.257812 387.832031 825.886719 384.199219 C 844.96875 357.28125 847.574219 335.078125 833.664062 317.597656 C 821.953125 305.667969 794.703125 307.328125 751.929688 322.597656 C 737.921875 297.019531 722.707031 280.164062 706.277344 272.015625 C 706.230469 271.691406 706.179688 271.382812 706.105469 271.058594 C 703.882812 259.882812 693.015625 252.636719 681.835938 254.859375 C 670.667969 257.089844 663.40625 267.957031 665.640625 279.121094 C 665.925781 280.597656 666.375 282 666.945312 283.328125 C 657.675781 296.089844 653.605469 315.15625 654.757812 340.535156 C 640.042969 340.375 623.996094 343.535156 606.636719 349.988281 C 602.570312 347.382812 597.519531 346.277344 592.40625 347.296875 C 581.933594 349.390625 575.144531 359.5625 577.230469 370.03125 C 578.457031 376.210938 582.503906 381.097656 587.765625 383.652344 C 591.523438 398.835938 602.855469 412.417969 621.753906 424.386719 C 606.5 446.09375 600.632812 461.921875 605.347656 475.914062 C 617.644531 512.433594 661.820312 501.367188 702.632812 481.136719 Z M 618.722656 474.191406 C 615.734375 465.410156 620.832031 451.144531 634 431.382812 C 639.65625 434.300781 645.824219 437.128906 652.5 439.832031 C 661.445312 443.28125 670.132812 446.378906 678.570312 449.121094 C 682.765625 459.480469 686.3125 467.492188 689.203125 473.160156 C 665.207031 483.78125 644.90625 487.042969 628.316406 482.960938 C 623.328125 481.25 620.125 478.335938 618.722656 474.191406 Z M 643.976562 419.527344 C 650.851562 410.359375 657.402344 403.214844 663.628906 398.089844 C 666.101562 408.558594 669.089844 419.648438 672.578125 431.347656 C 661.882812 427.476562 652.351562 423.53125 643.976562 419.527344 Z M 660.105469 381.902344 C 651.136719 388.949219 641.160156 399.058594 630.152344 412.21875 C 615.25 403.472656 605.582031 394.371094 601.179688 384.929688 C 610.957031 382.324219 617.148438 372.539062 615.152344 362.476562 C 615.089844 362.15625 615.015625 361.84375 614.941406 361.546875 C 627.410156 355.929688 641.011719 353.210938 655.726562 353.410156 C 656.644531 362.253906 658.109375 371.757812 660.105469 381.902344 Z M 671.785156 353.707031 C 683.0625 354.664062 690.085938 355.59375 692.851562 356.5 C 686.835938 360.777344 680.570312 365.46875 674.042969 370.566406 C 673.097656 364.648438 672.339844 359.042969 671.785156 353.707031 Z M 676.894531 386.308594 C 688.734375 375.898438 700.097656 367.042969 711.007812 359.738281 C 730.574219 363.335938 745.988281 366.84375 757.265625 370.304688 C 763.046875 385.761719 768.308594 403.152344 773.0625 422.453125 C 746.507812 441.023438 733.269531 449.417969 733.269531 449.417969 C 717.199219 445.386719 702.570312 441.269531 689.378906 437.039062 C 684.105469 418.484375 679.949219 401.5625 676.894531 386.308594 Z M 744.78125 341.503906 C 746.707031 345.324219 748.59375 349.316406 750.429688 353.472656 C 746.148438 351.871094 739.324219 350.171875 729.96875 348.363281 C 735.015625 345.707031 739.957031 343.425781 744.78125 341.503906 Z M 758.332031 335.078125 C 790.410156 321 813.351562 319.523438 827.1875 330.625 C 832.363281 340.136719 827.734375 355.507812 813.289062 376.707031 C 801.6875 370.144531 786.6875 363.855469 768.296875 357.828125 C 765.046875 349.703125 761.734375 342.121094 758.332031 335.078125 Z M 774.886719 375.355469 C 781.289062 377.574219 785.753906 379.484375 788.300781 381.058594 C 784.625 383.914062 781.933594 387.84375 780.582031 392.273438 C 778.71875 386.429688 776.820312 380.785156 774.886719 375.355469 Z M 824.273438 401.042969 C 838.34375 410.257812 845.925781 418.78125 847.027344 426.632812 C 847.574219 430.515625 846.53125 434.238281 843.902344 437.785156 C 839.25 446.417969 821.789062 452.558594 791.539062 456.191406 C 789.703125 442.683594 787.816406 432.128906 786.734375 426.582031 C 789.328125 423.828125 791.636719 421.472656 793.636719 419.488281 C 797.542969 421.0625 801.9375 421.570312 806.378906 420.679688 C 816.242188 418.71875 823.292969 410.542969 824.273438 401.042969 Z M 701.921875 467.035156 C 700.085938 463.511719 697.867188 459.230469 695.246094 454.195312 C 702.269531 456.167969 709.109375 457.878906 715.746094 459.332031 C 711.019531 462.132812 706.414062 464.703125 701.921875 467.035156 Z M 784.316406 410.011719 L 784.441406 409.835938 C 784.367188 409.960938 784.316406 410.023438 784.316406 410.023438 C 784.316406 410.011719 784.316406 410.011719 784.316406 410.011719 Z M 784.316406 410.011719 " fill-opacity="1" fill-rule="evenodd"/><path fill="#db2b35" d="M 689.914062 295.320312 C 694.367188 294.429688 698.214844 292.171875 701.066406 289.058594 C 697.777344 287.085938 694.417969 285.410156 690.980469 284.035156 C 689.566406 276.9375 688.855469 273.390625 688.855469 273.390625 C 696.613281 270.808594 700.484375 269.519531 700.484375 269.519531 C 702.433594 270.238281 704.367188 271.070312 706.277344 272.011719 C 706.230469 271.691406 706.179688 271.382812 706.105469 271.058594 C 703.882812 259.882812 693.015625 252.636719 681.835938 254.859375 C 670.667969 257.089844 663.40625 267.957031 665.640625 279.121094 C 665.925781 280.597656 666.375 282 666.945312 283.328125 C 669.214844 288.5625 673.546875 292.53125 678.746094 294.453125 C 682.195312 295.730469 686.027344 296.089844 689.914062 295.320312 Z M 689.914062 295.320312 " fill-opacity="1" fill-rule="evenodd"/><path fill="#0c4674" d="M 705.199219 282.320312 C 721.863281 293.808594 736.542969 311.769531 749.226562 336.195312 C 760.640625 358.324219 770.714844 385.824219 778.90625 416.921875 C 780.59375 415.035156 782.046875 413.136719 783.433594 411.226562 C 783.734375 410.828125 784.03125 410.421875 784.316406 410.011719 C 782.195312 398.550781 780.582031 392.273438 780.582031 392.273438 C 778.71875 386.429688 776.820312 380.785156 774.886719 375.355469 C 774.179688 373.34375 773.457031 371.371094 772.75 369.425781 C 771.273438 365.441406 769.796875 361.574219 768.296875 357.828125 C 765.046875 349.703125 761.734375 342.121094 758.332031 335.078125 C 757.425781 333.191406 756.519531 331.355469 755.601562 329.558594 C 754.386719 327.175781 753.160156 324.855469 751.929688 322.597656 C 737.921875 297.019531 722.707031 280.164062 706.277344 272.011719 C 704.367188 271.070312 702.433594 270.238281 700.484375 269.519531 C 700.484375 269.519531 696.613281 270.808594 688.855469 273.390625 C 694.503906 275.722656 699.949219 278.699219 705.199219 282.320312 Z M 705.199219 282.320312 " fill-opacity="1" fill-rule="evenodd"/><path fill="#052c49" d="M 749.226562 336.195312 C 736.542969 311.769531 721.863281 293.808594 705.199219 282.320312 C 699.949219 278.699219 694.503906 275.722656 688.855469 273.390625 C 688.855469 273.390625 689.566406 276.9375 690.980469 284.035156 C 694.417969 285.410156 697.777344 287.085938 701.066406 289.058594 C 714.878906 297.355469 727.324219 310.976562 738.390625 329.792969 C 739.609375 331.839844 740.800781 333.949219 741.964844 336.117188 C 742.910156 337.878906 743.851562 339.667969 744.78125 341.503906 C 746.707031 345.324219 748.59375 349.316406 750.429688 353.472656 C 752.105469 357.257812 753.730469 361.1875 755.328125 365.246094 C 755.976562 366.90625 756.621094 368.59375 757.265625 370.304688 C 763.046875 385.761719 768.308594 403.152344 773.0625 422.453125 C 775.34375 420.628906 777.242188 418.78125 778.90625 416.921875 C 770.714844 385.824219 760.640625 358.324219 749.226562 336.195312 Z M 749.226562 336.195312 " fill-opacity="1" fill-rule="evenodd"/><path fill="#fe9427" d="M 780.582031 392.273438 C 780.582031 392.273438 782.195312 398.550781 784.316406 410.011719 C 784.367188 409.949219 784.402344 409.886719 784.453125 409.824219 C 784.875 409.191406 786.4375 407.058594 789.777344 404.058594 C 789.777344 404.058594 793.785156 403.785156 801.789062 403.214844 C 801.789062 403.214844 802.222656 405.71875 803.066406 410.71875 C 803.066406 410.71875 799.800781 413.347656 793.636719 419.488281 C 797.542969 421.0625 801.9375 421.570312 806.378906 420.679688 C 816.242188 418.71875 823.292969 410.542969 824.273438 401.042969 C 824.421875 399.515625 824.421875 397.953125 824.257812 396.378906 C 824.183594 395.710938 824.085938 395.039062 823.949219 394.371094 C 823.578125 392.535156 822.992188 390.785156 822.222656 389.160156 C 820.039062 384.546875 816.355469 380.898438 811.925781 378.691406 C 807.644531 376.582031 802.667969 375.8125 797.628906 376.816406 C 796.015625 377.128906 794.492188 377.625 793.039062 378.257812 C 791.328125 379 789.738281 379.945312 788.300781 381.058594 C 784.625 383.914062 781.933594 387.84375 780.582031 392.273438 Z M 780.582031 392.273438 " fill-opacity="1" fill-rule="evenodd"/><path fill="#0c4674" d="M 783.433594 411.226562 C 782.046875 413.136719 780.59375 415.035156 778.90625 416.921875 C 777.242188 418.78125 775.34375 420.628906 773.0625 422.453125 C 746.507812 441.023438 733.269531 449.417969 733.269531 449.417969 C 733.269531 449.417969 729.582031 451.503906 722.238281 455.660156 C 720.324219 456.75 718.152344 457.964844 715.746094 459.332031 C 711.019531 462.132812 706.414062 464.703125 701.921875 467.035156 C 697.582031 469.292969 693.335938 471.339844 689.203125 473.160156 C 665.207031 483.78125 644.90625 487.042969 628.316406 482.960938 C 623.328125 481.25 620.125 478.335938 618.722656 474.191406 C 614.753906 464.925781 618.984375 450.203125 631.429688 430.019531 C 628.007812 428.183594 624.78125 426.3125 621.753906 424.386719 C 606.5 446.09375 600.632812 461.921875 605.347656 475.914062 C 622.507812 501.183594 662.6875 496.679688 725.882812 462.40625 C 754.398438 444.570312 775.457031 429.425781 789.03125 416.96875 C 794.492188 411.945312 798.746094 407.371094 801.789062 403.214844 C 793.785156 403.785156 789.777344 404.058594 789.777344 404.058594 C 786.4375 407.058594 784.875 409.191406 784.453125 409.824219 C 784.367188 409.949219 784.316406 410.023438 784.316406 410.023438 C 784.316406 410.011719 784.316406 410.011719 784.316406 410.011719 C 784.03125 410.421875 783.734375 410.828125 783.433594 411.226562 Z M 783.433594 411.226562 " fill-opacity="1" fill-rule="evenodd"/><path fill="#052c49" d="M 789.03125 416.96875 C 775.457031 429.425781 754.398438 444.570312 725.882812 462.40625 C 662.6875 496.679688 622.507812 501.183594 605.347656 475.914062 C 620.785156 521.761719 686.425781 492.625 732.621094 464.503906 C 734.457031 463.398438 736.246094 462.28125 738.007812 461.191406 C 754.335938 450.957031 767.6875 441.269531 774.636719 435.863281 C 777.390625 433.976562 780.058594 431.980469 782.417969 430.132812 C 784.03125 428.851562 785.507812 427.648438 786.734375 426.582031 C 789.328125 423.828125 791.636719 421.472656 793.636719 419.488281 C 799.800781 413.347656 803.066406 410.71875 803.066406 410.71875 C 802.222656 405.71875 801.789062 403.214844 801.789062 403.214844 C 798.746094 407.371094 794.492188 411.945312 789.03125 416.96875 Z M 789.03125 416.96875 " fill-opacity="1" fill-rule="evenodd"/><path fill="#0c4674" d="M 733.265625 449.417969 C 717.199219 445.386719 702.570312 441.269531 689.378906 437.039062 C 683.496094 435.167969 677.886719 433.257812 672.578125 431.347656 C 661.882812 427.476562 652.351562 423.53125 643.976562 419.527344 C 642.5625 418.84375 641.171875 418.160156 639.820312 417.480469 C 636.394531 415.742188 633.167969 413.992188 630.152344 412.21875 C 615.25 403.472656 605.582031 394.371094 601.179688 384.929688 C 598.621094 379.460938 597.816406 373.878906 598.785156 368.171875 C 593.074219 364.734375 590.222656 363.011719 590.222656 363.011719 C 589.453125 370.828125 590.394531 378.269531 593.039062 385.328125 C 598.425781 399.726562 610.90625 412.566406 630.488281 423.855469 C 659.066406 436.605469 689.640625 447.210938 722.238281 455.660156 C 729.582031 451.503906 733.269531 449.417969 733.269531 449.417969 Z M 733.265625 449.417969 " fill-opacity="1" fill-rule="evenodd"/><path fill="#052c49" d="M 722.238281 455.660156 C 689.640625 447.210938 659.066406 436.605469 630.488281 423.855469 C 610.90625 412.566406 598.425781 399.726562 593.039062 385.328125 C 590.394531 378.269531 589.453125 370.828125 590.222656 363.011719 C 587.691406 367.351562 586.425781 369.523438 586.425781 369.523438 C 586.1875 374.375 586.636719 379.085938 587.765625 383.652344 C 591.523438 398.835938 602.855469 412.417969 621.753906 424.386719 C 624.78125 426.3125 628.007812 428.183594 631.429688 430.019531 C 632.273438 430.476562 633.128906 430.925781 634 431.382812 C 639.65625 434.300781 645.824219 437.128906 652.5 439.832031 C 661.445312 443.28125 670.132812 446.378906 678.570312 449.121094 C 684.242188 450.96875 689.800781 452.65625 695.246094 454.195312 C 702.269531 456.167969 709.109375 457.878906 715.746094 459.332031 C 718.152344 457.964844 720.324219 456.75 722.238281 455.660156 Z M 722.238281 455.660156 " fill-opacity="1" fill-rule="evenodd"/><path fill="#052c49" d="M 695.246094 454.195312 C 689.800781 452.65625 684.242188 450.96875 678.570312 449.121094 C 682.765625 459.480469 686.3125 467.492188 689.203125 473.160156 C 693.335938 471.339844 697.582031 469.292969 701.921875 467.035156 C 700.085938 463.511719 697.867188 459.230469 695.246094 454.195312 Z M 695.246094 454.195312 " fill-opacity="1" fill-rule="evenodd"/><path fill="#60d3da" d="M 755.328125 506.800781 C 748.679688 508.128906 743.292969 512.285156 740.203125 517.765625 C 737.671875 522.257812 736.679688 527.652344 737.773438 533.097656 C 740.179688 545.21875 751.96875 553.082031 764.078125 550.664062 C 776.113281 548.269531 783.957031 536.632812 781.699219 524.601562 C 778.335938 529.476562 774.214844 533.609375 769.328125 536.992188 C 769.328125 536.992188 768.285156 536.90625 766.175781 536.746094 C 766.175781 536.746094 765.183594 532.875 763.210938 525.160156 C 767.253906 522.269531 770.445312 517.40625 772.789062 510.585938 C 767.925781 507.085938 761.671875 505.535156 755.328125 506.800781 Z M 755.328125 506.800781 " fill-opacity="1" fill-rule="evenodd"/><path fill="#0c4674" d="M 781.699219 524.601562 C 790.78125 511.453125 794.304688 492.871094 792.296875 468.882812 C 792.296875 468.882812 792.21875 467.628906 792.070312 465.148438 C 791.949219 463.050781 791.761719 460.0625 791.539062 456.191406 C 789.703125 442.683594 787.816406 432.128906 786.734375 426.582031 C 785.507812 427.648438 784.03125 428.851562 782.417969 430.132812 C 790.855469 469.042969 790.011719 498.675781 779.886719 519.046875 C 776.410156 526.042969 771.847656 531.933594 766.175781 536.746094 C 768.285156 536.90625 769.328125 536.992188 769.328125 536.992188 C 774.214844 533.609375 778.335938 529.476562 781.699219 524.601562 Z M 781.699219 524.601562 " fill-opacity="1" fill-rule="evenodd"/><path fill="#052c49" d="M 779.886719 519.046875 C 790.011719 498.675781 790.855469 469.042969 782.417969 430.132812 C 780.058594 431.980469 777.390625 433.976562 774.636719 435.863281 C 776.621094 448.054688 777.40625 452.84375 777.527344 464.613281 C 777.542969 465.90625 777.566406 467.195312 777.589844 468.484375 C 777.777344 486.65625 776.175781 500.6875 772.789062 510.585938 C 770.445312 517.40625 767.253906 522.269531 763.210938 525.160156 C 765.183594 532.875 766.175781 536.746094 766.175781 536.746094 C 771.847656 531.933594 776.410156 526.039062 779.886719 519.046875 Z M 779.886719 519.046875 " fill-opacity="1" fill-rule="evenodd"/><path fill="#0c4674" d="M 792.070312 465.148438 C 836.753906 461.699219 859.289062 449.765625 859.660156 429.351562 C 859.425781 421.347656 854.523438 405.894531 839.582031 393.910156 C 835.824219 391.070312 831.257812 387.832031 825.886719 384.199219 C 824.71875 385.835938 823.503906 387.484375 822.222656 389.160156 C 822.992188 390.785156 823.578125 392.535156 823.949219 394.371094 C 824.085938 395.039062 824.183594 395.710938 824.257812 396.378906 C 838.566406 405.769531 846.160156 415.855469 847.027344 426.632812 C 847.574219 430.515625 846.53125 434.238281 843.902344 437.785156 C 839.25 446.417969 821.789062 452.558594 791.539062 456.191406 C 791.761719 460.0625 791.949219 463.050781 792.070312 465.148438 Z M 792.070312 465.148438 " fill-opacity="1" fill-rule="evenodd"/><path fill="#052c49" d="M 859.660156 429.351562 C 859.289062 449.765625 836.753906 461.699219 792.070312 465.148438 C 792.21875 467.628906 792.296875 468.882812 792.296875 468.882812 C 823.6875 467.121094 860.503906 457.71875 859.660156 429.351562 Z M 859.660156 429.351562 " fill-opacity="1" fill-rule="evenodd"/><path fill="#052c49" d="M 824.273438 401.042969 C 838.34375 410.257812 845.925781 418.78125 847.027344 426.632812 C 846.160156 415.855469 838.566406 405.769531 824.257812 396.378906 C 824.421875 397.953125 824.421875 399.515625 824.273438 401.042969 Z M 824.273438 401.042969 " fill-opacity="1" fill-rule="evenodd"/><path fill="#0c4674" d="M 825.886719 384.199219 C 844.96875 357.28125 847.574219 335.078125 833.664062 317.597656 C 821.953125 305.667969 794.703125 307.328125 751.929688 322.597656 C 753.160156 324.855469 754.386719 327.175781 755.601562 329.558594 C 798.003906 313.976562 821.863281 314.335938 827.1875 330.625 C 832.363281 340.136719 827.734375 355.507812 813.289062 376.707031 C 812.84375 377.363281 812.382812 378.019531 811.925781 378.691406 C 816.355469 380.898438 820.039062 384.546875 822.222656 389.160156 C 823.503906 387.484375 824.71875 385.835938 825.886719 384.199219 Z M 825.886719 384.199219 " fill-opacity="1" fill-rule="evenodd"/><path fill="#0c4674" d="M 813.289062 376.707031 C 801.6875 370.144531 786.6875 363.855469 768.296875 357.828125 C 769.796875 361.574219 771.273438 365.441406 772.75 369.425781 C 782.441406 373.171875 789.207031 376.121094 793.039062 378.257812 C 794.492188 377.625 796.015625 377.128906 797.628906 376.816406 C 802.667969 375.8125 807.644531 376.582031 811.925781 378.691406 C 812.382812 378.019531 812.84375 377.363281 813.289062 376.707031 Z M 813.289062 376.707031 " fill-opacity="1" fill-rule="evenodd"/><path fill="#0c4674" d="M 755.328125 365.246094 C 753.730469 361.1875 752.105469 357.257812 750.429688 353.472656 C 746.148438 351.871094 739.324219 350.171875 729.96875 348.363281 C 725.363281 350.792969 720.648438 353.535156 715.859375 356.574219 C 730.984375 358.421875 744.148438 361.324219 755.328125 365.246094 Z M 755.328125 365.246094 " fill-opacity="1" fill-rule="evenodd"/><path fill="#052c49" d="M 755.328125 365.246094 C 744.148438 361.324219 730.984375 358.421875 715.859375 356.574219 C 714.257812 357.589844 712.632812 358.644531 711.007812 359.738281 C 730.574219 363.335938 745.988281 366.84375 757.265625 370.304688 C 756.621094 368.59375 755.976562 366.90625 755.328125 365.246094 Z M 755.328125 365.246094 " fill-opacity="1" fill-rule="evenodd"/><path fill="#052c49" d="M 772.75 369.425781 C 773.457031 371.371094 774.179688 373.34375 774.886719 375.355469 C 781.289062 377.574219 785.753906 379.484375 788.300781 381.058594 C 789.738281 379.941406 791.328125 379 793.039062 378.257812 C 789.207031 376.121094 782.441406 373.171875 772.75 369.425781 Z M 772.75 369.425781 " fill-opacity="1" fill-rule="evenodd"/><path fill="#052c49" d="M 758.332031 335.078125 C 790.410156 321 813.351562 319.523438 827.1875 330.625 C 821.863281 314.335938 798.003906 313.976562 755.601562 329.558594 C 756.519531 331.355469 757.425781 333.191406 758.332031 335.078125 Z M 758.332031 335.078125 " fill-opacity="1" fill-rule="evenodd"/><path fill="#052c49" d="M 744.78125 341.503906 C 743.851562 339.667969 742.910156 337.878906 741.964844 336.117188 C 722.535156 345.683594 700.421875 360.195312 675.617188 379.65625 C 676.015625 381.839844 676.449219 384.050781 676.894531 386.308594 C 688.734375 375.898438 700.097656 367.042969 711.007812 359.738281 C 712.632812 358.644531 714.257812 357.589844 715.859375 356.574219 C 720.648438 353.535156 725.363281 350.792969 729.96875 348.363281 C 735.015625 345.707031 739.957031 343.425781 744.78125 341.503906 Z M 744.78125 341.503906 " fill-opacity="1" fill-rule="evenodd"/><path fill="#0c4674" d="M 675.617188 379.65625 C 700.421875 360.195312 722.535156 345.683594 741.964844 336.117188 C 740.800781 333.949219 739.609375 331.839844 738.390625 329.792969 C 730.117188 333.277344 720.996094 338.128906 711.054688 344.316406 C 706.9375 346.875 702.691406 349.664062 698.300781 352.691406 C 696.5 353.917969 694.6875 355.183594 692.851562 356.5 C 686.835938 360.777344 680.570312 365.46875 674.042969 370.566406 C 674.527344 373.519531 675.046875 376.558594 675.617188 379.65625 Z M 675.617188 379.65625 " fill-opacity="1" fill-rule="evenodd"/><path fill="#0c4674" d="M 671.347656 349.058594 C 681.050781 349.527344 690.035156 350.742188 698.300781 352.691406 C 702.691406 349.664062 706.9375 346.875 711.054688 344.316406 C 697.976562 342.074219 684.539062 340.570312 670.742188 339.816406 C 670.863281 342.78125 671.0625 345.855469 671.347656 349.058594 Z M 671.347656 349.058594 " fill-opacity="1" fill-rule="evenodd"/><path fill="#052c49" d="M 698.300781 352.691406 C 690.035156 350.742188 681.050781 349.527344 671.347656 349.058594 C 671.472656 350.582031 671.621094 352.132812 671.785156 353.707031 C 683.0625 354.664062 690.085938 355.59375 692.851562 356.5 C 694.6875 355.183594 696.5 353.917969 698.300781 352.691406 Z M 698.300781 352.691406 " fill-opacity="1" fill-rule="evenodd"/><path fill="#052c49" d="M 671.785156 353.707031 C 671.621094 352.132812 671.472656 350.582031 671.347656 349.058594 C 671.0625 345.855469 670.863281 342.78125 670.742188 339.816406 C 669.898438 319.460938 672.566406 304.339844 678.746094 294.453125 C 673.546875 292.53125 669.214844 288.5625 666.945312 283.328125 C 657.675781 296.089844 653.605469 315.15625 654.757812 340.535156 C 654.871094 343.003906 655.03125 345.546875 655.242188 348.140625 C 655.378906 349.875 655.539062 351.625 655.726562 353.410156 C 656.644531 362.253906 658.109375 371.757812 660.105469 381.902344 C 660.789062 385.339844 661.519531 388.847656 662.328125 392.421875 C 662.75 394.296875 663.183594 396.179688 663.628906 398.089844 C 666.101562 408.558594 669.089844 419.648438 672.578125 431.347656 C 677.886719 433.257812 683.496094 435.167969 689.378906 437.039062 C 684.105469 418.484375 679.949219 401.5625 676.894531 386.308594 C 676.449219 384.050781 676.015625 381.839844 675.617188 379.65625 C 675.046875 376.558594 674.527344 373.519531 674.042969 370.566406 C 673.097656 364.648438 672.339844 359.042969 671.785156 353.707031 Z M 671.785156 353.707031 " fill-opacity="1" fill-rule="evenodd"/><path fill="#052c49" d="M 655.726562 353.410156 C 655.539062 351.625 655.378906 349.875 655.242188 348.140625 C 638.800781 348.558594 624.59375 351.203125 612.632812 356.078125 C 613.648438 357.738281 614.445312 359.5625 614.941406 361.546875 C 627.410156 355.929688 641.011719 353.210938 655.726562 353.410156 Z M 655.726562 353.410156 " fill-opacity="1" fill-rule="evenodd"/><path fill="#0c4674" d="M 612.632812 356.078125 C 624.59375 351.203125 638.800781 348.558594 655.242188 348.140625 C 655.03125 345.546875 654.871094 343.003906 654.757812 340.535156 C 640.042969 340.375 623.996094 343.535156 606.636719 349.988281 C 609.035156 351.539062 611.105469 353.609375 612.632812 356.078125 Z M 612.632812 356.078125 " fill-opacity="1" fill-rule="evenodd"/><path fill="#3095b3" d="M 612.632812 356.078125 C 611.105469 353.609375 609.035156 351.539062 606.636719 349.988281 C 602.570312 347.382812 597.519531 346.277344 592.40625 347.296875 C 581.933594 349.390625 575.144531 359.5625 577.230469 370.03125 C 578.457031 376.210938 582.503906 381.097656 587.765625 383.652344 C 586.636719 379.085938 586.1875 374.375 586.425781 369.523438 C 586.425781 369.523438 587.691406 367.351562 590.222656 363.011719 C 590.222656 363.011719 593.074219 364.734375 598.785156 368.171875 C 597.816406 373.878906 598.621094 379.460938 601.179688 384.929688 C 610.957031 382.324219 617.148438 372.539062 615.152344 362.476562 C 615.089844 362.15625 615.015625 361.84375 614.941406 361.546875 C 614.445312 359.5625 613.648438 357.738281 612.632812 356.078125 Z M 612.632812 356.078125 " fill-opacity="1" fill-rule="evenodd"/><path fill="#0c4674" d="M 660.105469 381.902344 C 651.136719 388.949219 641.160156 399.058594 630.152344 412.21875 C 633.167969 413.992188 636.394531 415.742188 639.820312 417.480469 C 649.832031 405.160156 657.339844 396.8125 662.328125 392.421875 C 661.519531 388.851562 660.789062 385.339844 660.105469 381.902344 Z M 660.105469 381.902344 " fill-opacity="1" fill-rule="evenodd"/><path fill="#052c49" d="M 662.328125 392.421875 C 657.339844 396.8125 649.832031 405.160156 639.820312 417.480469 C 641.171875 418.160156 642.5625 418.84375 643.976562 419.527344 C 650.851562 410.359375 657.402344 403.214844 663.628906 398.089844 C 663.183594 396.179688 662.75 394.296875 662.328125 392.421875 Z M 662.328125 392.421875 " fill-opacity="1" fill-rule="evenodd"/><path fill="#052c49" d="M 634 431.382812 C 633.128906 430.925781 632.273438 430.476562 631.429688 430.019531 C 618.984375 450.203125 614.753906 464.925781 618.722656 474.191406 C 615.734375 465.410156 620.832031 451.144531 634 431.382812 Z M 634 431.382812 " fill-opacity="1" fill-rule="evenodd"/><path fill="#052c49" d="M 777.527344 464.613281 C 770.628906 464.589844 756.71875 463.3125 738.007812 461.191406 C 736.246094 462.28125 734.457031 463.398438 732.621094 464.503906 C 747.984375 467.246094 763.992188 468.609375 777.589844 468.484375 C 777.566406 467.195312 777.542969 465.90625 777.527344 464.613281 Z M 777.527344 464.613281 " fill-opacity="1" fill-rule="evenodd"/><path fill="#052c49" d="M 740.203125 517.765625 C 728.789062 509.394531 717.65625 495.726562 707.695312 478.570312 C 703.660156 480.652344 699.578125 482.664062 695.484375 484.5625 C 706.367188 505.820312 720.683594 522.542969 737.773438 533.097656 C 736.679688 527.652344 737.671875 522.257812 740.203125 517.765625 Z M 740.203125 517.765625 " fill-opacity="1" fill-rule="evenodd"/><path fill="#0c4674" d="M 738.007812 461.191406 C 756.71875 463.3125 770.628906 464.589844 777.527344 464.613281 C 777.492188 461.191406 777.429688 459.691406 777.269531 456.179688 C 766.558594 456.339844 756.746094 454.457031 750.179688 453.316406 C 746.0625 456.082031 742.699219 458.25 738.007812 461.191406 Z M 738.007812 461.191406 " fill-opacity="1" fill-rule="evenodd"/><path fill="#2d8aa6" d="M 585.085938 350.421875 C 593.671875 348.621094 602.445312 352.578125 606.800781 360.195312 C 611.15625 367.824219 610.089844 377.375 604.167969 383.863281 C 612.183594 380.242188 616.9375 371.457031 615.152344 362.476562 C 615.089844 362.15625 615.015625 361.84375 614.941406 361.546875 C 614.445312 359.5625 613.648438 357.738281 612.632812 356.078125 C 611.105469 353.609375 609.035156 351.539062 606.636719 349.988281 C 602.570312 347.382812 597.519531 346.277344 592.40625 347.296875 C 589.6875 347.839844 587.21875 348.933594 585.085938 350.421875 Z M 585.085938 350.421875 " fill-opacity="1" fill-rule="evenodd"/><path fill="#c7222a" d="M 673.570312 279.53125 C 670.492188 270.972656 672.9375 261.40625 679.761719 255.390625 C 669.785156 258.46875 663.542969 268.664062 665.640625 279.121094 C 665.925781 280.597656 666.375 282 666.945312 283.328125 C 669.214844 288.5625 673.546875 292.53125 678.746094 294.453125 C 682.195312 295.730469 686.027344 296.089844 689.914062 295.320312 C 691.238281 295.0625 692.53125 294.664062 693.746094 294.167969 C 684.652344 293.882812 676.660156 288.078125 673.570312 279.53125 Z M 673.570312 279.53125 " fill-opacity="1" fill-rule="evenodd"/><path fill="#f08c28" d="M 814.554688 393.921875 C 818.179688 403.351562 815.335938 414.042969 807.507812 420.429688 C 816.777344 418.085938 823.328125 410.183594 824.273438 401.042969 C 824.421875 399.515625 824.421875 397.953125 824.257812 396.378906 C 824.183594 395.710938 824.085938 395.039062 823.949219 394.371094 C 823.578125 392.535156 822.992188 390.785156 822.222656 389.160156 C 820.039062 384.546875 816.355469 380.898438 811.925781 378.691406 C 807.644531 376.582031 802.667969 375.8125 797.628906 376.816406 C 796.015625 377.128906 794.492188 377.625 793.039062 378.257812 C 792.542969 378.46875 792.058594 378.703125 791.574219 378.949219 C 801.675781 378.453125 810.933594 384.496094 814.554688 393.921875 Z M 814.554688 393.921875 " fill-opacity="1" fill-rule="evenodd"/><path fill="#52bec4" d="M 746.558594 535.964844 C 741.59375 526.957031 743.132812 515.769531 750.316406 508.425781 C 745.988281 510.425781 742.476562 513.734375 740.203125 517.765625 C 737.671875 522.257812 736.679688 527.652344 737.773438 533.097656 C 740.179688 545.21875 751.96875 553.082031 764.078125 550.664062 C 766.933594 550.09375 769.550781 549.015625 771.859375 547.523438 C 761.792969 549.671875 751.519531 544.96875 746.558594 535.964844 Z M 746.558594 535.964844 " fill-opacity="1" fill-rule="evenodd"/><g clip-path="url(#a1cdbc3f8f)"><path fill="#000000" d="M 658.097656 277.980469 C 658.070312 264.832031 666.460938 252.785156 679.289062 248.496094 C 679.550781 248.421875 679.8125 248.332031 680.070312 248.246094 C 689.054688 245.816406 697.71875 246.707031 705.992188 251.867188 C 711.6875 255.554688 716.195312 261.074219 718.5 267.796875 C 718.515625 267.820312 718.527344 267.847656 718.539062 267.871094 C 727.410156 273.042969 735.277344 280.0625 742.238281 288.003906 L 746.0625 288.113281 L 743.320312 289.242188 C 748.578125 295.382812 753.296875 302.042969 757.527344 308.792969 C 758.359375 310.121094 759.175781 311.445312 759.972656 312.773438 C 775.085938 307.726562 791.648438 303.285156 807.085938 302.34375 C 820.214844 301.546875 834.71875 303.296875 844.386719 313.144531 L 844.769531 313.542969 L 845.105469 313.964844 C 860.976562 333.921875 857.835938 356.472656 847.539062 376.84375 C 846.273438 379.347656 844.894531 381.828125 843.429688 384.261719 C 845.355469 385.636719 847.265625 387.027344 849.152344 388.453125 L 849.261719 388.539062 L 849.375 388.640625 C 864.585938 400.820312 871.871094 415.222656 873.359375 431.890625 C 873.359375 431.890625 873.359375 431.90625 873.359375 431.917969 L 873.371094 432.140625 L 873.371094 432.152344 C 873.808594 450.910156 862.03125 463.734375 845.777344 471.363281 C 835.128906 476.363281 822.707031 479.238281 810.511719 480.816406 C 809.171875 480.988281 807.84375 481.136719 806.515625 481.285156 C 806.726562 491.59375 805.871094 502.136719 803.191406 512.074219 C 801.503906 518.339844 799.082031 524.367188 795.746094 529.960938 C 796.550781 545.925781 785.507812 560.511719 769.402344 563.726562 C 753.246094 566.9375 737.449219 557.632812 732.089844 542.550781 C 716.34375 531.910156 703.847656 517.148438 694.242188 500.8125 C 678.707031 507.359375 661.410156 512.78125 645.414062 513.101562 C 623.6875 513.550781 606.800781 504.148438 599.242188 483.480469 L 599.207031 483.433594 L 598.757812 482.117188 C 598.757812 482.105469 598.757812 482.09375 598.746094 482.082031 C 592.640625 463.957031 600.769531 445.550781 610.660156 429.96875 C 601.984375 423.457031 594.179688 415.765625 588.507812 406.6875 C 586.039062 403.164062 583.730469 398.015625 582.179688 393.289062 C 576.089844 388.925781 571.78125 382.363281 570.292969 374.90625 C 569.820312 372.527344 569.648438 370.144531 569.746094 367.8125 C 570.753906 357.628906 574.824219 349.839844 582.378906 344.753906 C 584.042969 343.585938 585.804688 342.59375 587.652344 341.800781 C 589.476562 341.019531 591.386719 340.398438 593.398438 339.988281 C 593.484375 339.964844 593.570312 339.953125 593.660156 339.925781 C 593.707031 339.914062 593.769531 339.914062 593.820312 339.902344 C 597.804688 339.132812 601.847656 339.183594 605.734375 340.015625 C 607.394531 340.375 609.035156 340.882812 610.609375 341.527344 C 622.496094 337.410156 634.894531 334.40625 647.4375 333.363281 C 647.550781 322.449219 648.726562 311.148438 651.878906 300.644531 C 653.578125 295 655.839844 289.578125 658.816406 284.566406 C 658.777344 284.378906 658.742188 284.195312 658.703125 284.007812 C 658.296875 281.988281 658.109375 279.964844 658.097656 277.980469 Z M 742.398438 506.058594 C 744.484375 504.382812 746.78125 502.945312 749.238281 501.816406 L 769.710938 492.375 C 770.058594 488.765625 770.269531 485.121094 770.382812 481.585938 C 759.625 481.175781 748.777344 480.035156 738.21875 478.308594 C 738.132812 478.296875 738.058594 478.285156 737.96875 478.273438 C 734 480.640625 729.890625 483.035156 725.671875 485.378906 C 728.304688 489.375 731.183594 493.367188 734.261719 497.140625 C 736.828125 500.300781 739.546875 503.316406 742.398438 506.058594 Z M 832.175781 420.367188 C 827.757812 426.683594 821.144531 431.394531 813.339844 433.367188 L 801.875 436.257812 C 802.085938 437.511719 802.296875 438.753906 802.507812 440.003906 C 802.90625 442.449219 803.289062 444.890625 803.660156 447.335938 C 811.675781 446.109375 819.878906 444.433594 827.152344 441.878906 C 829.644531 441.007812 836.65625 438.207031 838.007812 435.6875 L 838.367188 435.03125 L 838.816406 434.421875 C 839.597656 433.367188 840.191406 432.265625 839.992188 430.925781 C 839.546875 427.6875 836.085938 423.804688 832.175781 420.367188 Z M 705.074219 304.960938 L 700.980469 306.644531 C 699.132812 307.402344 697.195312 307.984375 695.222656 308.382812 C 692.816406 308.855469 690.371094 309.054688 687.9375 308.953125 C 685.332031 316.171875 684.464844 324.96875 684.316406 332.917969 C 693.648438 333.664062 702.953125 334.765625 712.199219 336.253906 C 716.875 333.425781 721.652344 330.722656 726.542969 328.230469 C 720.535156 319.523438 713.425781 311.296875 705.074219 304.960938 Z M 626.765625 380.921875 C 625.078125 384.832031 622.546875 388.367188 619.332031 391.242188 C 622.792969 395.0625 627.113281 398.5 631.382812 401.441406 C 633.230469 399.332031 635.128906 397.234375 637.050781 395.175781 C 641.542969 390.351562 646.234375 385.6875 651.136719 381.394531 C 651.421875 381.148438 651.71875 380.886719 652.015625 380.636719 C 651.53125 377.984375 651.085938 375.328125 650.664062 372.675781 C 650.367188 370.777344 650.082031 368.878906 649.820312 366.96875 C 642.957031 367.527344 636.246094 368.839844 629.71875 371.050781 C 629.53125 371.113281 629.332031 371.171875 629.148438 371.246094 C 628.898438 374.621094 628.082031 377.882812 626.765625 380.921875 Z M 632.945312 464.480469 C 631.726562 468.015625 631.171875 471.175781 631.777344 473.386719 C 631.804688 473.484375 631.839844 473.59375 631.863281 473.695312 C 632.25 474.8125 633.476562 475.40625 634.558594 475.804688 C 648.566406 479.089844 664.4375 475.628906 678.359375 470.519531 C 677.480469 468.546875 676.621094 466.574219 675.792969 464.589844 C 675.195312 463.175781 674.601562 461.761719 674.015625 460.347656 C 666.632812 457.855469 659.3125 455.1875 652.042969 452.398438 L 651.941406 452.359375 L 651.855469 452.324219 C 648.257812 450.859375 644.671875 449.320312 641.132812 447.683594 C 638.15625 452.742188 634.792969 459.046875 632.945312 464.480469 Z M 821.953125 340.1875 C 809.976562 332.820312 790.148438 337.980469 775.628906 343.4375 C 776.933594 346.378906 778.199219 349.34375 779.425781 352.304688 C 790.730469 356.152344 802.171875 360.554688 812.941406 365.863281 C 816.207031 360.34375 819.878906 353.324219 821.417969 347.417969 C 822.125 344.691406 822.386719 342.183594 821.953125 340.1875 Z M 821.953125 340.1875 " fill-opacity="0.2" fill-rule="evenodd"/></g><g clip-path="url(#f4ab26e3a4)"><path fill="#ffffff" d="M 654.820312 275.128906 C 654.796875 261.980469 663.171875 249.945312 676.003906 245.65625 C 676.261719 245.566406 676.523438 245.492188 676.785156 245.40625 C 685.769531 242.976562 694.441406 243.867188 702.707031 249.027344 C 708.414062 252.710938 712.90625 258.234375 715.226562 264.957031 C 715.238281 264.980469 715.238281 265.003906 715.25 265.03125 C 724.121094 270.203125 732 277.222656 738.964844 285.148438 L 742.785156 285.273438 L 740.042969 286.402344 C 745.292969 292.542969 750.019531 299.203125 754.25 305.953125 C 755.082031 307.277344 755.886719 308.605469 756.683594 309.933594 C 771.808594 304.886719 788.363281 300.445312 803.808594 299.5 C 816.925781 298.695312 831.429688 300.457031 841.097656 310.304688 L 841.484375 310.691406 L 841.816406 311.125 C 857.699219 331.082031 854.546875 353.632812 844.261719 374 C 842.996094 376.507812 841.617188 378.988281 840.15625 381.417969 C 842.078125 382.796875 843.988281 384.1875 845.863281 385.613281 L 845.988281 385.699219 L 846.097656 385.785156 C 861.300781 397.964844 868.59375 412.378906 870.085938 429.039062 C 870.085938 429.050781 870.085938 429.0625 870.085938 429.078125 L 870.085938 429.3125 C 870.53125 448.066406 858.742188 460.882812 842.5 468.523438 C 831.851562 473.519531 819.433594 476.398438 807.222656 477.972656 C 805.882812 478.136719 804.554688 478.296875 803.226562 478.433594 C 803.4375 488.753906 802.59375 499.285156 799.914062 509.234375 C 798.214844 515.496094 795.808594 521.527344 792.46875 527.109375 C 793.261719 543.085938 782.230469 557.671875 766.125 560.871094 C 749.96875 564.097656 734.160156 554.792969 728.8125 539.710938 C 713.066406 529.066406 700.570312 514.304688 690.96875 497.957031 C 675.417969 504.507812 658.121094 509.941406 642.140625 510.261719 C 620.398438 510.710938 603.523438 501.308594 595.96875 480.640625 L 595.929688 480.578125 L 595.484375 479.265625 C 595.484375 479.253906 595.472656 479.238281 595.472656 479.238281 C 589.367188 461.105469 597.492188 442.710938 607.371094 427.117188 C 598.710938 420.605469 590.890625 412.914062 585.234375 403.847656 C 582.753906 400.324219 580.457031 395.164062 578.894531 390.449219 C 572.8125 386.082031 568.496094 379.507812 567.019531 372.066406 C 566.535156 369.671875 566.359375 367.289062 566.460938 364.957031 C 567.476562 354.789062 571.535156 346.996094 579.105469 341.898438 C 580.753906 340.746094 582.527344 339.753906 584.378906 338.960938 C 586.1875 338.164062 588.113281 337.558594 590.121094 337.136719 C 590.210938 337.125 590.285156 337.097656 590.371094 337.085938 C 590.433594 337.074219 590.484375 337.0625 590.542969 337.050781 C 594.527344 336.28125 598.574219 336.34375 602.445312 337.171875 C 604.121094 337.53125 605.746094 338.042969 607.332031 338.675781 C 619.207031 334.570312 631.617188 331.566406 644.160156 330.511719 C 644.273438 319.609375 645.441406 308.308594 648.589844 297.800781 C 650.292969 292.15625 652.5625 286.738281 655.539062 281.726562 C 655.503906 281.539062 655.453125 281.355469 655.417969 281.15625 C 655.019531 279.132812 654.820312 277.125 654.820312 275.128906 Z M 739.125 503.21875 C 741.195312 501.53125 743.492188 500.105469 745.960938 498.976562 L 766.421875 489.535156 C 766.78125 485.925781 766.980469 482.277344 767.09375 478.742188 C 756.347656 478.335938 745.488281 477.191406 734.929688 475.46875 C 734.855469 475.457031 734.769531 475.445312 734.695312 475.429688 C 730.722656 477.800781 726.617188 480.183594 722.398438 482.539062 C 725.027344 486.535156 727.894531 490.515625 730.984375 494.296875 C 733.554688 497.460938 736.269531 500.464844 739.125 503.21875 Z M 828.886719 417.515625 C 824.46875 423.828125 817.867188 428.554688 810.0625 430.527344 L 798.585938 433.417969 C 798.796875 434.671875 799.019531 435.910156 799.21875 437.164062 C 799.628906 439.609375 800.011719 442.050781 800.386719 444.496094 C 808.390625 443.265625 816.589844 441.59375 823.863281 439.039062 C 826.355469 438.15625 833.367188 435.367188 834.730469 432.847656 L 835.09375 432.179688 L 835.539062 431.570312 C 836.320312 430.515625 836.902344 429.425781 836.71875 428.085938 C 836.257812 424.835938 832.808594 420.964844 828.886719 417.515625 Z M 701.800781 302.117188 L 697.703125 303.792969 C 695.84375 304.5625 693.921875 305.144531 691.945312 305.53125 C 689.527344 306.015625 687.082031 306.210938 684.652344 306.113281 C 682.058594 313.332031 681.175781 322.113281 681.027344 330.066406 C 690.371094 330.824219 699.664062 331.925781 708.921875 333.414062 C 713.585938 330.585938 718.378906 327.882812 723.253906 325.390625 C 717.25 316.679688 710.136719 308.457031 701.800781 302.117188 Z M 623.488281 378.070312 C 621.789062 381.976562 619.269531 385.511719 616.054688 388.402344 C 619.519531 392.210938 623.835938 395.660156 628.105469 398.597656 C 629.953125 396.492188 631.839844 394.394531 633.761719 392.324219 C 638.253906 387.511719 642.957031 382.847656 647.847656 378.554688 C 648.144531 378.304688 648.441406 378.046875 648.726562 377.796875 C 648.257812 375.144531 647.796875 372.488281 647.386719 369.832031 C 647.089844 367.9375 646.804688 366.027344 646.542969 364.128906 C 639.683594 364.6875 632.957031 366 626.441406 368.195312 C 626.242188 368.269531 626.058594 368.332031 625.859375 368.394531 C 625.625 371.769531 624.804688 375.042969 623.488281 378.070312 Z M 629.65625 461.636719 C 628.453125 465.171875 627.882812 468.335938 628.488281 470.542969 C 628.515625 470.644531 628.550781 470.742188 628.589844 470.84375 C 628.960938 471.972656 630.191406 472.566406 631.269531 472.949219 C 645.292969 476.25 661.160156 472.789062 675.070312 467.667969 C 674.203125 465.707031 673.347656 463.722656 672.503906 461.75 C 671.90625 460.324219 671.324219 458.910156 670.742188 457.496094 C 663.359375 455.015625 656.023438 452.347656 648.753906 449.542969 L 648.667969 449.519531 L 648.578125 449.480469 C 644.96875 448.019531 641.394531 446.46875 637.859375 444.84375 C 634.878906 449.890625 631.503906 456.203125 629.65625 461.636719 Z M 818.664062 337.335938 C 806.703125 329.980469 786.871094 335.140625 772.355469 340.597656 C 773.65625 343.535156 774.910156 346.488281 776.140625 349.464844 C 787.441406 353.300781 798.894531 357.703125 809.65625 363.011719 C 812.929688 357.492188 816.589844 350.484375 818.140625 344.566406 C 818.847656 341.835938 819.109375 339.34375 818.664062 337.335938 Z M 818.664062 337.335938 " fill-opacity="1" fill-rule="evenodd"/></g><path fill="#db2b35" d="M 715.832031 370.40625 C 735.003906 365.902344 754.199219 377.785156 758.691406 396.949219 C 763.195312 416.113281 751.308594 435.304688 732.136719 439.804688 C 712.96875 444.308594 693.769531 432.414062 689.265625 413.25 C 684.761719 394.085938 696.664062 374.894531 715.832031 370.40625 Z M 715.832031 370.40625 " fill-opacity="1" fill-rule="evenodd"/><path fill="#c7252e" d="M 735.773438 387.632812 C 747.5 395.546875 754.648438 408.660156 754.933594 422.800781 C 759.261719 415.246094 760.851562 406.089844 758.691406 396.949219 C 758.34375 395.449219 757.898438 393.984375 757.378906 392.570312 C 756.507812 390.277344 755.429688 388.09375 754.152344 386.082031 C 752.949219 384.171875 751.582031 382.398438 750.070312 380.785156 C 741.632812 371.757812 728.726562 367.367188 715.832031 370.40625 C 712.382812 371.210938 709.171875 372.488281 706.242188 374.164062 C 704.578125 375.117188 703.015625 376.195312 701.550781 377.386719 C 699.789062 378.816406 698.175781 380.390625 696.722656 382.113281 C 696.476562 382.410156 696.226562 382.722656 695.980469 383.03125 C 709.207031 378.007812 724.046875 379.71875 735.773438 387.632812 Z M 735.773438 387.632812 " fill-opacity="1" fill-rule="evenodd"/><path fill="#052c49" d="M 689.914062 295.320312 C 694.367188 294.429688 698.214844 292.171875 701.066406 289.058594 C 714.878906 297.355469 727.324219 310.976562 738.390625 329.792969 C 730.117188 333.277344 720.996094 338.128906 711.054688 344.316406 C 697.976562 342.074219 684.539062 340.570312 670.742188 339.816406 C 669.898438 319.460938 672.566406 304.339844 678.746094 294.453125 C 682.195312 295.730469 686.027344 296.089844 689.914062 295.320312 Z M 777.492188 462.222656 C 777.453125 460.25 777.378906 458.761719 777.269531 456.191406 C 777.378906 458.039062 777.441406 460 777.492188 462.222656 Z M 777.269531 456.179688 C 766.558594 456.339844 756.746094 454.457031 750.179688 453.316406 C 746.0625 456.082031 742.699219 458.25 738.007812 461.191406 C 754.335938 450.957031 767.6875 441.269531 774.636719 435.863281 C 776.078125 444.695312 776.882812 449.644531 777.269531 456.179688 Z M 740.203125 517.765625 C 728.789062 509.394531 717.65625 495.726562 707.695312 478.570312 L 707.507812 478.667969 C 716.21875 474.179688 724.707031 469.328125 732.621094 464.503906 C 747.984375 467.246094 763.992188 468.609375 777.589844 468.484375 C 777.777344 486.65625 776.175781 500.6875 772.789062 510.585938 C 767.925781 507.085938 761.671875 505.535156 755.328125 506.800781 C 748.679688 508.128906 743.292969 512.285156 740.203125 517.765625 Z M 707.394531 478.730469 C 706.613281 479.128906 705.832031 479.539062 705.050781 479.933594 Z M 705.050781 479.933594 C 704.257812 480.332031 703.460938 480.726562 702.667969 481.125 C 703.460938 480.726562 704.257812 480.332031 705.050781 479.933594 Z M 702.632812 481.136719 C 700.261719 482.316406 697.878906 483.457031 695.484375 484.5625 C 706.367188 505.820312 720.683594 522.542969 737.773438 533.097656 C 740.179688 545.21875 751.96875 553.082031 764.078125 550.664062 C 776.113281 548.269531 783.957031 536.632812 781.699219 524.601562 C 790.78125 511.453125 794.304688 492.871094 792.296875 468.882812 C 823.6875 467.121094 860.503906 457.71875 859.660156 429.351562 C 859.425781 421.347656 854.523438 405.894531 839.582031 393.910156 C 835.824219 391.070312 831.257812 387.832031 825.886719 384.199219 C 844.96875 357.28125 847.574219 335.078125 833.664062 317.597656 C 821.953125 305.667969 794.703125 307.328125 751.929688 322.597656 C 737.921875 297.019531 722.707031 280.164062 706.277344 272.015625 C 706.230469 271.691406 706.179688 271.382812 706.105469 271.058594 C 703.882812 259.882812 693.015625 252.636719 681.835938 254.859375 C 670.667969 257.089844 663.40625 267.957031 665.640625 279.121094 C 665.925781 280.597656 666.375 282 666.945312 283.328125 C 657.675781 296.089844 653.605469 315.15625 654.757812 340.535156 C 640.042969 340.375 623.996094 343.535156 606.636719 349.988281 C 602.570312 347.382812 597.519531 346.277344 592.40625 347.296875 C 581.933594 349.390625 575.144531 359.5625 577.230469 370.03125 C 578.457031 376.210938 582.503906 381.097656 587.765625 383.652344 C 591.523438 398.835938 602.855469 412.417969 621.753906 424.386719 C 606.5 446.09375 600.632812 461.921875 605.347656 475.914062 C 617.644531 512.433594 661.820312 501.367188 702.632812 481.136719 Z M 618.722656 474.191406 C 615.734375 465.410156 620.832031 451.144531 634 431.382812 C 639.65625 434.300781 645.824219 437.128906 652.5 439.832031 C 661.445312 443.28125 670.132812 446.378906 678.570312 449.121094 C 682.765625 459.480469 686.3125 467.492188 689.203125 473.160156 C 665.207031 483.78125 644.90625 487.042969 628.316406 482.960938 C 623.328125 481.25 620.125 478.335938 618.722656 474.191406 Z M 643.976562 419.527344 C 650.851562 410.359375 657.402344 403.214844 663.628906 398.089844 C 666.101562 408.558594 669.089844 419.648438 672.578125 431.347656 C 661.882812 427.476562 652.351562 423.53125 643.976562 419.527344 Z M 660.105469 381.902344 C 651.136719 388.949219 641.160156 399.058594 630.152344 412.21875 C 615.25 403.472656 605.582031 394.371094 601.179688 384.929688 C 610.957031 382.324219 617.148438 372.539062 615.152344 362.476562 C 615.089844 362.15625 615.015625 361.84375 614.941406 361.546875 C 627.410156 355.929688 641.011719 353.210938 655.726562 353.410156 C 656.644531 362.253906 658.109375 371.757812 660.105469 381.902344 Z M 671.785156 353.707031 C 683.0625 354.664062 690.085938 355.59375 692.851562 356.5 C 686.835938 360.777344 680.570312 365.46875 674.042969 370.566406 C 673.097656 364.648438 672.339844 359.042969 671.785156 353.707031 Z M 676.894531 386.308594 C 688.734375 375.898438 700.097656 367.042969 711.007812 359.738281 C 730.574219 363.335938 745.988281 366.84375 757.265625 370.304688 C 763.046875 385.761719 768.308594 403.152344 773.0625 422.453125 C 746.507812 441.023438 733.269531 449.417969 733.269531 449.417969 C 717.199219 445.386719 702.570312 441.269531 689.378906 437.039062 C 684.105469 418.484375 679.949219 401.5625 676.894531 386.308594 Z M 744.78125 341.503906 C 746.707031 345.324219 748.59375 349.316406 750.429688 353.472656 C 746.148438 351.871094 739.324219 350.171875 729.96875 348.363281 C 735.015625 345.707031 739.957031 343.425781 744.78125 341.503906 Z M 758.332031 335.078125 C 790.410156 321 813.351562 319.523438 827.1875 330.625 C 832.363281 340.136719 827.734375 355.507812 813.289062 376.707031 C 801.6875 370.144531 786.6875 363.855469 768.296875 357.828125 C 765.046875 349.703125 761.734375 342.121094 758.332031 335.078125 Z M 774.886719 375.355469 C 781.289062 377.574219 785.753906 379.484375 788.300781 381.058594 C 784.625 383.914062 781.933594 387.84375 780.582031 392.273438 C 778.71875 386.429688 776.820312 380.785156 774.886719 375.355469 Z M 824.273438 401.042969 C 838.34375 410.257812 845.925781 418.78125 847.027344 426.632812 C 847.574219 430.515625 846.53125 434.238281 843.902344 437.785156 C 839.25 446.417969 821.789062 452.558594 791.539062 456.191406 C 789.703125 442.683594 787.816406 432.128906 786.734375 426.582031 C 789.328125 423.828125 791.636719 421.472656 793.636719 419.488281 C 797.542969 421.0625 801.9375 421.570312 806.378906 420.679688 C 816.242188 418.71875 823.292969 410.542969 824.273438 401.042969 Z M 701.921875 467.035156 C 700.085938 463.511719 697.867188 459.230469 695.246094 454.195312 C 702.269531 456.167969 709.109375 457.878906 715.746094 459.332031 C 711.019531 462.132812 706.414062 464.703125 701.921875 467.035156 Z M 784.316406 410.011719 L 784.441406 409.835938 C 784.367188 409.960938 784.316406 410.023438 784.316406 410.023438 C 784.316406 410.011719 784.316406 410.011719 784.316406 410.011719 Z M 784.316406 410.011719 " fill-opacity="1" fill-rule="evenodd"/><path fill="#db2b35" d="M 689.914062 295.320312 C 694.367188 294.429688 698.214844 292.171875 701.066406 289.058594 C 697.777344 287.085938 694.417969 285.410156 690.980469 284.035156 C 689.566406 276.9375 688.855469 273.390625 688.855469 273.390625 C 696.613281 270.808594 700.484375 269.519531 700.484375 269.519531 C 702.433594 270.238281 704.367188 271.070312 706.277344 272.011719 C 706.230469 271.691406 706.179688 271.382812 706.105469 271.058594 C 703.882812 259.882812 693.015625 252.636719 681.835938 254.859375 C 670.667969 257.089844 663.40625 267.957031 665.640625 279.121094 C 665.925781 280.597656 666.375 282 666.945312 283.328125 C 669.214844 288.5625 673.546875 292.53125 678.746094 294.453125 C 682.195312 295.730469 686.027344 296.089844 689.914062 295.320312 Z M 689.914062 295.320312 " fill-opacity="1" fill-rule="evenodd"/><path fill="#0c4674" d="M 705.199219 282.320312 C 721.863281 293.808594 736.542969 311.769531 749.226562 336.195312 C 760.640625 358.324219 770.714844 385.824219 778.90625 416.921875 C 780.59375 415.035156 782.046875 413.136719 783.433594 411.226562 C 783.734375 410.828125 784.03125 410.421875 784.316406 410.011719 C 782.195312 398.550781 780.582031 392.273438 780.582031 392.273438 C 778.71875 386.429688 776.820312 380.785156 774.886719 375.355469 C 774.179688 373.34375 773.457031 371.371094 772.75 369.425781 C 771.273438 365.441406 769.796875 361.574219 768.296875 357.828125 C 765.046875 349.703125 761.734375 342.121094 758.332031 335.078125 C 757.425781 333.191406 756.519531 331.355469 755.601562 329.558594 C 754.386719 327.175781 753.160156 324.855469 751.929688 322.597656 C 737.921875 297.019531 722.707031 280.164062 706.277344 272.011719 C 704.367188 271.070312 702.433594 270.238281 700.484375 269.519531 C 700.484375 269.519531 696.613281 270.808594 688.855469 273.390625 C 694.503906 275.722656 699.949219 278.699219 705.199219 282.320312 Z M 705.199219 282.320312 " fill-opacity="1" fill-rule="evenodd"/><path fill="#052c49" d="M 749.226562 336.195312 C 736.542969 311.769531 721.863281 293.808594 705.199219 282.320312 C 699.949219 278.699219 694.503906 275.722656 688.855469 273.390625 C 688.855469 273.390625 689.566406 276.9375 690.980469 284.035156 C 694.417969 285.410156 697.777344 287.085938 701.066406 289.058594 C 714.878906 297.355469 727.324219 310.976562 738.390625 329.792969 C 739.609375 331.839844 740.800781 333.949219 741.964844 336.117188 C 742.910156 337.878906 743.851562 339.667969 744.78125 341.503906 C 746.707031 345.324219 748.59375 349.316406 750.429688 353.472656 C 752.105469 357.257812 753.730469 361.1875 755.328125 365.246094 C 755.976562 366.90625 756.621094 368.59375 757.265625 370.304688 C 763.046875 385.761719 768.308594 403.152344 773.0625 422.453125 C 775.34375 420.628906 777.242188 418.78125 778.90625 416.921875 C 770.714844 385.824219 760.640625 358.324219 749.226562 336.195312 Z M 749.226562 336.195312 " fill-opacity="1" fill-rule="evenodd"/><path fill="#fe9427" d="M 780.582031 392.273438 C 780.582031 392.273438 782.195312 398.550781 784.316406 410.011719 C 784.367188 409.949219 784.402344 409.886719 784.453125 409.824219 C 784.875 409.191406 786.4375 407.058594 789.777344 404.058594 C 789.777344 404.058594 793.785156 403.785156 801.789062 403.214844 C 801.789062 403.214844 802.222656 405.71875 803.066406 410.71875 C 803.066406 410.71875 799.800781 413.347656 793.636719 419.488281 C 797.542969 421.0625 801.9375 421.570312 806.378906 420.679688 C 816.242188 418.71875 823.292969 410.542969 824.273438 401.042969 C 824.421875 399.515625 824.421875 397.953125 824.257812 396.378906 C 824.183594 395.710938 824.085938 395.039062 823.949219 394.371094 C 823.578125 392.535156 822.992188 390.785156 822.222656 389.160156 C 820.039062 384.546875 816.355469 380.898438 811.925781 378.691406 C 807.644531 376.582031 802.667969 375.8125 797.628906 376.816406 C 796.015625 377.128906 794.492188 377.625 793.039062 378.257812 C 791.328125 379 789.738281 379.945312 788.300781 381.058594 C 784.625 383.914062 781.933594 387.84375 780.582031 392.273438 Z M 780.582031 392.273438 " fill-opacity="1" fill-rule="evenodd"/><path fill="#0c4674" d="M 783.433594 411.226562 C 782.046875 413.136719 780.59375 415.035156 778.90625 416.921875 C 777.242188 418.78125 775.34375 420.628906 773.0625 422.453125 C 746.507812 441.023438 733.269531 449.417969 733.269531 449.417969 C 733.269531 449.417969 729.582031 451.503906 722.238281 455.660156 C 720.324219 456.75 718.152344 457.964844 715.746094 459.332031 C 711.019531 462.132812 706.414062 464.703125 701.921875 467.035156 C 697.582031 469.292969 693.335938 471.339844 689.203125 473.160156 C 665.207031 483.78125 644.90625 487.042969 628.316406 482.960938 C 623.328125 481.25 620.125 478.335938 618.722656 474.191406 C 614.753906 464.925781 618.984375 450.203125 631.429688 430.019531 C 628.007812 428.183594 624.78125 426.3125 621.753906 424.386719 C 606.5 446.09375 600.632812 461.921875 605.347656 475.914062 C 622.507812 501.183594 662.6875 496.679688 725.882812 462.40625 C 754.398438 444.570312 775.457031 429.425781 789.03125 416.96875 C 794.492188 411.945312 798.746094 407.371094 801.789062 403.214844 C 793.785156 403.785156 789.777344 404.058594 789.777344 404.058594 C 786.4375 407.058594 784.875 409.191406 784.453125 409.824219 C 784.367188 409.949219 784.316406 410.023438 784.316406 410.023438 C 784.316406 410.011719 784.316406 410.011719 784.316406 410.011719 C 784.03125 410.421875 783.734375 410.828125 783.433594 411.226562 Z M 783.433594 411.226562 " fill-opacity="1" fill-rule="evenodd"/><path fill="#052c49" d="M 789.03125 416.96875 C 775.457031 429.425781 754.398438 444.570312 725.882812 462.40625 C 662.6875 496.679688 622.507812 501.183594 605.347656 475.914062 C 620.785156 521.761719 686.425781 492.625 732.621094 464.503906 C 734.457031 463.398438 736.246094 462.28125 738.007812 461.191406 C 754.335938 450.957031 767.6875 441.269531 774.636719 435.863281 C 777.390625 433.976562 780.058594 431.980469 782.417969 430.132812 C 784.03125 428.851562 785.507812 427.648438 786.734375 426.582031 C 789.328125 423.828125 791.636719 421.472656 793.636719 419.488281 C 799.800781 413.347656 803.066406 410.71875 803.066406 410.71875 C 802.222656 405.71875 801.789062 403.214844 801.789062 403.214844 C 798.746094 407.371094 794.492188 411.945312 789.03125 416.96875 Z M 789.03125 416.96875 " fill-opacity="1" fill-rule="evenodd"/><path fill="#0c4674" d="M 733.265625 449.417969 C 717.199219 445.386719 702.570312 441.269531 689.378906 437.039062 C 683.496094 435.167969 677.886719 433.257812 672.578125 431.347656 C 661.882812 427.476562 652.351562 423.53125 643.976562 419.527344 C 642.5625 418.84375 641.171875 418.160156 639.820312 417.480469 C 636.394531 415.742188 633.167969 413.992188 630.152344 412.21875 C 615.25 403.472656 605.582031 394.371094 601.179688 384.929688 C 598.621094 379.460938 597.816406 373.878906 598.785156 368.171875 C 593.074219 364.734375 590.222656 363.011719 590.222656 363.011719 C 589.453125 370.828125 590.394531 378.269531 593.039062 385.328125 C 598.425781 399.726562 610.90625 412.566406 630.488281 423.855469 C 659.066406 436.605469 689.640625 447.210938 722.238281 455.660156 C 729.582031 451.503906 733.269531 449.417969 733.269531 449.417969 Z M 733.265625 449.417969 " fill-opacity="1" fill-rule="evenodd"/><path fill="#052c49" d="M 722.238281 455.660156 C 689.640625 447.210938 659.066406 436.605469 630.488281 423.855469 C 610.90625 412.566406 598.425781 399.726562 593.039062 385.328125 C 590.394531 378.269531 589.453125 370.828125 590.222656 363.011719 C 587.691406 367.351562 586.425781 369.523438 586.425781 369.523438 C 586.1875 374.375 586.636719 379.085938 587.765625 383.652344 C 591.523438 398.835938 602.855469 412.417969 621.753906 424.386719 C 624.78125 426.3125 628.007812 428.183594 631.429688 430.019531 C 632.273438 430.476562 633.128906 430.925781 634 431.382812 C 639.65625 434.300781 645.824219 437.128906 652.5 439.832031 C 661.445312 443.28125 670.132812 446.378906 678.570312 449.121094 C 684.242188 450.96875 689.800781 452.65625 695.246094 454.195312 C 702.269531 456.167969 709.109375 457.878906 715.746094 459.332031 C 718.152344 457.964844 720.324219 456.75 722.238281 455.660156 Z M 722.238281 455.660156 " fill-opacity="1" fill-rule="evenodd"/><path fill="#052c49" d="M 695.246094 454.195312 C 689.800781 452.65625 684.242188 450.96875 678.570312 449.121094 C 682.765625 459.480469 686.3125 467.492188 689.203125 473.160156 C 693.335938 471.339844 697.582031 469.292969 701.921875 467.035156 C 700.085938 463.511719 697.867188 459.230469 695.246094 454.195312 Z M 695.246094 454.195312 " fill-opacity="1" fill-rule="evenodd"/><path fill="#60d3da" d="M 755.328125 506.800781 C 748.679688 508.128906 743.292969 512.285156 740.203125 517.765625 C 737.671875 522.257812 736.679688 527.652344 737.773438 533.097656 C 740.179688 545.21875 751.96875 553.082031 764.078125 550.664062 C 776.113281 548.269531 783.957031 536.632812 781.699219 524.601562 C 778.335938 529.476562 774.214844 533.609375 769.328125 536.992188 C 769.328125 536.992188 768.285156 536.90625 766.175781 536.746094 C 766.175781 536.746094 765.183594 532.875 763.210938 525.160156 C 767.253906 522.269531 770.445312 517.40625 772.789062 510.585938 C 767.925781 507.085938 761.671875 505.535156 755.328125 506.800781 Z M 755.328125 506.800781 " fill-opacity="1" fill-rule="evenodd"/><path fill="#0c4674" d="M 781.699219 524.601562 C 790.78125 511.453125 794.304688 492.871094 792.296875 468.882812 C 792.296875 468.882812 792.21875 467.628906 792.070312 465.148438 C 791.949219 463.050781 791.761719 460.0625 791.539062 456.191406 C 789.703125 442.683594 787.816406 432.128906 786.734375 426.582031 C 785.507812 427.648438 784.03125 428.851562 782.417969 430.132812 C 790.855469 469.042969 790.011719 498.675781 779.886719 519.046875 C 776.410156 526.042969 771.847656 531.933594 766.175781 536.746094 C 768.285156 536.90625 769.328125 536.992188 769.328125 536.992188 C 774.214844 533.609375 778.335938 529.476562 781.699219 524.601562 Z M 781.699219 524.601562 " fill-opacity="1" fill-rule="evenodd"/><path fill="#052c49" d="M 779.886719 519.046875 C 790.011719 498.675781 790.855469 469.042969 782.417969 430.132812 C 780.058594 431.980469 777.390625 433.976562 774.636719 435.863281 C 776.621094 448.054688 777.40625 452.84375 777.527344 464.613281 C 777.542969 465.90625 777.566406 467.195312 777.589844 468.484375 C 777.777344 486.65625 776.175781 500.6875 772.789062 510.585938 C 770.445312 517.40625 767.253906 522.269531 763.210938 525.160156 C 765.183594 532.875 766.175781 536.746094 766.175781 536.746094 C 771.847656 531.933594 776.410156 526.039062 779.886719 519.046875 Z M 779.886719 519.046875 " fill-opacity="1" fill-rule="evenodd"/><path fill="#0c4674" d="M 792.070312 465.148438 C 836.753906 461.699219 859.289062 449.765625 859.660156 429.351562 C 859.425781 421.347656 854.523438 405.894531 839.582031 393.910156 C 835.824219 391.070312 831.257812 387.832031 825.886719 384.199219 C 824.71875 385.835938 823.503906 387.484375 822.222656 389.160156 C 822.992188 390.785156 823.578125 392.535156 823.949219 394.371094 C 824.085938 395.039062 824.183594 395.710938 824.257812 396.378906 C 838.566406 405.769531 846.160156 415.855469 847.027344 426.632812 C 847.574219 430.515625 846.53125 434.238281 843.902344 437.785156 C 839.25 446.417969 821.789062 452.558594 791.539062 456.191406 C 791.761719 460.0625 791.949219 463.050781 792.070312 465.148438 Z M 792.070312 465.148438 " fill-opacity="1" fill-rule="evenodd"/><path fill="#052c49" d="M 859.660156 429.351562 C 859.289062 449.765625 836.753906 461.699219 792.070312 465.148438 C 792.21875 467.628906 792.296875 468.882812 792.296875 468.882812 C 823.6875 467.121094 860.503906 457.71875 859.660156 429.351562 Z M 859.660156 429.351562 " fill-opacity="1" fill-rule="evenodd"/><path fill="#052c49" d="M 824.273438 401.042969 C 838.34375 410.257812 845.925781 418.78125 847.027344 426.632812 C 846.160156 415.855469 838.566406 405.769531 824.257812 396.378906 C 824.421875 397.953125 824.421875 399.515625 824.273438 401.042969 Z M 824.273438 401.042969 " fill-opacity="1" fill-rule="evenodd"/><path fill="#0c4674" d="M 825.886719 384.199219 C 844.96875 357.28125 847.574219 335.078125 833.664062 317.597656 C 821.953125 305.667969 794.703125 307.328125 751.929688 322.597656 C 753.160156 324.855469 754.386719 327.175781 755.601562 329.558594 C 798.003906 313.976562 821.863281 314.335938 827.1875 330.625 C 832.363281 340.136719 827.734375 355.507812 813.289062 376.707031 C 812.84375 377.363281 812.382812 378.019531 811.925781 378.691406 C 816.355469 380.898438 820.039062 384.546875 822.222656 389.160156 C 823.503906 387.484375 824.71875 385.835938 825.886719 384.199219 Z M 825.886719 384.199219 " fill-opacity="1" fill-rule="evenodd"/><path fill="#0c4674" d="M 813.289062 376.707031 C 801.6875 370.144531 786.6875 363.855469 768.296875 357.828125 C 769.796875 361.574219 771.273438 365.441406 772.75 369.425781 C 782.441406 373.171875 789.207031 376.121094 793.039062 378.257812 C 794.492188 377.625 796.015625 377.128906 797.628906 376.816406 C 802.667969 375.8125 807.644531 376.582031 811.925781 378.691406 C 812.382812 378.019531 812.84375 377.363281 813.289062 376.707031 Z M 813.289062 376.707031 " fill-opacity="1" fill-rule="evenodd"/><path fill="#0c4674" d="M 755.328125 365.246094 C 753.730469 361.1875 752.105469 357.257812 750.429688 353.472656 C 746.148438 351.871094 739.324219 350.171875 729.96875 348.363281 C 725.363281 350.792969 720.648438 353.535156 715.859375 356.574219 C 730.984375 358.421875 744.148438 361.324219 755.328125 365.246094 Z M 755.328125 365.246094 " fill-opacity="1" fill-rule="evenodd"/><path fill="#052c49" d="M 755.328125 365.246094 C 744.148438 361.324219 730.984375 358.421875 715.859375 356.574219 C 714.257812 357.589844 712.632812 358.644531 711.007812 359.738281 C 730.574219 363.335938 745.988281 366.84375 757.265625 370.304688 C 756.621094 368.59375 755.976562 366.90625 755.328125 365.246094 Z M 755.328125 365.246094 " fill-opacity="1" fill-rule="evenodd"/><path fill="#052c49" d="M 772.75 369.425781 C 773.457031 371.371094 774.179688 373.34375 774.886719 375.355469 C 781.289062 377.574219 785.753906 379.484375 788.300781 381.058594 C 789.738281 379.941406 791.328125 379 793.039062 378.257812 C 789.207031 376.121094 782.441406 373.171875 772.75 369.425781 Z M 772.75 369.425781 " fill-opacity="1" fill-rule="evenodd"/><path fill="#052c49" d="M 758.332031 335.078125 C 790.410156 321 813.351562 319.523438 827.1875 330.625 C 821.863281 314.335938 798.003906 313.976562 755.601562 329.558594 C 756.519531 331.355469 757.425781 333.191406 758.332031 335.078125 Z M 758.332031 335.078125 " fill-opacity="1" fill-rule="evenodd"/><path fill="#052c49" d="M 744.78125 341.503906 C 743.851562 339.667969 742.910156 337.878906 741.964844 336.117188 C 722.535156 345.683594 700.421875 360.195312 675.617188 379.65625 C 676.015625 381.839844 676.449219 384.050781 676.894531 386.308594 C 688.734375 375.898438 700.097656 367.042969 711.007812 359.738281 C 712.632812 358.644531 714.257812 357.589844 715.859375 356.574219 C 720.648438 353.535156 725.363281 350.792969 729.96875 348.363281 C 735.015625 345.707031 739.957031 343.425781 744.78125 341.503906 Z M 744.78125 341.503906 " fill-opacity="1" fill-rule="evenodd"/><path fill="#0c4674" d="M 675.617188 379.65625 C 700.421875 360.195312 722.535156 345.683594 741.964844 336.117188 C 740.800781 333.949219 739.609375 331.839844 738.390625 329.792969 C 730.117188 333.277344 720.996094 338.128906 711.054688 344.316406 C 706.9375 346.875 702.691406 349.664062 698.300781 352.691406 C 696.5 353.917969 694.6875 355.183594 692.851562 356.5 C 686.835938 360.777344 680.570312 365.46875 674.042969 370.566406 C 674.527344 373.519531 675.046875 376.558594 675.617188 379.65625 Z M 675.617188 379.65625 " fill-opacity="1" fill-rule="evenodd"/><path fill="#0c4674" d="M 671.347656 349.058594 C 681.050781 349.527344 690.035156 350.742188 698.300781 352.691406 C 702.691406 349.664062 706.9375 346.875 711.054688 344.316406 C 697.976562 342.074219 684.539062 340.570312 670.742188 339.816406 C 670.863281 342.78125 671.0625 345.855469 671.347656 349.058594 Z M 671.347656 349.058594 " fill-opacity="1" fill-rule="evenodd"/><path fill="#052c49" d="M 698.300781 352.691406 C 690.035156 350.742188 681.050781 349.527344 671.347656 349.058594 C 671.472656 350.582031 671.621094 352.132812 671.785156 353.707031 C 683.0625 354.664062 690.085938 355.59375 692.851562 356.5 C 694.6875 355.183594 696.5 353.917969 698.300781 352.691406 Z M 698.300781 352.691406 " fill-opacity="1" fill-rule="evenodd"/><path fill="#052c49" d="M 671.785156 353.707031 C 671.621094 352.132812 671.472656 350.582031 671.347656 349.058594 C 671.0625 345.855469 670.863281 342.78125 670.742188 339.816406 C 669.898438 319.460938 672.566406 304.339844 678.746094 294.453125 C 673.546875 292.53125 669.214844 288.5625 666.945312 283.328125 C 657.675781 296.089844 653.605469 315.15625 654.757812 340.535156 C 654.871094 343.003906 655.03125 345.546875 655.242188 348.140625 C 655.378906 349.875 655.539062 351.625 655.726562 353.410156 C 656.644531 362.253906 658.109375 371.757812 660.105469 381.902344 C 660.789062 385.339844 661.519531 388.847656 662.328125 392.421875 C 662.75 394.296875 663.183594 396.179688 663.628906 398.089844 C 666.101562 408.558594 669.089844 419.648438 672.578125 431.347656 C 677.886719 433.257812 683.496094 435.167969 689.378906 437.039062 C 684.105469 418.484375 679.949219 401.5625 676.894531 386.308594 C 676.449219 384.050781 676.015625 381.839844 675.617188 379.65625 C 675.046875 376.558594 674.527344 373.519531 674.042969 370.566406 C 673.097656 364.648438 672.339844 359.042969 671.785156 353.707031 Z M 671.785156 353.707031 " fill-opacity="1" fill-rule="evenodd"/><path fill="#052c49" d="M 655.726562 353.410156 C 655.539062 351.625 655.378906 349.875 655.242188 348.140625 C 638.800781 348.558594 624.59375 351.203125 612.632812 356.078125 C 613.648438 357.738281 614.445312 359.5625 614.941406 361.546875 C 627.410156 355.929688 641.011719 353.210938 655.726562 353.410156 Z M 655.726562 353.410156 " fill-opacity="1" fill-rule="evenodd"/><path fill="#0c4674" d="M 612.632812 356.078125 C 624.59375 351.203125 638.800781 348.558594 655.242188 348.140625 C 655.03125 345.546875 654.871094 343.003906 654.757812 340.535156 C 640.042969 340.375 623.996094 343.535156 606.636719 349.988281 C 609.035156 351.539062 611.105469 353.609375 612.632812 356.078125 Z M 612.632812 356.078125 " fill-opacity="1" fill-rule="evenodd"/><path fill="#3095b3" d="M 612.632812 356.078125 C 611.105469 353.609375 609.035156 351.539062 606.636719 349.988281 C 602.570312 347.382812 597.519531 346.277344 592.40625 347.296875 C 581.933594 349.390625 575.144531 359.5625 577.230469 370.03125 C 578.457031 376.210938 582.503906 381.097656 587.765625 383.652344 C 586.636719 379.085938 586.1875 374.375 586.425781 369.523438 C 586.425781 369.523438 587.691406 367.351562 590.222656 363.011719 C 590.222656 363.011719 593.074219 364.734375 598.785156 368.171875 C 597.816406 373.878906 598.621094 379.460938 601.179688 384.929688 C 610.957031 382.324219 617.148438 372.539062 615.152344 362.476562 C 615.089844 362.15625 615.015625 361.84375 614.941406 361.546875 C 614.445312 359.5625 613.648438 357.738281 612.632812 356.078125 Z M 612.632812 356.078125 " fill-opacity="1" fill-rule="evenodd"/><path fill="#0c4674" d="M 660.105469 381.902344 C 651.136719 388.949219 641.160156 399.058594 630.152344 412.21875 C 633.167969 413.992188 636.394531 415.742188 639.820312 417.480469 C 649.832031 405.160156 657.339844 396.8125 662.328125 392.421875 C 661.519531 388.851562 660.789062 385.339844 660.105469 381.902344 Z M 660.105469 381.902344 " fill-opacity="1" fill-rule="evenodd"/><path fill="#052c49" d="M 662.328125 392.421875 C 657.339844 396.8125 649.832031 405.160156 639.820312 417.480469 C 641.171875 418.160156 642.5625 418.84375 643.976562 419.527344 C 650.851562 410.359375 657.402344 403.214844 663.628906 398.089844 C 663.183594 396.179688 662.75 394.296875 662.328125 392.421875 Z M 662.328125 392.421875 " fill-opacity="1" fill-rule="evenodd"/><path fill="#052c49" d="M 634 431.382812 C 633.128906 430.925781 632.273438 430.476562 631.429688 430.019531 C 618.984375 450.203125 614.753906 464.925781 618.722656 474.191406 C 615.734375 465.410156 620.832031 451.144531 634 431.382812 Z M 634 431.382812 " fill-opacity="1" fill-rule="evenodd"/><path fill="#052c49" d="M 777.527344 464.613281 C 770.628906 464.589844 756.71875 463.3125 738.007812 461.191406 C 736.246094 462.28125 734.457031 463.398438 732.621094 464.503906 C 747.984375 467.246094 763.992188 468.609375 777.589844 468.484375 C 777.566406 467.195312 777.542969 465.90625 777.527344 464.613281 Z M 777.527344 464.613281 " fill-opacity="1" fill-rule="evenodd"/><path fill="#052c49" d="M 740.203125 517.765625 C 728.789062 509.394531 717.65625 495.726562 707.695312 478.570312 C 703.660156 480.652344 699.578125 482.664062 695.484375 484.5625 C 706.367188 505.820312 720.683594 522.542969 737.773438 533.097656 C 736.679688 527.652344 737.671875 522.257812 740.203125 517.765625 Z M 740.203125 517.765625 " fill-opacity="1" fill-rule="evenodd"/><path fill="#0c4674" d="M 738.007812 461.191406 C 756.71875 463.3125 770.628906 464.589844 777.527344 464.613281 C 777.492188 461.191406 777.429688 459.691406 777.269531 456.179688 C 766.558594 456.339844 756.746094 454.457031 750.179688 453.316406 C 746.0625 456.082031 742.699219 458.25 738.007812 461.191406 Z M 738.007812 461.191406 " fill-opacity="1" fill-rule="evenodd"/><path fill="#2d8aa6" d="M 585.085938 350.421875 C 593.671875 348.621094 602.445312 352.578125 606.800781 360.195312 C 611.15625 367.824219 610.089844 377.375 604.167969 383.863281 C 612.183594 380.242188 616.9375 371.457031 615.152344 362.476562 C 615.089844 362.15625 615.015625 361.84375 614.941406 361.546875 C 614.445312 359.5625 613.648438 357.738281 612.632812 356.078125 C 611.105469 353.609375 609.035156 351.539062 606.636719 349.988281 C 602.570312 347.382812 597.519531 346.277344 592.40625 347.296875 C 589.6875 347.839844 587.21875 348.933594 585.085938 350.421875 Z M 585.085938 350.421875 " fill-opacity="1" fill-rule="evenodd"/><path fill="#c7222a" d="M 673.570312 279.53125 C 670.492188 270.972656 672.9375 261.40625 679.761719 255.390625 C 669.785156 258.46875 663.542969 268.664062 665.640625 279.121094 C 665.925781 280.597656 666.375 282 666.945312 283.328125 C 669.214844 288.5625 673.546875 292.53125 678.746094 294.453125 C 682.195312 295.730469 686.027344 296.089844 689.914062 295.320312 C 691.238281 295.0625 692.53125 294.664062 693.746094 294.167969 C 684.652344 293.882812 676.660156 288.078125 673.570312 279.53125 Z M 673.570312 279.53125 " fill-opacity="1" fill-rule="evenodd"/><path fill="#f08c28" d="M 814.554688 393.921875 C 818.179688 403.351562 815.335938 414.042969 807.507812 420.429688 C 816.777344 418.085938 823.328125 410.183594 824.273438 401.042969 C 824.421875 399.515625 824.421875 397.953125 824.257812 396.378906 C 824.183594 395.710938 824.085938 395.039062 823.949219 394.371094 C 823.578125 392.535156 822.992188 390.785156 822.222656 389.160156 C 820.039062 384.546875 816.355469 380.898438 811.925781 378.691406 C 807.644531 376.582031 802.667969 375.8125 797.628906 376.816406 C 796.015625 377.128906 794.492188 377.625 793.039062 378.257812 C 792.542969 378.46875 792.058594 378.703125 791.574219 378.949219 C 801.675781 378.453125 810.933594 384.496094 814.554688 393.921875 Z M 814.554688 393.921875 " fill-opacity="1" fill-rule="evenodd"/><path fill="#52bec4" d="M 746.558594 535.964844 C 741.59375 526.957031 743.132812 515.769531 750.316406 508.425781 C 745.988281 510.425781 742.476562 513.734375 740.203125 517.765625 C 737.671875 522.257812 736.679688 527.652344 737.773438 533.097656 C 740.179688 545.21875 751.96875 553.082031 764.078125 550.664062 C 766.933594 550.09375 769.550781 549.015625 771.859375 547.523438 C 761.792969 549.671875 751.519531 544.96875 746.558594 535.964844 Z M 746.558594 535.964844 " fill-opacity="1" fill-rule="evenodd"/></svg>