<svg xmlns="http://www.w3.org/2000/svg" xmlns:xlink="http://www.w3.org/1999/xlink" width="1920" zoomAndPan="magnify" viewBox="0 0 1440 809.999993" height="1080" preserveAspectRatio="xMidYMid meet" version="1.0"><path fill="#c4e0f7" d="M 814.589844 471.050781 L 780.382812 425.347656 L 746.171875 379.640625 C 746.136719 379.59375 746.09375 379.542969 746.058594 379.492188 C 737.175781 367.710938 731.347656 353.921875 729.59375 339.265625 L 721.324219 270.300781 C 727.375 269.570312 731.695312 264.070312 730.964844 258.011719 L 730.410156 253.355469 C 729.679688 247.296875 724.183594 242.972656 718.132812 243.703125 L 657.34375 251.003906 C 651.289062 251.734375 646.972656 257.238281 647.699219 263.296875 L 648.257812 267.953125 C 648.988281 274.011719 654.480469 278.335938 660.535156 277.605469 L 668.800781 346.570312 C 670.558594 361.21875 668.152344 376.003906 662.308594 389.546875 C 662.289062 389.605469 662.257812 389.664062 662.238281 389.722656 L 617.378906 494.753906 C 602.601562 529.34375 630.765625 566.976562 668.082031 562.496094 L 781.355469 548.886719 C 818.664062 544.40625 837.136719 501.164062 814.605469 471.050781 Z M 814.589844 471.050781 " fill-opacity="1" fill-rule="nonzero"/><path fill="#fc954f" d="M 707.667969 464.574219 C 694.835938 465.300781 683.332031 459.929688 672.203125 454.730469 C 681.214844 455.230469 690.566406 453.453125 699.492188 449.136719 C 710.355469 443.886719 719.910156 436.222656 730.949219 431.296875 C 742.144531 426.300781 752.839844 426.691406 763.953125 431.765625 C 763.953125 431.765625 763.96875 431.765625 763.976562 431.773438 C 764.71875 432.105469 765.417969 432.511719 766.070312 432.988281 C 760.855469 457.449219 729.304688 463.640625 707.675781 464.566406 Z M 707.667969 464.574219 " fill-opacity="1" fill-rule="nonzero"/><path fill="#fdc54c" d="M 631.539062 501.46875 L 649.679688 458.996094 C 651.664062 454.347656 657.371094 449.996094 662.28125 451.179688 C 665.199219 451.882812 667.835938 452.84375 670.609375 453.894531 C 671.804688 454.347656 672.992188 454.863281 674.152344 455.410156 C 684.71875 460.355469 695.507812 465.265625 707.660156 464.574219 C 729.289062 463.648438 760.839844 457.457031 766.054688 432.996094 C 766.742188 433.503906 767.367188 434.09375 767.882812 434.789062 L 768.410156 435.492188 L 802.414062 480.933594 C 818.058594 501.839844 805.238281 531.851562 779.335938 534.960938 L 666.714844 548.496094 C 640.820312 551.605469 621.261719 525.480469 631.523438 501.46875 Z M 631.539062 501.46875 " fill-opacity="1" fill-rule="nonzero"/><path fill="#fc954f" d="M 696.511719 435.996094 C 696.511719 436.480469 696.464844 436.960938 696.371094 437.433594 C 696.277344 437.910156 696.136719 438.371094 695.953125 438.816406 C 695.765625 439.265625 695.539062 439.6875 695.269531 440.089844 C 695.003906 440.492188 694.699219 440.863281 694.355469 441.207031 C 694.015625 441.550781 693.644531 441.855469 693.242188 442.125 C 692.839844 442.390625 692.414062 442.621094 691.96875 442.804688 C 691.523438 442.988281 691.0625 443.128906 690.589844 443.222656 C 690.113281 443.316406 689.636719 443.363281 689.152344 443.363281 C 688.667969 443.363281 688.191406 443.316406 687.71875 443.222656 C 687.242188 443.128906 686.78125 442.988281 686.335938 442.804688 C 685.890625 442.621094 685.464844 442.390625 685.0625 442.125 C 684.664062 441.855469 684.289062 441.550781 683.949219 441.207031 C 683.609375 440.863281 683.300781 440.492188 683.035156 440.089844 C 682.765625 439.6875 682.539062 439.265625 682.355469 438.816406 C 682.167969 438.371094 682.03125 437.910156 681.933594 437.433594 C 681.839844 436.960938 681.792969 436.480469 681.792969 435.996094 C 681.792969 435.511719 681.839844 435.035156 681.933594 434.558594 C 682.03125 434.085938 682.167969 433.625 682.355469 433.175781 C 682.539062 432.730469 682.765625 432.304688 683.035156 431.902344 C 683.300781 431.5 683.609375 431.128906 683.949219 430.789062 C 684.289062 430.445312 684.664062 430.140625 685.0625 429.871094 C 685.464844 429.601562 685.890625 429.375 686.335938 429.191406 C 686.78125 429.003906 687.242188 428.867188 687.71875 428.769531 C 688.191406 428.675781 688.667969 428.628906 689.152344 428.628906 C 689.636719 428.628906 690.113281 428.675781 690.589844 428.769531 C 691.0625 428.867188 691.523438 429.003906 691.96875 429.191406 C 692.414062 429.375 692.839844 429.601562 693.242188 429.871094 C 693.644531 430.140625 694.015625 430.445312 694.355469 430.789062 C 694.699219 431.128906 695.003906 431.5 695.269531 431.902344 C 695.539062 432.304688 695.765625 432.730469 695.953125 433.175781 C 696.136719 433.625 696.277344 434.085938 696.371094 434.558594 C 696.464844 435.035156 696.511719 435.511719 696.511719 435.996094 Z M 696.511719 435.996094 " fill-opacity="1" fill-rule="nonzero"/><path fill="#fc954f" d="M 703.226562 391.183594 C 703.226562 391.972656 703.148438 392.757812 702.996094 393.535156 C 702.84375 394.308594 702.613281 395.0625 702.3125 395.796875 C 702.007812 396.527344 701.636719 397.222656 701.199219 397.878906 C 700.757812 398.535156 700.261719 399.144531 699.703125 399.707031 C 699.140625 400.265625 698.535156 400.765625 697.878906 401.203125 C 697.21875 401.644531 696.527344 402.015625 695.796875 402.316406 C 695.066406 402.621094 694.3125 402.851562 693.539062 403.003906 C 692.761719 403.160156 691.980469 403.234375 691.1875 403.234375 C 690.398438 403.234375 689.617188 403.160156 688.839844 403.003906 C 688.066406 402.851562 687.3125 402.621094 686.582031 402.316406 C 685.851562 402.015625 685.160156 401.644531 684.5 401.203125 C 683.84375 400.765625 683.234375 400.265625 682.675781 399.707031 C 682.117188 399.144531 681.617188 398.535156 681.179688 397.878906 C 680.742188 397.222656 680.371094 396.527344 680.066406 395.796875 C 679.765625 395.0625 679.535156 394.308594 679.382812 393.535156 C 679.226562 392.757812 679.152344 391.972656 679.152344 391.183594 C 679.152344 390.390625 679.226562 389.605469 679.382812 388.832031 C 679.535156 388.054688 679.765625 387.300781 680.066406 386.570312 C 680.371094 385.839844 680.742188 385.144531 681.179688 384.484375 C 681.617188 383.828125 682.117188 383.21875 682.675781 382.660156 C 683.234375 382.101562 683.84375 381.601562 684.5 381.160156 C 685.160156 380.722656 685.851562 380.347656 686.582031 380.046875 C 687.3125 379.742188 688.066406 379.515625 688.839844 379.359375 C 689.617188 379.207031 690.398438 379.128906 691.1875 379.128906 C 691.980469 379.128906 692.761719 379.207031 693.539062 379.359375 C 694.3125 379.515625 695.066406 379.742188 695.796875 380.046875 C 696.527344 380.347656 697.21875 380.722656 697.878906 381.160156 C 698.535156 381.601562 699.140625 382.101562 699.703125 382.660156 C 700.261719 383.21875 700.757812 383.828125 701.199219 384.484375 C 701.636719 385.144531 702.007812 385.839844 702.3125 386.570312 C 702.613281 387.300781 702.84375 388.054688 702.996094 388.832031 C 703.148438 389.605469 703.226562 390.390625 703.226562 391.183594 Z M 703.226562 391.183594 " fill-opacity="1" fill-rule="nonzero"/><path fill="#fdc54c" d="M 738.246094 408.125 C 738.246094 408.605469 738.199219 409.085938 738.101562 409.5625 C 738.007812 410.035156 737.871094 410.496094 737.683594 410.941406 C 737.5 411.390625 737.273438 411.816406 737.003906 412.21875 C 736.734375 412.621094 736.429688 412.992188 736.089844 413.332031 C 735.746094 413.675781 735.375 413.980469 734.972656 414.25 C 734.574219 414.519531 734.148438 414.746094 733.703125 414.929688 C 733.253906 415.117188 732.796875 415.253906 732.320312 415.351562 C 731.847656 415.445312 731.367188 415.492188 730.886719 415.492188 C 730.402344 415.492188 729.925781 415.445312 729.449219 415.351562 C 728.976562 415.253906 728.515625 415.117188 728.070312 414.929688 C 727.625 414.746094 727.199219 414.519531 726.796875 414.25 C 726.394531 413.980469 726.023438 413.675781 725.683594 413.332031 C 725.339844 412.992188 725.035156 412.621094 724.765625 412.21875 C 724.5 411.816406 724.273438 411.390625 724.085938 410.941406 C 723.902344 410.496094 723.761719 410.035156 723.667969 409.5625 C 723.574219 409.085938 723.527344 408.605469 723.527344 408.125 C 723.527344 407.640625 723.574219 407.160156 723.667969 406.6875 C 723.761719 406.210938 723.902344 405.75 724.085938 405.304688 C 724.273438 404.855469 724.5 404.433594 724.765625 404.03125 C 725.035156 403.628906 725.339844 403.253906 725.683594 402.914062 C 726.023438 402.570312 726.394531 402.265625 726.796875 401.996094 C 727.199219 401.730469 727.625 401.5 728.070312 401.316406 C 728.515625 401.132812 728.976562 400.992188 729.449219 400.898438 C 729.925781 400.804688 730.402344 400.753906 730.886719 400.753906 C 731.367188 400.753906 731.847656 400.804688 732.320312 400.898438 C 732.796875 400.992188 733.253906 401.132812 733.703125 401.316406 C 734.148438 401.5 734.574219 401.730469 734.972656 401.996094 C 735.375 402.265625 735.746094 402.570312 736.089844 402.914062 C 736.429688 403.253906 736.734375 403.628906 737.003906 404.03125 C 737.273438 404.433594 737.5 404.855469 737.683594 405.304688 C 737.871094 405.75 738.007812 406.210938 738.101562 406.6875 C 738.199219 407.160156 738.246094 407.640625 738.246094 408.125 Z M 738.246094 408.125 " fill-opacity="1" fill-rule="nonzero"/><path fill="#fc954f" d="M 707.386719 411.464844 C 707.386719 411.746094 707.359375 412.023438 707.304688 412.300781 C 707.25 412.578125 707.167969 412.84375 707.0625 413.105469 C 706.953125 413.363281 706.820312 413.613281 706.664062 413.847656 C 706.507812 414.082031 706.332031 414.296875 706.132812 414.496094 C 705.933594 414.695312 705.71875 414.871094 705.484375 415.027344 C 705.25 415.1875 705.003906 415.316406 704.742188 415.425781 C 704.484375 415.53125 704.214844 415.613281 703.941406 415.667969 C 703.664062 415.722656 703.386719 415.75 703.105469 415.75 C 702.824219 415.75 702.546875 415.722656 702.269531 415.667969 C 701.992188 415.613281 701.726562 415.53125 701.464844 415.425781 C 701.207031 415.316406 700.960938 415.1875 700.726562 415.027344 C 700.492188 414.871094 700.273438 414.695312 700.078125 414.496094 C 699.878906 414.296875 699.699219 414.082031 699.542969 413.847656 C 699.386719 413.613281 699.253906 413.363281 699.148438 413.105469 C 699.039062 412.84375 698.960938 412.578125 698.90625 412.300781 C 698.851562 412.023438 698.820312 411.746094 698.820312 411.464844 C 698.820312 411.183594 698.851562 410.902344 698.90625 410.628906 C 698.960938 410.351562 699.039062 410.082031 699.148438 409.824219 C 699.253906 409.5625 699.386719 409.316406 699.542969 409.082031 C 699.699219 408.847656 699.878906 408.632812 700.078125 408.433594 C 700.273438 408.234375 700.492188 408.054688 700.726562 407.898438 C 700.960938 407.742188 701.207031 407.609375 701.464844 407.503906 C 701.726562 407.394531 701.992188 407.3125 702.269531 407.257812 C 702.546875 407.203125 702.824219 407.175781 703.105469 407.175781 C 703.386719 407.175781 703.664062 407.203125 703.941406 407.257812 C 704.214844 407.3125 704.484375 407.394531 704.742188 407.503906 C 705.003906 407.609375 705.25 407.742188 705.484375 407.898438 C 705.71875 408.054688 705.933594 408.234375 706.132812 408.433594 C 706.332031 408.632812 706.507812 408.847656 706.664062 409.082031 C 706.820312 409.316406 706.953125 409.5625 707.0625 409.824219 C 707.167969 410.082031 707.25 410.351562 707.304688 410.628906 C 707.359375 410.902344 707.386719 411.183594 707.386719 411.464844 Z M 707.386719 411.464844 " fill-opacity="1" fill-rule="nonzero"/><path fill="#fdc54c" d="M 673.121094 426.699219 C 673.121094 426.980469 673.09375 427.257812 673.039062 427.535156 C 672.984375 427.8125 672.902344 428.078125 672.792969 428.339844 C 672.6875 428.601562 672.554688 428.847656 672.398438 429.082031 C 672.242188 429.316406 672.066406 429.53125 671.867188 429.730469 C 671.667969 429.929688 671.453125 430.109375 671.21875 430.265625 C 670.984375 430.421875 670.738281 430.550781 670.476562 430.660156 C 670.21875 430.769531 669.949219 430.847656 669.675781 430.902344 C 669.398438 430.960938 669.121094 430.988281 668.839844 430.988281 C 668.558594 430.988281 668.277344 430.960938 668.003906 430.902344 C 667.726562 430.847656 667.460938 430.769531 667.199219 430.660156 C 666.941406 430.550781 666.691406 430.421875 666.460938 430.265625 C 666.226562 430.109375 666.007812 429.929688 665.808594 429.730469 C 665.613281 429.53125 665.433594 429.316406 665.277344 429.082031 C 665.121094 428.847656 664.988281 428.601562 664.882812 428.339844 C 664.773438 428.078125 664.691406 427.8125 664.636719 427.535156 C 664.582031 427.257812 664.554688 426.980469 664.554688 426.699219 C 664.554688 426.417969 664.582031 426.136719 664.636719 425.863281 C 664.691406 425.585938 664.773438 425.316406 664.882812 425.058594 C 664.988281 424.796875 665.121094 424.550781 665.277344 424.316406 C 665.433594 424.082031 665.613281 423.867188 665.808594 423.667969 C 666.007812 423.46875 666.226562 423.289062 666.460938 423.132812 C 666.691406 422.976562 666.941406 422.84375 667.199219 422.738281 C 667.460938 422.628906 667.726562 422.546875 668.003906 422.492188 C 668.277344 422.4375 668.558594 422.410156 668.839844 422.410156 C 669.121094 422.410156 669.398438 422.4375 669.675781 422.492188 C 669.949219 422.546875 670.21875 422.628906 670.476562 422.738281 C 670.738281 422.84375 670.984375 422.976562 671.21875 423.132812 C 671.453125 423.289062 671.667969 423.46875 671.867188 423.667969 C 672.066406 423.867188 672.242188 424.082031 672.398438 424.316406 C 672.554688 424.550781 672.6875 424.796875 672.792969 425.058594 C 672.902344 425.316406 672.984375 425.585938 673.039062 425.863281 C 673.09375 426.136719 673.121094 426.417969 673.121094 426.699219 Z M 673.121094 426.699219 " fill-opacity="1" fill-rule="nonzero"/><path fill="#fdc54c" d="M 719.640625 366.300781 C 719.640625 366.582031 719.613281 366.863281 719.558594 367.140625 C 719.503906 367.414062 719.421875 367.683594 719.316406 367.941406 C 719.207031 368.203125 719.078125 368.449219 718.921875 368.683594 C 718.765625 368.917969 718.585938 369.136719 718.386719 369.335938 C 718.1875 369.53125 717.972656 369.710938 717.738281 369.867188 C 717.503906 370.023438 717.257812 370.15625 717 370.261719 C 716.738281 370.371094 716.472656 370.453125 716.195312 370.507812 C 715.917969 370.5625 715.640625 370.589844 715.359375 370.589844 C 715.078125 370.589844 714.800781 370.5625 714.523438 370.507812 C 714.25 370.453125 713.980469 370.371094 713.722656 370.261719 C 713.460938 370.15625 713.214844 370.023438 712.980469 369.867188 C 712.746094 369.710938 712.53125 369.53125 712.332031 369.335938 C 712.132812 369.136719 711.953125 368.917969 711.800781 368.683594 C 711.644531 368.449219 711.511719 368.203125 711.402344 367.941406 C 711.296875 367.683594 711.214844 367.414062 711.160156 367.140625 C 711.105469 366.863281 711.078125 366.582031 711.078125 366.300781 C 711.078125 366.019531 711.105469 365.742188 711.160156 365.464844 C 711.214844 365.191406 711.296875 364.921875 711.402344 364.660156 C 711.511719 364.402344 711.644531 364.152344 711.800781 363.921875 C 711.953125 363.6875 712.132812 363.46875 712.332031 363.269531 C 712.53125 363.070312 712.746094 362.894531 712.980469 362.738281 C 713.214844 362.582031 713.460938 362.449219 713.722656 362.339844 C 713.980469 362.234375 714.25 362.152344 714.523438 362.097656 C 714.800781 362.042969 715.078125 362.015625 715.359375 362.015625 C 715.640625 362.015625 715.917969 362.042969 716.195312 362.097656 C 716.472656 362.152344 716.738281 362.234375 717 362.339844 C 717.257812 362.449219 717.503906 362.582031 717.738281 362.738281 C 717.972656 362.894531 718.1875 363.070312 718.386719 363.269531 C 718.585938 363.46875 718.765625 363.6875 718.921875 363.921875 C 719.078125 364.152344 719.207031 364.402344 719.316406 364.660156 C 719.421875 364.921875 719.503906 365.191406 719.558594 365.464844 C 719.613281 365.742188 719.640625 366.019531 719.640625 366.300781 Z M 719.640625 366.300781 " fill-opacity="1" fill-rule="nonzero"/><path fill="#def3fc" d="M 709.683594 286.316406 C 711.230469 299.230469 712.78125 312.152344 714.328125 325.066406 L 715.664062 336.1875 C 715.777344 337.15625 716.40625 337.996094 717.46875 337.996094 C 718.355469 337.996094 719.390625 337.164062 719.273438 336.1875 C 717.726562 323.273438 716.175781 310.351562 714.628906 297.4375 L 713.292969 286.316406 C 713.179688 285.347656 712.550781 284.511719 711.488281 284.511719 C 710.601562 284.511719 709.566406 285.34375 709.683594 286.316406 Z M 709.683594 286.316406 " fill-opacity="1" fill-rule="nonzero"/><path fill="#def3fc" d="M 743.003906 419.09375 C 755.25 435.628906 767.5 452.164062 779.746094 468.695312 C 783.183594 473.335938 786.621094 477.976562 790.058594 482.621094 C 790.636719 483.402344 791.617188 483.796875 792.527344 483.269531 C 793.300781 482.820312 793.761719 481.585938 793.179688 480.796875 C 780.929688 464.261719 768.683594 447.726562 756.433594 431.195312 L 746.125 417.269531 C 745.546875 416.488281 744.5625 416.089844 743.652344 416.621094 C 742.878906 417.066406 742.417969 418.304688 743.003906 419.09375 Z M 743.003906 419.09375 " fill-opacity="1" fill-rule="nonzero"/><path fill="#c4e0f7" d="M 814.589844 471.050781 L 780.382812 425.347656 L 746.171875 379.640625 C 746.136719 379.59375 746.09375 379.542969 746.058594 379.492188 C 737.175781 367.710938 731.347656 353.921875 729.59375 339.265625 L 721.324219 270.300781 C 727.375 269.570312 731.695312 264.070312 730.964844 258.011719 L 730.410156 253.355469 C 729.679688 247.296875 724.183594 242.972656 718.132812 243.703125 L 657.34375 251.003906 C 651.289062 251.734375 646.972656 257.238281 647.699219 263.296875 L 648.257812 267.953125 C 648.988281 274.011719 654.480469 278.335938 660.535156 277.605469 L 668.800781 346.570312 C 670.558594 361.21875 668.152344 376.003906 662.308594 389.546875 C 662.289062 389.605469 662.257812 389.664062 662.238281 389.722656 L 617.378906 494.753906 C 602.601562 529.34375 630.765625 566.976562 668.082031 562.496094 L 781.355469 548.886719 C 818.664062 544.40625 837.136719 501.164062 814.605469 471.050781 Z M 814.589844 471.050781 " fill-opacity="1" fill-rule="nonzero"/><path fill="#fc954f" d="M 707.667969 464.574219 C 694.835938 465.300781 683.332031 459.929688 672.203125 454.730469 C 681.214844 455.230469 690.566406 453.453125 699.492188 449.136719 C 710.355469 443.886719 719.910156 436.222656 730.949219 431.296875 C 742.144531 426.300781 752.839844 426.691406 763.953125 431.765625 C 763.953125 431.765625 763.96875 431.765625 763.976562 431.773438 C 764.71875 432.105469 765.417969 432.511719 766.070312 432.988281 C 760.855469 457.449219 729.304688 463.640625 707.675781 464.566406 Z M 707.667969 464.574219 " fill-opacity="1" fill-rule="nonzero"/><path fill="#fdc54c" d="M 631.539062 501.46875 L 649.679688 458.996094 C 651.664062 454.347656 657.371094 449.996094 662.28125 451.179688 C 665.199219 451.882812 667.835938 452.84375 670.609375 453.894531 C 671.804688 454.347656 672.992188 454.863281 674.152344 455.410156 C 684.71875 460.355469 695.507812 465.265625 707.660156 464.574219 C 729.289062 463.648438 760.839844 457.457031 766.054688 432.996094 C 766.742188 433.503906 767.367188 434.09375 767.882812 434.789062 L 768.410156 435.492188 L 802.414062 480.933594 C 818.058594 501.839844 805.238281 531.851562 779.335938 534.960938 L 666.714844 548.496094 C 640.820312 551.605469 621.261719 525.480469 631.523438 501.46875 Z M 631.539062 501.46875 " fill-opacity="1" fill-rule="nonzero"/><path fill="#fc954f" d="M 696.511719 435.996094 C 696.511719 436.480469 696.464844 436.960938 696.371094 437.433594 C 696.277344 437.910156 696.136719 438.371094 695.953125 438.816406 C 695.765625 439.265625 695.539062 439.6875 695.269531 440.089844 C 695.003906 440.492188 694.699219 440.863281 694.355469 441.207031 C 694.015625 441.550781 693.644531 441.855469 693.242188 442.125 C 692.839844 442.390625 692.414062 442.621094 691.96875 442.804688 C 691.523438 442.988281 691.0625 443.128906 690.589844 443.222656 C 690.113281 443.316406 689.636719 443.363281 689.152344 443.363281 C 688.667969 443.363281 688.191406 443.316406 687.71875 443.222656 C 687.242188 443.128906 686.78125 442.988281 686.335938 442.804688 C 685.890625 442.621094 685.464844 442.390625 685.0625 442.125 C 684.664062 441.855469 684.289062 441.550781 683.949219 441.207031 C 683.609375 440.863281 683.300781 440.492188 683.035156 440.089844 C 682.765625 439.6875 682.539062 439.265625 682.355469 438.816406 C 682.167969 438.371094 682.03125 437.910156 681.933594 437.433594 C 681.839844 436.960938 681.792969 436.480469 681.792969 435.996094 C 681.792969 435.511719 681.839844 435.035156 681.933594 434.558594 C 682.03125 434.085938 682.167969 433.625 682.355469 433.175781 C 682.539062 432.730469 682.765625 432.304688 683.035156 431.902344 C 683.300781 431.5 683.609375 431.128906 683.949219 430.789062 C 684.289062 430.445312 684.664062 430.140625 685.0625 429.871094 C 685.464844 429.601562 685.890625 429.375 686.335938 429.191406 C 686.78125 429.003906 687.242188 428.867188 687.71875 428.769531 C 688.191406 428.675781 688.667969 428.628906 689.152344 428.628906 C 689.636719 428.628906 690.113281 428.675781 690.589844 428.769531 C 691.0625 428.867188 691.523438 429.003906 691.96875 429.191406 C 692.414062 429.375 692.839844 429.601562 693.242188 429.871094 C 693.644531 430.140625 694.015625 430.445312 694.355469 430.789062 C 694.699219 431.128906 695.003906 431.5 695.269531 431.902344 C 695.539062 432.304688 695.765625 432.730469 695.953125 433.175781 C 696.136719 433.625 696.277344 434.085938 696.371094 434.558594 C 696.464844 435.035156 696.511719 435.511719 696.511719 435.996094 Z M 696.511719 435.996094 " fill-opacity="1" fill-rule="nonzero"/><path fill="#fc954f" d="M 703.226562 391.183594 C 703.226562 391.972656 703.148438 392.757812 702.996094 393.535156 C 702.84375 394.308594 702.613281 395.0625 702.3125 395.796875 C 702.007812 396.527344 701.636719 397.222656 701.199219 397.878906 C 700.757812 398.535156 700.261719 399.144531 699.703125 399.707031 C 699.140625 400.265625 698.535156 400.765625 697.878906 401.203125 C 697.21875 401.644531 696.527344 402.015625 695.796875 402.316406 C 695.066406 402.621094 694.3125 402.851562 693.539062 403.003906 C 692.761719 403.160156 691.980469 403.234375 691.1875 403.234375 C 690.398438 403.234375 689.617188 403.160156 688.839844 403.003906 C 688.066406 402.851562 687.3125 402.621094 686.582031 402.316406 C 685.851562 402.015625 685.160156 401.644531 684.5 401.203125 C 683.84375 400.765625 683.234375 400.265625 682.675781 399.707031 C 682.117188 399.144531 681.617188 398.535156 681.179688 397.878906 C 680.742188 397.222656 680.371094 396.527344 680.066406 395.796875 C 679.765625 395.0625 679.535156 394.308594 679.382812 393.535156 C 679.226562 392.757812 679.152344 391.972656 679.152344 391.183594 C 679.152344 390.390625 679.226562 389.605469 679.382812 388.832031 C 679.535156 388.054688 679.765625 387.300781 680.066406 386.570312 C 680.371094 385.839844 680.742188 385.144531 681.179688 384.484375 C 681.617188 383.828125 682.117188 383.21875 682.675781 382.660156 C 683.234375 382.101562 683.84375 381.601562 684.5 381.160156 C 685.160156 380.722656 685.851562 380.347656 686.582031 380.046875 C 687.3125 379.742188 688.066406 379.515625 688.839844 379.359375 C 689.617188 379.207031 690.398438 379.128906 691.1875 379.128906 C 691.980469 379.128906 692.761719 379.207031 693.539062 379.359375 C 694.3125 379.515625 695.066406 379.742188 695.796875 380.046875 C 696.527344 380.347656 697.21875 380.722656 697.878906 381.160156 C 698.535156 381.601562 699.140625 382.101562 699.703125 382.660156 C 700.261719 383.21875 700.757812 383.828125 701.199219 384.484375 C 701.636719 385.144531 702.007812 385.839844 702.3125 386.570312 C 702.613281 387.300781 702.84375 388.054688 702.996094 388.832031 C 703.148438 389.605469 703.226562 390.390625 703.226562 391.183594 Z M 703.226562 391.183594 " fill-opacity="1" fill-rule="nonzero"/><path fill="#fdc54c" d="M 738.246094 408.125 C 738.246094 408.605469 738.199219 409.085938 738.101562 409.5625 C 738.007812 410.035156 737.871094 410.496094 737.683594 410.941406 C 737.5 411.390625 737.273438 411.816406 737.003906 412.21875 C 736.734375 412.621094 736.429688 412.992188 736.089844 413.332031 C 735.746094 413.675781 735.375 413.980469 734.972656 414.25 C 734.574219 414.519531 734.148438 414.746094 733.703125 414.929688 C 733.253906 415.117188 732.796875 415.253906 732.320312 415.351562 C 731.847656 415.445312 731.367188 415.492188 730.886719 415.492188 C 730.402344 415.492188 729.925781 415.445312 729.449219 415.351562 C 728.976562 415.253906 728.515625 415.117188 728.070312 414.929688 C 727.625 414.746094 727.199219 414.519531 726.796875 414.25 C 726.394531 413.980469 726.023438 413.675781 725.683594 413.332031 C 725.339844 412.992188 725.035156 412.621094 724.765625 412.21875 C 724.5 411.816406 724.273438 411.390625 724.085938 410.941406 C 723.902344 410.496094 723.761719 410.035156 723.667969 409.5625 C 723.574219 409.085938 723.527344 408.605469 723.527344 408.125 C 723.527344 407.640625 723.574219 407.160156 723.667969 406.6875 C 723.761719 406.210938 723.902344 405.75 724.085938 405.304688 C 724.273438 404.855469 724.5 404.433594 724.765625 404.03125 C 725.035156 403.628906 725.339844 403.253906 725.683594 402.914062 C 726.023438 402.570312 726.394531 402.265625 726.796875 401.996094 C 727.199219 401.730469 727.625 401.5 728.070312 401.316406 C 728.515625 401.132812 728.976562 400.992188 729.449219 400.898438 C 729.925781 400.804688 730.402344 400.753906 730.886719 400.753906 C 731.367188 400.753906 731.847656 400.804688 732.320312 400.898438 C 732.796875 400.992188 733.253906 401.132812 733.703125 401.316406 C 734.148438 401.5 734.574219 401.730469 734.972656 401.996094 C 735.375 402.265625 735.746094 402.570312 736.089844 402.914062 C 736.429688 403.253906 736.734375 403.628906 737.003906 404.03125 C 737.273438 404.433594 737.5 404.855469 737.683594 405.304688 C 737.871094 405.75 738.007812 406.210938 738.101562 406.6875 C 738.199219 407.160156 738.246094 407.640625 738.246094 408.125 Z M 738.246094 408.125 " fill-opacity="1" fill-rule="nonzero"/><path fill="#fc954f" d="M 707.386719 411.464844 C 707.386719 411.746094 707.359375 412.023438 707.304688 412.300781 C 707.25 412.578125 707.167969 412.84375 707.0625 413.105469 C 706.953125 413.363281 706.820312 413.613281 706.664062 413.847656 C 706.507812 414.082031 706.332031 414.296875 706.132812 414.496094 C 705.933594 414.695312 705.71875 414.871094 705.484375 415.027344 C 705.25 415.1875 705.003906 415.316406 704.742188 415.425781 C 704.484375 415.53125 704.214844 415.613281 703.941406 415.667969 C 703.664062 415.722656 703.386719 415.75 703.105469 415.75 C 702.824219 415.75 702.546875 415.722656 702.269531 415.667969 C 701.992188 415.613281 701.726562 415.53125 701.464844 415.425781 C 701.207031 415.316406 700.960938 415.1875 700.726562 415.027344 C 700.492188 414.871094 700.273438 414.695312 700.078125 414.496094 C 699.878906 414.296875 699.699219 414.082031 699.542969 413.847656 C 699.386719 413.613281 699.253906 413.363281 699.148438 413.105469 C 699.039062 412.84375 698.960938 412.578125 698.90625 412.300781 C 698.851562 412.023438 698.820312 411.746094 698.820312 411.464844 C 698.820312 411.183594 698.851562 410.902344 698.90625 410.628906 C 698.960938 410.351562 699.039062 410.082031 699.148438 409.824219 C 699.253906 409.5625 699.386719 409.316406 699.542969 409.082031 C 699.699219 408.847656 699.878906 408.632812 700.078125 408.433594 C 700.273438 408.234375 700.492188 408.054688 700.726562 407.898438 C 700.960938 407.742188 701.207031 407.609375 701.464844 407.503906 C 701.726562 407.394531 701.992188 407.3125 702.269531 407.257812 C 702.546875 407.203125 702.824219 407.175781 703.105469 407.175781 C 703.386719 407.175781 703.664062 407.203125 703.941406 407.257812 C 704.214844 407.3125 704.484375 407.394531 704.742188 407.503906 C 705.003906 407.609375 705.25 407.742188 705.484375 407.898438 C 705.71875 408.054688 705.933594 408.234375 706.132812 408.433594 C 706.332031 408.632812 706.507812 408.847656 706.664062 409.082031 C 706.820312 409.316406 706.953125 409.5625 707.0625 409.824219 C 707.167969 410.082031 707.25 410.351562 707.304688 410.628906 C 707.359375 410.902344 707.386719 411.183594 707.386719 411.464844 Z M 707.386719 411.464844 " fill-opacity="1" fill-rule="nonzero"/><path fill="#fdc54c" d="M 673.121094 426.699219 C 673.121094 426.980469 673.09375 427.257812 673.039062 427.535156 C 672.984375 427.8125 672.902344 428.078125 672.792969 428.339844 C 672.6875 428.601562 672.554688 428.847656 672.398438 429.082031 C 672.242188 429.316406 672.066406 429.53125 671.867188 429.730469 C 671.667969 429.929688 671.453125 430.109375 671.21875 430.265625 C 670.984375 430.421875 670.738281 430.550781 670.476562 430.660156 C 670.21875 430.769531 669.949219 430.847656 669.675781 430.902344 C 669.398438 430.960938 669.121094 430.988281 668.839844 430.988281 C 668.558594 430.988281 668.277344 430.960938 668.003906 430.902344 C 667.726562 430.847656 667.460938 430.769531 667.199219 430.660156 C 666.941406 430.550781 666.691406 430.421875 666.460938 430.265625 C 666.226562 430.109375 666.007812 429.929688 665.808594 429.730469 C 665.613281 429.53125 665.433594 429.316406 665.277344 429.082031 C 665.121094 428.847656 664.988281 428.601562 664.882812 428.339844 C 664.773438 428.078125 664.691406 427.8125 664.636719 427.535156 C 664.582031 427.257812 664.554688 426.980469 664.554688 426.699219 C 664.554688 426.417969 664.582031 426.136719 664.636719 425.863281 C 664.691406 425.585938 664.773438 425.316406 664.882812 425.058594 C 664.988281 424.796875 665.121094 424.550781 665.277344 424.316406 C 665.433594 424.082031 665.613281 423.867188 665.808594 423.667969 C 666.007812 423.46875 666.226562 423.289062 666.460938 423.132812 C 666.691406 422.976562 666.941406 422.84375 667.199219 422.738281 C 667.460938 422.628906 667.726562 422.546875 668.003906 422.492188 C 668.277344 422.4375 668.558594 422.410156 668.839844 422.410156 C 669.121094 422.410156 669.398438 422.4375 669.675781 422.492188 C 669.949219 422.546875 670.21875 422.628906 670.476562 422.738281 C 670.738281 422.84375 670.984375 422.976562 671.21875 423.132812 C 671.453125 423.289062 671.667969 423.46875 671.867188 423.667969 C 672.066406 423.867188 672.242188 424.082031 672.398438 424.316406 C 672.554688 424.550781 672.6875 424.796875 672.792969 425.058594 C 672.902344 425.316406 672.984375 425.585938 673.039062 425.863281 C 673.09375 426.136719 673.121094 426.417969 673.121094 426.699219 Z M 673.121094 426.699219 " fill-opacity="1" fill-rule="nonzero"/><path fill="#fdc54c" d="M 719.640625 366.300781 C 719.640625 366.582031 719.613281 366.863281 719.558594 367.140625 C 719.503906 367.414062 719.421875 367.683594 719.316406 367.941406 C 719.207031 368.203125 719.078125 368.449219 718.921875 368.683594 C 718.765625 368.917969 718.585938 369.136719 718.386719 369.335938 C 718.1875 369.53125 717.972656 369.710938 717.738281 369.867188 C 717.503906 370.023438 717.257812 370.15625 717 370.261719 C 716.738281 370.371094 716.472656 370.453125 716.195312 370.507812 C 715.917969 370.5625 715.640625 370.589844 715.359375 370.589844 C 715.078125 370.589844 714.800781 370.5625 714.523438 370.507812 C 714.25 370.453125 713.980469 370.371094 713.722656 370.261719 C 713.460938 370.15625 713.214844 370.023438 712.980469 369.867188 C 712.746094 369.710938 712.53125 369.53125 712.332031 369.335938 C 712.132812 369.136719 711.953125 368.917969 711.800781 368.683594 C 711.644531 368.449219 711.511719 368.203125 711.402344 367.941406 C 711.296875 367.683594 711.214844 367.414062 711.160156 367.140625 C 711.105469 366.863281 711.078125 366.582031 711.078125 366.300781 C 711.078125 366.019531 711.105469 365.742188 711.160156 365.464844 C 711.214844 365.191406 711.296875 364.921875 711.402344 364.660156 C 711.511719 364.402344 711.644531 364.152344 711.800781 363.921875 C 711.953125 363.6875 712.132812 363.46875 712.332031 363.269531 C 712.53125 363.070312 712.746094 362.894531 712.980469 362.738281 C 713.214844 362.582031 713.460938 362.449219 713.722656 362.339844 C 713.980469 362.234375 714.25 362.152344 714.523438 362.097656 C 714.800781 362.042969 715.078125 362.015625 715.359375 362.015625 C 715.640625 362.015625 715.917969 362.042969 716.195312 362.097656 C 716.472656 362.152344 716.738281 362.234375 717 362.339844 C 717.257812 362.449219 717.503906 362.582031 717.738281 362.738281 C 717.972656 362.894531 718.1875 363.070312 718.386719 363.269531 C 718.585938 363.46875 718.765625 363.6875 718.921875 363.921875 C 719.078125 364.152344 719.207031 364.402344 719.316406 364.660156 C 719.421875 364.921875 719.503906 365.191406 719.558594 365.464844 C 719.613281 365.742188 719.640625 366.019531 719.640625 366.300781 Z M 719.640625 366.300781 " fill-opacity="1" fill-rule="nonzero"/><path fill="#def3fc" d="M 709.683594 286.316406 C 711.230469 299.230469 712.78125 312.152344 714.328125 325.066406 L 715.664062 336.1875 C 715.777344 337.15625 716.40625 337.996094 717.46875 337.996094 C 718.355469 337.996094 719.390625 337.164062 719.273438 336.1875 C 717.726562 323.273438 716.175781 310.351562 714.628906 297.4375 L 713.292969 286.316406 C 713.179688 285.347656 712.550781 284.511719 711.488281 284.511719 C 710.601562 284.511719 709.566406 285.34375 709.683594 286.316406 Z M 709.683594 286.316406 " fill-opacity="1" fill-rule="nonzero"/><path fill="#def3fc" d="M 743.003906 419.09375 C 755.25 435.628906 767.5 452.164062 779.746094 468.695312 C 783.183594 473.335938 786.621094 477.976562 790.058594 482.621094 C 790.636719 483.402344 791.617188 483.796875 792.527344 483.269531 C 793.300781 482.820312 793.761719 481.585938 793.179688 480.796875 C 780.929688 464.261719 768.683594 447.726562 756.433594 431.195312 L 746.125 417.269531 C 745.546875 416.488281 744.5625 416.089844 743.652344 416.621094 C 742.878906 417.066406 742.417969 418.304688 743.003906 419.09375 Z M 743.003906 419.09375 " fill-opacity="1" fill-rule="nonzero"/></svg>