<svg xmlns="http://www.w3.org/2000/svg" xmlns:xlink="http://www.w3.org/1999/xlink" width="1920" zoomAndPan="magnify" viewBox="0 0 1440 809.999993" height="1080" preserveAspectRatio="xMidYMid meet" version="1.0"><defs><clipPath id="1fd42aee23"><path d="M 626 266.007812 L 835.113281 266.007812 L 835.113281 567 L 626 567 Z M 626 266.007812 " clip-rule="nonzero"/></clipPath><clipPath id="562e8aa2f7"><path d="M 626 266.007812 L 835.113281 266.007812 L 835.113281 567 L 626 567 Z M 626 266.007812 " clip-rule="nonzero"/></clipPath></defs><path fill="#f46a61" d="M 766.003906 349.496094 C 752.621094 326.164062 734.804688 305.019531 725.9375 279.308594 C 723.722656 272.882812 722.09375 266.277344 721.359375 259.511719 C 720.820312 254.496094 722.304688 243.011719 714.691406 249.316406 C 704.78125 257.527344 701.832031 270.566406 704.671875 282.851562 C 707.75 296.199219 716.640625 307.320312 724.457031 318.21875 C 732.863281 329.933594 740.40625 341.910156 746.339844 355.082031 C 752.347656 368.417969 756.988281 382.40625 760.101562 396.699219 C 763.070312 410.328125 764.929688 421.582031 752.804688 431.042969 C 742.929688 438.75 730.484375 442.320312 718.789062 446.234375 C 709.496094 449.339844 700.289062 452.59375 691.28125 456.367188 C 693.949219 460.585938 696.675781 464.765625 699.414062 468.894531 C 701.453125 471.96875 703.558594 475 705.683594 478.027344 C 730.40625 469.695312 759.003906 461.3125 773.9375 438.054688 C 791.613281 410.523438 780.976562 375.597656 766.003906 349.496094 Z M 688.40625 484.039062 C 688.414062 484.054688 688.425781 484.066406 688.433594 484.082031 C 667.777344 491.777344 647.820312 501.417969 632.5 517.78125 C 627.894531 522.703125 623.820312 528.144531 620.53125 534.027344 C 618.621094 537.449219 616.839844 546.898438 611.890625 546.730469 C 605.984375 546.527344 605.109375 538.058594 605.402344 533.765625 C 605.859375 527.136719 608.738281 520.761719 612.101562 515.125 C 626.054688 491.730469 652.605469 475.417969 676.277344 463.296875 L 673.964844 464.507812 C 677.324219 469.40625 680.839844 474.128906 684.300781 478.671875 C 685.644531 480.4375 687.019531 482.226562 688.40625 484.039062 " fill-opacity="1" fill-rule="nonzero"/><g clip-path="url(#1fd42aee23)"><path fill="#86aadf" d="M 634.710938 508.488281 C 633.492188 508.058594 632.421875 507.886719 631.464844 508.070312 C 631.582031 507.511719 630.863281 506.957031 630.335938 507.449219 C 627.386719 510.183594 624.375 514.539062 628.226562 517.960938 C 631.042969 520.457031 635.667969 521.777344 639.070312 523.34375 C 643.078125 525.1875 647.09375 527.019531 651.128906 528.800781 C 657.125 531.449219 663.195312 534.003906 669.332031 536.429688 C 670.984375 532.566406 672.589844 528.683594 674.140625 524.78125 C 664.582031 522.195312 655.523438 518.445312 646.601562 514.160156 C 642.699219 512.285156 638.796875 509.925781 634.710938 508.488281 Z M 666.480469 490.414062 C 662.574219 488.347656 657.84375 485.195312 653.300781 484.867188 C 647.726562 484.460938 644.359375 490.378906 647.753906 493.675781 C 647.390625 493.921875 647.320312 494.570312 647.761719 494.871094 C 657.605469 501.503906 668.789062 505.617188 679.703125 510.125 C 681.039062 506.4375 682.328125 502.730469 683.570312 499.003906 C 682.828125 498.667969 682.085938 498.335938 681.347656 497.992188 C 676.292969 495.644531 671.402344 493.023438 666.480469 490.414062 Z M 754.703125 309.320312 C 747.761719 305.316406 740.851562 301.179688 733.800781 297.34375 C 737.082031 303.652344 740.761719 309.757812 744.585938 315.78125 C 748.140625 317.667969 751.675781 319.589844 755.1875 321.558594 C 756.402344 318.289062 757.753906 315.070312 759.171875 311.875 C 757.679688 311.03125 756.1875 310.179688 754.703125 309.320312 Z M 727.59375 283.789062 C 739.449219 289.371094 751.515625 294.617188 763.675781 299.394531 C 765.410156 295.839844 767.09375 292.265625 768.632812 288.636719 C 764.84375 287.054688 761.054688 285.460938 757.25 283.910156 C 749.089844 280.585938 740.890625 277.371094 732.792969 273.894531 C 729.492188 272.480469 726.257812 270.851562 723.023438 269.226562 C 723.8125 272.632812 724.792969 275.996094 725.9375 279.308594 C 726.457031 280.820312 727.011719 282.3125 727.59375 283.789062 Z M 718.789062 446.234375 C 721.96875 445.167969 725.210938 444.128906 728.4375 443.019531 C 722.03125 440.777344 715.640625 438.734375 709.476562 435.8125 C 706.335938 434.320312 703.136719 432.929688 699.90625 431.597656 C 698.160156 435.050781 696.335938 438.457031 694.308594 441.726562 C 700.066406 443.980469 705.765625 446.367188 711.492188 448.71875 C 713.914062 447.875 716.347656 447.046875 718.789062 446.234375 Z M 735.703125 418.488281 C 727.710938 415.425781 719.695312 412.382812 711.707031 409.269531 C 709.722656 412.632812 707.804688 416.03125 705.996094 419.488281 C 709.164062 420.882812 712.339844 422.265625 715.527344 423.617188 C 723.296875 426.921875 731.074219 430.261719 738.949219 433.304688 C 741.238281 434.1875 743.582031 434.914062 745.945312 435.570312 C 748.332031 434.226562 750.632812 432.738281 752.804688 431.042969 C 754.597656 429.644531 756.078125 428.207031 757.304688 426.726562 C 754.824219 425.320312 751.839844 424.507812 749.238281 423.550781 C 744.722656 421.878906 740.203125 420.21875 735.703125 418.488281 Z M 756.660156 399.394531 C 748.046875 396.15625 739.40625 392.996094 730.734375 389.921875 C 728.804688 389.238281 726.871094 388.570312 724.9375 387.90625 C 722.800781 391.335938 720.636719 394.753906 718.488281 398.183594 C 727.074219 401.449219 735.585938 404.925781 744.136719 408.320312 C 748.066406 409.882812 752.027344 411.398438 756.007812 412.839844 C 757.988281 413.554688 760.050781 414.414062 762.136719 415.203125 C 762.625 410.785156 761.996094 406.054688 760.996094 400.976562 C 759.542969 400.449219 758.085938 399.929688 756.660156 399.394531 Z M 732.347656 375.589844 C 736.667969 376.789062 740.980469 378.011719 745.246094 379.394531 C 749.191406 380.679688 753.003906 382.414062 756.875 383.933594 C 755.542969 379.261719 754.058594 374.628906 752.40625 370.058594 C 747.351562 368.867188 742.242188 367.871094 737.21875 366.582031 C 735.671875 369.628906 734.046875 372.628906 732.347656 375.589844 Z M 705.695312 478.023438 C 705.691406 478.023438 705.6875 478.023438 705.683594 478.027344 C 703.558594 475 701.453125 471.96875 699.414062 468.894531 C 699.058594 468.359375 698.707031 467.8125 698.351562 467.277344 C 692.28125 458.214844 686.457031 448.984375 681.234375 439.410156 C 674.316406 426.730469 667.632812 411.816406 674.503906 397.636719 C 683.683594 378.699219 708.171875 372.425781 726.285156 364.878906 C 733.144531 362.019531 740.023438 359.203125 746.898438 356.371094 C 746.707031 355.941406 746.53125 355.507812 746.339844 355.082031 C 743.679688 349.171875 740.6875 343.5 737.445312 337.988281 C 737.25 338.046875 737.058594 338.101562 736.863281 338.160156 C 721.449219 342.867188 705.808594 348.078125 691.621094 355.816406 C 666.785156 369.359375 649.4375 392.347656 654.492188 421.71875 C 657.222656 437.585938 664.832031 451.445312 673.890625 464.53125 C 674.691406 464.113281 675.484375 463.707031 676.277344 463.296875 L 673.964844 464.507812 C 677.324219 469.40625 680.839844 474.128906 684.300781 478.671875 C 685.644531 480.4375 687.019531 482.226562 688.40625 484.039062 C 688.414062 484.054688 688.425781 484.066406 688.433594 484.082031 C 688.433594 484.082031 688.425781 484.082031 688.417969 484.085938 C 692.078125 488.867188 695.699219 493.625 699.089844 498.425781 C 707.441406 510.261719 715.171875 523.050781 718.699219 537.234375 C 720.429688 544.183594 721.0625 551.40625 720.265625 558.539062 C 720.082031 560.15625 717.636719 567.0625 721.011719 566.996094 C 723.230469 566.949219 726.15625 561.082031 727.058594 559.472656 C 741.660156 533.265625 723.5 503.441406 708.585938 482.160156 C 707.621094 480.785156 706.660156 479.402344 705.695312 478.023438 Z M 834.21875 287.921875 C 828.082031 316.671875 798.890625 334.039062 774.101562 344.890625 C 771.238281 346.140625 768.363281 347.375 765.484375 348.601562 C 762.398438 343.277344 759.089844 338.0625 755.714844 332.875 C 765.519531 330.144531 775.238281 327.128906 784.25 322.378906 C 796.574219 315.882812 807.128906 306.1875 814.839844 294.601562 C 818.695312 288.808594 821.847656 282.539062 824.191406 275.984375 C 825.140625 273.328125 825.390625 270.34375 827.433594 268.53125 C 827.492188 268.476562 829.910156 266.785156 830.328125 266.644531 C 831.519531 266.242188 832.949219 266.359375 833.410156 267.871094 C 835.382812 274.375 835.632812 281.28125 834.21875 287.921875 " fill-opacity="1" fill-rule="nonzero"/></g><path fill="#ffffff" d="M 615 520.757812 C 611.128906 523.691406 609.652344 529.410156 609.4375 534.070312 C 609.328125 536.5 609.269531 543.304688 613.347656 542.375 C 613.800781 542.273438 613.953125 541.648438 613.625 541.339844 C 610.839844 538.710938 611.5625 534.144531 612.332031 530.71875 C 613.078125 527.417969 614.839844 524.617188 615.894531 521.449219 C 616.050781 520.976562 615.429688 520.433594 615 520.757812 Z M 709.84375 502.609375 C 709.386719 502.027344 708.4375 502.78125 708.824219 503.398438 C 713.492188 510.90625 717.359375 518.855469 719.714844 527.394531 C 720.890625 531.667969 721.769531 536.035156 722.25 540.4375 C 722.695312 544.484375 722.613281 548.566406 723.480469 552.554688 C 723.585938 553.046875 724.292969 553 724.425781 552.554688 C 726.816406 544.425781 724.347656 534.113281 721.914062 526.226562 C 719.285156 517.707031 715.339844 509.648438 709.84375 502.609375 Z M 766.859375 398.652344 C 767.09375 404.523438 768.03125 410.238281 767.367188 416.128906 C 766.644531 422.582031 764.402344 428.703125 759.96875 433.546875 C 755.75 438.160156 750.257812 441.660156 744.824219 444.671875 C 739.1875 447.796875 733.039062 449.65625 727.34375 452.570312 C 726.890625 452.804688 727.105469 453.535156 727.601562 453.523438 C 734.257812 453.335938 741.128906 450.246094 746.9375 447.191406 C 752.964844 444.015625 759.023438 439.949219 763.417969 434.675781 C 771.421875 425.066406 772.578125 409.976562 768.292969 398.460938 C 768.023438 397.734375 766.824219 397.777344 766.859375 398.652344 Z M 827.324219 274.277344 C 825.839844 278.230469 824.636719 282.238281 822.792969 286.050781 C 821.203125 289.328125 818.828125 292.285156 817.640625 295.730469 C 817.445312 296.289062 818.179688 296.886719 818.679688 296.53125 C 822 294.148438 823.90625 290.050781 825.53125 286.40625 C 827.214844 282.628906 828.515625 278.617188 828.757812 274.472656 C 828.808594 273.597656 827.597656 273.550781 827.324219 274.277344 Z M 713.238281 290.726562 C 708.855469 286.621094 708.1875 278.59375 708.535156 272.949219 C 708.953125 266.265625 711.132812 260.222656 715.015625 254.792969 C 715.617188 253.949219 716.964844 254.6875 716.429688 255.617188 C 713.347656 260.964844 711.640625 267.28125 711.574219 273.445312 C 711.539062 276.625 711.894531 279.769531 712.644531 282.859375 C 713.238281 285.320312 714.191406 287.699219 714.449219 290.226562 C 714.515625 290.875 713.644531 291.109375 713.238281 290.726562 " fill-opacity="1" fill-rule="nonzero"/><path fill="#f9ae8f" d="M 712.71875 538.648438 C 708.3125 536.78125 703.882812 534.964844 699.441406 533.179688 C 691.335938 529.921875 683.359375 527.214844 674.914062 524.996094 C 674.65625 524.925781 674.398438 524.851562 674.140625 524.78125 C 672.589844 528.683594 670.984375 532.566406 669.332031 536.429688 C 679.546875 540.464844 689.929688 544.136719 700.390625 547.269531 C 704.359375 548.457031 708.316406 549.671875 712.296875 550.828125 C 714.738281 551.535156 717.867188 552.9375 720.59375 552.671875 C 720.613281 548.925781 720.265625 545.179688 719.597656 541.488281 C 717.371094 540.398438 714.925781 539.582031 712.71875 538.648438 Z M 683.570312 499.003906 C 682.328125 502.730469 681.039062 506.4375 679.703125 510.125 C 682.246094 511.175781 684.769531 512.25 687.265625 513.378906 C 694.410156 516.621094 701.59375 519.800781 708.710938 523.109375 C 711.175781 524.253906 713.242188 525.925781 715.496094 527.3125 C 712.878906 520.660156 709.457031 514.320312 705.648438 508.242188 C 698.21875 505.332031 690.832031 502.304688 683.570312 499.003906 Z M 782.722656 322.976562 C 779.179688 321.492188 775.574219 320.277344 772.074219 318.640625 C 767.679688 316.589844 763.40625 314.273438 759.171875 311.875 C 757.753906 315.070312 756.402344 318.289062 755.1875 321.558594 C 759.238281 323.824219 763.265625 326.136719 767.269531 328.492188 C 771.136719 330.765625 777.179688 336.203125 781.972656 333.859375 C 784.308594 332.714844 786.953125 328.5625 785.988281 325.769531 C 785.449219 324.203125 784.085938 323.546875 782.722656 322.976562 Z M 808.59375 304.984375 C 808.472656 303.9375 807.632812 303.402344 806.828125 303.410156 C 798.199219 300.9375 789.832031 297.097656 781.46875 293.855469 C 777.160156 292.183594 772.894531 290.417969 768.632812 288.636719 C 767.09375 292.265625 765.410156 295.839844 763.675781 299.394531 C 765.148438 299.96875 766.621094 300.554688 768.09375 301.117188 C 773.089844 303.027344 778.195312 304.660156 783.164062 306.628906 C 787.046875 308.164062 790.75 310.113281 794.625 311.644531 C 800.0625 313.792969 809.519531 313.015625 808.59375 304.984375 Z M 694.308594 441.726562 C 696.335938 438.457031 698.160156 435.050781 699.90625 431.597656 C 688.910156 427.050781 677.527344 423.257812 666.382812 419.195312 C 665.746094 418.144531 663.988281 417.886719 663.167969 419.160156 C 656.691406 429.195312 676.769531 435.414062 682.949219 437.527344 C 686.78125 438.835938 690.554688 440.253906 694.308594 441.726562 Z M 667.179688 403.890625 C 667.660156 403.953125 668.042969 403.785156 668.320312 403.503906 C 676.066406 405.5625 683.324219 409.414062 690.605469 412.65625 C 695.734375 414.941406 700.855469 417.230469 705.996094 419.488281 C 707.804688 416.03125 709.722656 412.632812 711.707031 409.269531 C 702.785156 405.796875 693.894531 402.234375 685.121094 398.441406 C 680.667969 396.519531 676.359375 394.289062 671.921875 392.347656 C 669.679688 391.363281 667.066406 390.519531 664.835938 391.988281 C 660.558594 394.796875 662 403.210938 667.179688 403.890625 Z M 688.378906 374.488281 C 684.863281 373.242188 681.4375 372.636719 678.117188 374.59375 C 677.332031 375.058594 677.359375 375.878906 677.804688 376.410156 C 676.910156 377.859375 676.632812 379.667969 677.332031 381.539062 C 679.53125 387.375 688.210938 388.101562 693.277344 389.578125 C 701.824219 392.070312 710.191406 395.027344 718.488281 398.183594 C 720.636719 394.753906 722.800781 391.335938 724.9375 387.90625 C 717.25 385.257812 709.523438 382.691406 701.902344 379.851562 C 697.363281 378.164062 692.941406 376.105469 688.378906 374.488281 Z M 736.082031 366.292969 C 736.460938 366.394531 736.839844 366.484375 737.21875 366.582031 C 735.671875 369.628906 734.046875 372.628906 732.347656 375.589844 C 729 374.664062 725.648438 373.746094 722.308594 372.777344 C 714.886719 370.625 707.492188 368.128906 700.785156 364.226562 C 699.039062 363.210938 696.996094 362.320312 696.863281 360.027344 C 696.738281 357.917969 698.269531 355.996094 699.757812 354.722656 C 700.203125 354.34375 700.757812 354.570312 700.960938 354.964844 C 704.707031 354.304688 709.761719 357.613281 712.898438 358.785156 C 720.507812 361.628906 728.230469 364.203125 736.082031 366.292969 " fill-opacity="1" fill-rule="nonzero"/><path fill="#2e2e30" d="M 673.210938 523.5 C 671.75 525.429688 671.035156 528.214844 670.175781 530.449219 C 669.191406 533.019531 668.0625 535.550781 668.269531 538.34375 C 668.296875 538.683594 668.691406 538.875 668.953125 538.625 C 671.023438 536.644531 671.917969 533.828125 672.929688 531.207031 C 673.679688 529.25 675.679688 525.832031 675.070312 523.746094 C 674.808594 522.832031 673.71875 522.832031 673.210938 523.5 Z M 683.175781 498.554688 C 681.253906 502.152344 679.894531 505.75 679.050781 509.746094 C 678.929688 510.308594 679.628906 510.582031 679.957031 510.125 C 682.332031 506.8125 684.160156 503.394531 685.722656 499.628906 C 686.328125 498.167969 683.90625 497.183594 683.175781 498.554688 Z M 694.207031 444.566406 C 698.019531 440.75 699.777344 435.441406 701.230469 430.34375 C 701.597656 429.054688 699.660156 428.546875 699.234375 429.792969 C 697.570312 434.691406 694.945312 439.195312 693.46875 444.136719 C 693.339844 444.5625 693.898438 444.875 694.207031 444.566406 Z M 711.375 408.914062 C 709.828125 410.574219 708.878906 412.785156 707.863281 414.796875 C 706.914062 416.671875 705.972656 418.511719 705.808594 420.628906 C 705.757812 421.257812 706.558594 421.460938 706.960938 421.105469 C 708.601562 419.671875 709.496094 417.722656 710.445312 415.792969 C 711.378906 413.898438 712.539062 411.90625 712.917969 409.8125 C 713.074219 408.96875 712.054688 408.1875 711.375 408.914062 Z M 723.550781 388.460938 C 721.691406 392.644531 719.433594 396.632812 718.203125 401.054688 C 718.097656 401.429688 718.621094 401.785156 718.890625 401.457031 C 721.894531 397.851562 723.53125 393.496094 725.167969 389.140625 C 725.511719 388.214844 723.960938 387.546875 723.550781 388.460938 Z M 737.113281 366.050781 C 735.269531 369.296875 733.0625 372.476562 732.300781 376.175781 C 732.199219 376.667969 732.789062 377.070312 733.179688 376.683594 C 735.847656 374.027344 737.292969 370.460938 738.992188 367.148438 C 739.628906 365.90625 737.804688 364.820312 737.113281 366.050781 Z M 758.363281 317.976562 C 759.054688 315.878906 759.957031 313.664062 759.617188 311.433594 C 759.566406 311.109375 759.128906 311.0625 758.925781 311.25 C 757.367188 312.695312 756.726562 314.902344 756.003906 316.851562 C 755.140625 319.167969 754.441406 321.238281 754.425781 323.714844 C 754.421875 324.164062 755.078125 324.515625 755.390625 324.113281 C 756.878906 322.195312 757.601562 320.28125 758.363281 317.976562 Z M 764.066406 302.4375 C 765.359375 300.722656 765.914062 298.65625 766.671875 296.667969 C 767.582031 294.28125 768.578125 291.90625 769.640625 289.585938 C 770.097656 288.59375 768.785156 287.796875 768.164062 288.726562 C 765.71875 292.382812 762.441406 297.5 762.804688 302.09375 C 762.863281 302.792969 763.660156 302.972656 764.066406 302.4375 Z M 624.957031 511.148438 C 623.859375 513.566406 624.066406 516.601562 625.855469 518.644531 C 627.359375 520.355469 631.328125 522.535156 633.433594 520.964844 C 633.695312 520.769531 633.855469 520.425781 633.65625 520.117188 C 632.867188 518.882812 631.6875 518.902344 630.371094 518.464844 C 627.4375 517.492188 625.820312 514.636719 627.480469 511.765625 C 628.65625 509.722656 631.125 508.773438 633.394531 508.808594 C 635.777344 508.847656 637.503906 510.171875 639.667969 510.832031 C 640.527344 511.089844 640.917969 510.058594 640.460938 509.472656 C 636.726562 504.664062 627.472656 505.613281 624.957031 511.148438 Z M 654.808594 486.613281 C 659.617188 487.511719 663.648438 490.792969 668.234375 492.222656 C 668.875 492.421875 669.378906 491.550781 668.894531 491.09375 C 665.738281 488.125 660.722656 486.175781 656.582031 484.929688 C 653.441406 483.984375 650.195312 484.074219 647.894531 486.757812 C 642.722656 492.789062 650.023438 499.566406 655.78125 501.03125 C 657.03125 501.351562 657.792969 499.613281 656.664062 498.941406 C 654.894531 497.898438 652.972656 497.125 651.273438 495.941406 C 649.296875 494.5625 648.335938 493.132812 648.699219 490.664062 C 649.136719 487.667969 651.703125 486.03125 654.808594 486.613281 Z M 804.632812 302.984375 C 803.277344 303.199219 803.625 305.011719 804.632812 305.402344 C 806.054688 305.949219 807.640625 305.707031 808.285156 307.296875 C 809.097656 309.316406 807.988281 311.433594 806.019531 312.109375 C 804.527344 312.621094 802.855469 312.789062 801.289062 312.6875 C 799.722656 312.585938 798.554688 312.203125 797.015625 312.617188 C 796.753906 312.6875 796.617188 313.007812 796.761719 313.242188 C 799.320312 317.332031 808.648438 315.96875 810.667969 311.851562 C 812.929688 307.246094 809.914062 302.15625 804.632812 302.984375 Z M 781.445312 322.765625 C 780.382812 322.890625 780.152344 324.246094 781.195312 324.632812 C 782.265625 325.027344 783.332031 325.4375 784.394531 325.867188 C 787.160156 329.078125 787.070312 331.515625 784.125 333.167969 C 781.988281 334.378906 779.25 333.953125 777.035156 333.359375 C 773.769531 332.488281 771.261719 330.519531 768.351562 328.945312 C 767.851562 328.671875 767.210938 329.234375 767.542969 329.753906 C 770.929688 335.082031 780.804688 338.824219 786.3125 334.722656 C 791.804688 330.632812 788.121094 322.011719 781.445312 322.765625 Z M 712.933594 370.402344 C 710.28125 368.964844 707.582031 367.457031 704.996094 365.902344 C 703.949219 365.269531 701.039062 363.960938 700.476562 362.808594 C 698.136719 358.050781 705.585938 358.324219 707.394531 358.601562 C 712.316406 359.359375 717.65625 363.914062 722.652344 362.398438 C 723.078125 362.269531 723.203125 361.640625 722.78125 361.414062 C 720.589844 360.246094 718.121094 359.820312 715.804688 358.902344 C 713.621094 358.035156 711.488281 356.992188 709.1875 356.453125 C 705.757812 355.644531 701.523438 355.570312 698.789062 358.167969 C 691.875 364.742188 708.449219 370.144531 712.636719 371.105469 C 713.046875 371.199219 713.332031 370.617188 712.933594 370.402344 Z M 682.75 387.195312 C 683.21875 387.277344 683.839844 386.746094 683.46875 386.261719 C 682.671875 385.230469 681.617188 384.59375 680.746094 383.640625 C 679.375 382.128906 679.042969 381.308594 679.488281 379.3125 C 680.066406 376.722656 681.769531 376.144531 684.449219 376.144531 C 688.734375 376.144531 692.820312 378.269531 697.042969 378.058594 C 697.496094 378.035156 697.894531 377.386719 697.460938 377.046875 C 694.4375 374.683594 689.859375 374.121094 686.128906 373.703125 C 683.339844 373.390625 680.207031 373.636719 678.105469 375.730469 C 674.121094 379.699219 677.875 386.296875 682.75 387.195312 Z M 664.59375 404.027344 C 666.710938 405.863281 670.417969 407.5625 673.203125 406.605469 C 673.6875 406.4375 674.039062 405.699219 673.542969 405.316406 C 670.285156 402.796875 664.355469 403.371094 663.386719 398.15625 C 662.652344 394.179688 666.355469 392.625 669.605469 393.425781 C 671.878906 393.988281 673.742188 394.988281 676.132812 394.921875 C 676.699219 394.902344 676.867188 394.023438 676.269531 393.890625 C 672.90625 393.15625 669.445312 390.714844 665.886719 391.511719 C 663.347656 392.085938 661.683594 394.382812 661.445312 396.90625 C 661.191406 399.652344 662.550781 402.261719 664.59375 404.027344 Z M 668.324219 432.773438 C 670.929688 434.425781 675.535156 437.148438 678.648438 436.097656 C 679.050781 435.960938 679.335938 435.460938 679.070312 435.0625 C 678.085938 433.609375 676.59375 433.203125 675.015625 432.558594 C 672.691406 431.609375 670.398438 430.621094 668.371094 429.117188 C 666.550781 427.765625 662.972656 424.734375 663.011719 422.179688 C 663.089844 417.515625 670.308594 421.179688 672.042969 421.683594 C 672.679688 421.871094 672.988281 421 672.476562 420.652344 C 670.160156 419.070312 665.4375 416.726562 662.570312 417.96875 C 659.71875 419.207031 660.78125 422.703125 661.652344 424.871094 C 663.007812 428.261719 665.253906 430.828125 668.324219 432.773438 Z M 683.847656 475.96875 C 680.6875 471.648438 677.65625 467.0625 673.851562 463.277344 C 673.21875 462.648438 672.347656 463.441406 672.683594 464.179688 C 675.09375 469.460938 678.769531 474.199219 682.171875 478.875 C 685 482.761719 687.671875 487.296875 691.585938 490.171875 C 692.136719 490.574219 693 489.902344 692.761719 489.273438 C 690.90625 484.347656 686.921875 480.183594 683.847656 475.96875 Z M 698.570312 464.570312 C 695.261719 459.839844 692.109375 454.882812 688.15625 450.652344 C 687.703125 450.167969 687.039062 450.78125 687.289062 451.320312 C 689.933594 457 693.777344 462.136719 697.335938 467.273438 C 700.234375 471.453125 702.945312 476.695312 707.066406 479.773438 C 707.496094 480.089844 708.109375 479.5625 707.957031 479.085938 C 706.257812 473.804688 701.730469 469.085938 698.570312 464.570312 Z M 764.195312 343.996094 C 761.90625 340.042969 759.53125 335.980469 756.546875 332.507812 C 755.976562 331.847656 754.992188 332.691406 755.375 333.410156 C 757.636719 337.628906 760.429688 341.574219 762.808594 345.734375 C 764.921875 349.433594 766.523438 353.644531 769.25 356.929688 C 769.609375 357.367188 770.21875 356.886719 770.125 356.421875 C 769.222656 352 766.429688 347.863281 764.195312 343.996094 Z M 747.46875 353.890625 C 749.765625 358.179688 752.699219 363.003906 752.832031 367.976562 C 752.847656 368.582031 752.085938 368.683594 751.777344 368.261719 C 748.519531 363.785156 746.582031 357.996094 743.992188 353.082031 C 741.480469 348.308594 738.828125 343.601562 736.738281 338.625 C 736.378906 337.761719 737.695312 337.363281 738.152344 338.027344 C 741.625 343.054688 744.585938 348.507812 747.46875 353.890625 " fill-opacity="1" fill-rule="nonzero"/><path fill="#f46a61" d="M 766.003906 349.496094 C 752.621094 326.164062 734.804688 305.019531 725.9375 279.308594 C 723.722656 272.882812 722.09375 266.277344 721.359375 259.511719 C 720.820312 254.496094 722.304688 243.011719 714.691406 249.316406 C 704.78125 257.527344 701.832031 270.566406 704.671875 282.851562 C 707.75 296.199219 716.640625 307.320312 724.457031 318.21875 C 732.863281 329.933594 740.40625 341.910156 746.339844 355.082031 C 752.347656 368.417969 756.988281 382.40625 760.101562 396.699219 C 763.070312 410.328125 764.929688 421.582031 752.804688 431.042969 C 742.929688 438.75 730.484375 442.320312 718.789062 446.234375 C 709.496094 449.339844 700.289062 452.59375 691.28125 456.367188 C 693.949219 460.585938 696.675781 464.765625 699.414062 468.894531 C 701.453125 471.96875 703.558594 475 705.683594 478.027344 C 730.40625 469.695312 759.003906 461.3125 773.9375 438.054688 C 791.613281 410.523438 780.976562 375.597656 766.003906 349.496094 Z M 688.40625 484.039062 C 688.414062 484.054688 688.425781 484.066406 688.433594 484.082031 C 667.777344 491.777344 647.820312 501.417969 632.5 517.78125 C 627.894531 522.703125 623.820312 528.144531 620.53125 534.027344 C 618.621094 537.449219 616.839844 546.898438 611.890625 546.730469 C 605.984375 546.527344 605.109375 538.058594 605.402344 533.765625 C 605.859375 527.136719 608.738281 520.761719 612.101562 515.125 C 626.054688 491.730469 652.605469 475.417969 676.277344 463.296875 L 673.964844 464.507812 C 677.324219 469.40625 680.839844 474.128906 684.300781 478.671875 C 685.644531 480.4375 687.019531 482.226562 688.40625 484.039062 " fill-opacity="1" fill-rule="nonzero"/><g clip-path="url(#562e8aa2f7)"><path fill="#86aadf" d="M 634.710938 508.488281 C 633.492188 508.058594 632.421875 507.886719 631.464844 508.070312 C 631.582031 507.511719 630.863281 506.957031 630.335938 507.449219 C 627.386719 510.183594 624.375 514.539062 628.226562 517.960938 C 631.042969 520.457031 635.667969 521.777344 639.070312 523.34375 C 643.078125 525.1875 647.09375 527.019531 651.128906 528.800781 C 657.125 531.449219 663.195312 534.003906 669.332031 536.429688 C 670.984375 532.566406 672.589844 528.683594 674.140625 524.78125 C 664.582031 522.195312 655.523438 518.445312 646.601562 514.160156 C 642.699219 512.285156 638.796875 509.925781 634.710938 508.488281 Z M 666.480469 490.414062 C 662.574219 488.347656 657.84375 485.195312 653.300781 484.867188 C 647.726562 484.460938 644.359375 490.378906 647.753906 493.675781 C 647.390625 493.921875 647.320312 494.570312 647.761719 494.871094 C 657.605469 501.503906 668.789062 505.617188 679.703125 510.125 C 681.039062 506.4375 682.328125 502.730469 683.570312 499.003906 C 682.828125 498.667969 682.085938 498.335938 681.347656 497.992188 C 676.292969 495.644531 671.402344 493.023438 666.480469 490.414062 Z M 754.703125 309.320312 C 747.761719 305.316406 740.851562 301.179688 733.800781 297.34375 C 737.082031 303.652344 740.761719 309.757812 744.585938 315.78125 C 748.140625 317.667969 751.675781 319.589844 755.1875 321.558594 C 756.402344 318.289062 757.753906 315.070312 759.171875 311.875 C 757.679688 311.03125 756.1875 310.179688 754.703125 309.320312 Z M 727.59375 283.789062 C 739.449219 289.371094 751.515625 294.617188 763.675781 299.394531 C 765.410156 295.839844 767.09375 292.265625 768.632812 288.636719 C 764.84375 287.054688 761.054688 285.460938 757.25 283.910156 C 749.089844 280.585938 740.890625 277.371094 732.792969 273.894531 C 729.492188 272.480469 726.257812 270.851562 723.023438 269.226562 C 723.8125 272.632812 724.792969 275.996094 725.9375 279.308594 C 726.457031 280.820312 727.011719 282.3125 727.59375 283.789062 Z M 718.789062 446.234375 C 721.96875 445.167969 725.210938 444.128906 728.4375 443.019531 C 722.03125 440.777344 715.640625 438.734375 709.476562 435.8125 C 706.335938 434.320312 703.136719 432.929688 699.90625 431.597656 C 698.160156 435.050781 696.335938 438.457031 694.308594 441.726562 C 700.066406 443.980469 705.765625 446.367188 711.492188 448.71875 C 713.914062 447.875 716.347656 447.046875 718.789062 446.234375 Z M 735.703125 418.488281 C 727.710938 415.425781 719.695312 412.382812 711.707031 409.269531 C 709.722656 412.632812 707.804688 416.03125 705.996094 419.488281 C 709.164062 420.882812 712.339844 422.265625 715.527344 423.617188 C 723.296875 426.921875 731.074219 430.261719 738.949219 433.304688 C 741.238281 434.1875 743.582031 434.914062 745.945312 435.570312 C 748.332031 434.226562 750.632812 432.738281 752.804688 431.042969 C 754.597656 429.644531 756.078125 428.207031 757.304688 426.726562 C 754.824219 425.320312 751.839844 424.507812 749.238281 423.550781 C 744.722656 421.878906 740.203125 420.21875 735.703125 418.488281 Z M 756.660156 399.394531 C 748.046875 396.15625 739.40625 392.996094 730.734375 389.921875 C 728.804688 389.238281 726.871094 388.570312 724.9375 387.90625 C 722.800781 391.335938 720.636719 394.753906 718.488281 398.183594 C 727.074219 401.449219 735.585938 404.925781 744.136719 408.320312 C 748.066406 409.882812 752.027344 411.398438 756.007812 412.839844 C 757.988281 413.554688 760.050781 414.414062 762.136719 415.203125 C 762.625 410.785156 761.996094 406.054688 760.996094 400.976562 C 759.542969 400.449219 758.085938 399.929688 756.660156 399.394531 Z M 732.347656 375.589844 C 736.667969 376.789062 740.980469 378.011719 745.246094 379.394531 C 749.191406 380.679688 753.003906 382.414062 756.875 383.933594 C 755.542969 379.261719 754.058594 374.628906 752.40625 370.058594 C 747.351562 368.867188 742.242188 367.871094 737.21875 366.582031 C 735.671875 369.628906 734.046875 372.628906 732.347656 375.589844 Z M 705.695312 478.023438 C 705.691406 478.023438 705.6875 478.023438 705.683594 478.027344 C 703.558594 475 701.453125 471.96875 699.414062 468.894531 C 699.058594 468.359375 698.707031 467.8125 698.351562 467.277344 C 692.28125 458.214844 686.457031 448.984375 681.234375 439.410156 C 674.316406 426.730469 667.632812 411.816406 674.503906 397.636719 C 683.683594 378.699219 708.171875 372.425781 726.285156 364.878906 C 733.144531 362.019531 740.023438 359.203125 746.898438 356.371094 C 746.707031 355.941406 746.53125 355.507812 746.339844 355.082031 C 743.679688 349.171875 740.6875 343.5 737.445312 337.988281 C 737.25 338.046875 737.058594 338.101562 736.863281 338.160156 C 721.449219 342.867188 705.808594 348.078125 691.621094 355.816406 C 666.785156 369.359375 649.4375 392.347656 654.492188 421.71875 C 657.222656 437.585938 664.832031 451.445312 673.890625 464.53125 C 674.691406 464.113281 675.484375 463.707031 676.277344 463.296875 L 673.964844 464.507812 C 677.324219 469.40625 680.839844 474.128906 684.300781 478.671875 C 685.644531 480.4375 687.019531 482.226562 688.40625 484.039062 C 688.414062 484.054688 688.425781 484.066406 688.433594 484.082031 C 688.433594 484.082031 688.425781 484.082031 688.417969 484.085938 C 692.078125 488.867188 695.699219 493.625 699.089844 498.425781 C 707.441406 510.261719 715.171875 523.050781 718.699219 537.234375 C 720.429688 544.183594 721.0625 551.40625 720.265625 558.539062 C 720.082031 560.15625 717.636719 567.0625 721.011719 566.996094 C 723.230469 566.949219 726.15625 561.082031 727.058594 559.472656 C 741.660156 533.265625 723.5 503.441406 708.585938 482.160156 C 707.621094 480.785156 706.660156 479.402344 705.695312 478.023438 Z M 834.21875 287.921875 C 828.082031 316.671875 798.890625 334.039062 774.101562 344.890625 C 771.238281 346.140625 768.363281 347.375 765.484375 348.601562 C 762.398438 343.277344 759.089844 338.0625 755.714844 332.875 C 765.519531 330.144531 775.238281 327.128906 784.25 322.378906 C 796.574219 315.882812 807.128906 306.1875 814.839844 294.601562 C 818.695312 288.808594 821.847656 282.539062 824.191406 275.984375 C 825.140625 273.328125 825.390625 270.34375 827.433594 268.53125 C 827.492188 268.476562 829.910156 266.785156 830.328125 266.644531 C 831.519531 266.242188 832.949219 266.359375 833.410156 267.871094 C 835.382812 274.375 835.632812 281.28125 834.21875 287.921875 " fill-opacity="1" fill-rule="nonzero"/></g><path fill="#ffffff" d="M 615 520.757812 C 611.128906 523.691406 609.652344 529.410156 609.4375 534.070312 C 609.328125 536.5 609.269531 543.304688 613.347656 542.375 C 613.800781 542.273438 613.953125 541.648438 613.625 541.339844 C 610.839844 538.710938 611.5625 534.144531 612.332031 530.71875 C 613.078125 527.417969 614.839844 524.617188 615.894531 521.449219 C 616.050781 520.976562 615.429688 520.433594 615 520.757812 Z M 709.84375 502.609375 C 709.386719 502.027344 708.4375 502.78125 708.824219 503.398438 C 713.492188 510.90625 717.359375 518.855469 719.714844 527.394531 C 720.890625 531.667969 721.769531 536.035156 722.25 540.4375 C 722.695312 544.484375 722.613281 548.566406 723.480469 552.554688 C 723.585938 553.046875 724.292969 553 724.425781 552.554688 C 726.816406 544.425781 724.347656 534.113281 721.914062 526.226562 C 719.285156 517.707031 715.339844 509.648438 709.84375 502.609375 Z M 766.859375 398.652344 C 767.09375 404.523438 768.03125 410.238281 767.367188 416.128906 C 766.644531 422.582031 764.402344 428.703125 759.96875 433.546875 C 755.75 438.160156 750.257812 441.660156 744.824219 444.671875 C 739.1875 447.796875 733.039062 449.65625 727.34375 452.570312 C 726.890625 452.804688 727.105469 453.535156 727.601562 453.523438 C 734.257812 453.335938 741.128906 450.246094 746.9375 447.191406 C 752.964844 444.015625 759.023438 439.949219 763.417969 434.675781 C 771.421875 425.066406 772.578125 409.976562 768.292969 398.460938 C 768.023438 397.734375 766.824219 397.777344 766.859375 398.652344 Z M 827.324219 274.277344 C 825.839844 278.230469 824.636719 282.238281 822.792969 286.050781 C 821.203125 289.328125 818.828125 292.285156 817.640625 295.730469 C 817.445312 296.289062 818.179688 296.886719 818.679688 296.53125 C 822 294.148438 823.90625 290.050781 825.53125 286.40625 C 827.214844 282.628906 828.515625 278.617188 828.757812 274.472656 C 828.808594 273.597656 827.597656 273.550781 827.324219 274.277344 Z M 713.238281 290.726562 C 708.855469 286.621094 708.1875 278.59375 708.535156 272.949219 C 708.953125 266.265625 711.132812 260.222656 715.015625 254.792969 C 715.617188 253.949219 716.964844 254.6875 716.429688 255.617188 C 713.347656 260.964844 711.640625 267.28125 711.574219 273.445312 C 711.539062 276.625 711.894531 279.769531 712.644531 282.859375 C 713.238281 285.320312 714.191406 287.699219 714.449219 290.226562 C 714.515625 290.875 713.644531 291.109375 713.238281 290.726562 " fill-opacity="1" fill-rule="nonzero"/><path fill="#f9ae8f" d="M 712.71875 538.648438 C 708.3125 536.78125 703.882812 534.964844 699.441406 533.179688 C 691.335938 529.921875 683.359375 527.214844 674.914062 524.996094 C 674.65625 524.925781 674.398438 524.851562 674.140625 524.78125 C 672.589844 528.683594 670.984375 532.566406 669.332031 536.429688 C 679.546875 540.464844 689.929688 544.136719 700.390625 547.269531 C 704.359375 548.457031 708.316406 549.671875 712.296875 550.828125 C 714.738281 551.535156 717.867188 552.9375 720.59375 552.671875 C 720.613281 548.925781 720.265625 545.179688 719.597656 541.488281 C 717.371094 540.398438 714.925781 539.582031 712.71875 538.648438 Z M 683.570312 499.003906 C 682.328125 502.730469 681.039062 506.4375 679.703125 510.125 C 682.246094 511.175781 684.769531 512.25 687.265625 513.378906 C 694.410156 516.621094 701.59375 519.800781 708.710938 523.109375 C 711.175781 524.253906 713.242188 525.925781 715.496094 527.3125 C 712.878906 520.660156 709.457031 514.320312 705.648438 508.242188 C 698.21875 505.332031 690.832031 502.304688 683.570312 499.003906 Z M 782.722656 322.976562 C 779.179688 321.492188 775.574219 320.277344 772.074219 318.640625 C 767.679688 316.589844 763.40625 314.273438 759.171875 311.875 C 757.753906 315.070312 756.402344 318.289062 755.1875 321.558594 C 759.238281 323.824219 763.265625 326.136719 767.269531 328.492188 C 771.136719 330.765625 777.179688 336.203125 781.972656 333.859375 C 784.308594 332.714844 786.953125 328.5625 785.988281 325.769531 C 785.449219 324.203125 784.085938 323.546875 782.722656 322.976562 Z M 808.59375 304.984375 C 808.472656 303.9375 807.632812 303.402344 806.828125 303.410156 C 798.199219 300.9375 789.832031 297.097656 781.46875 293.855469 C 777.160156 292.183594 772.894531 290.417969 768.632812 288.636719 C 767.09375 292.265625 765.410156 295.839844 763.675781 299.394531 C 765.148438 299.96875 766.621094 300.554688 768.09375 301.117188 C 773.089844 303.027344 778.195312 304.660156 783.164062 306.628906 C 787.046875 308.164062 790.75 310.113281 794.625 311.644531 C 800.0625 313.792969 809.519531 313.015625 808.59375 304.984375 Z M 694.308594 441.726562 C 696.335938 438.457031 698.160156 435.050781 699.90625 431.597656 C 688.910156 427.050781 677.527344 423.257812 666.382812 419.195312 C 665.746094 418.144531 663.988281 417.886719 663.167969 419.160156 C 656.691406 429.195312 676.769531 435.414062 682.949219 437.527344 C 686.78125 438.835938 690.554688 440.253906 694.308594 441.726562 Z M 667.179688 403.890625 C 667.660156 403.953125 668.042969 403.785156 668.320312 403.503906 C 676.066406 405.5625 683.324219 409.414062 690.605469 412.65625 C 695.734375 414.941406 700.855469 417.230469 705.996094 419.488281 C 707.804688 416.03125 709.722656 412.632812 711.707031 409.269531 C 702.785156 405.796875 693.894531 402.234375 685.121094 398.441406 C 680.667969 396.519531 676.359375 394.289062 671.921875 392.347656 C 669.679688 391.363281 667.066406 390.519531 664.835938 391.988281 C 660.558594 394.796875 662 403.210938 667.179688 403.890625 Z M 688.378906 374.488281 C 684.863281 373.242188 681.4375 372.636719 678.117188 374.59375 C 677.332031 375.058594 677.359375 375.878906 677.804688 376.410156 C 676.910156 377.859375 676.632812 379.667969 677.332031 381.539062 C 679.53125 387.375 688.210938 388.101562 693.277344 389.578125 C 701.824219 392.070312 710.191406 395.027344 718.488281 398.183594 C 720.636719 394.753906 722.800781 391.335938 724.9375 387.90625 C 717.25 385.257812 709.523438 382.691406 701.902344 379.851562 C 697.363281 378.164062 692.941406 376.105469 688.378906 374.488281 Z M 736.082031 366.292969 C 736.460938 366.394531 736.839844 366.484375 737.21875 366.582031 C 735.671875 369.628906 734.046875 372.628906 732.347656 375.589844 C 729 374.664062 725.648438 373.746094 722.308594 372.777344 C 714.886719 370.625 707.492188 368.128906 700.785156 364.226562 C 699.039062 363.210938 696.996094 362.320312 696.863281 360.027344 C 696.738281 357.917969 698.269531 355.996094 699.757812 354.722656 C 700.203125 354.34375 700.757812 354.570312 700.960938 354.964844 C 704.707031 354.304688 709.761719 357.613281 712.898438 358.785156 C 720.507812 361.628906 728.230469 364.203125 736.082031 366.292969 " fill-opacity="1" fill-rule="nonzero"/><path fill="#2e2e30" d="M 673.210938 523.5 C 671.75 525.429688 671.035156 528.214844 670.175781 530.449219 C 669.191406 533.019531 668.0625 535.550781 668.269531 538.34375 C 668.296875 538.683594 668.691406 538.875 668.953125 538.625 C 671.023438 536.644531 671.917969 533.828125 672.929688 531.207031 C 673.679688 529.25 675.679688 525.832031 675.070312 523.746094 C 674.808594 522.832031 673.71875 522.832031 673.210938 523.5 Z M 683.175781 498.554688 C 681.253906 502.152344 679.894531 505.75 679.050781 509.746094 C 678.929688 510.308594 679.628906 510.582031 679.957031 510.125 C 682.332031 506.8125 684.160156 503.394531 685.722656 499.628906 C 686.328125 498.167969 683.90625 497.183594 683.175781 498.554688 Z M 694.207031 444.566406 C 698.019531 440.75 699.777344 435.441406 701.230469 430.34375 C 701.597656 429.054688 699.660156 428.546875 699.234375 429.792969 C 697.570312 434.691406 694.945312 439.195312 693.46875 444.136719 C 693.339844 444.5625 693.898438 444.875 694.207031 444.566406 Z M 711.375 408.914062 C 709.828125 410.574219 708.878906 412.785156 707.863281 414.796875 C 706.914062 416.671875 705.972656 418.511719 705.808594 420.628906 C 705.757812 421.257812 706.558594 421.460938 706.960938 421.105469 C 708.601562 419.671875 709.496094 417.722656 710.445312 415.792969 C 711.378906 413.898438 712.539062 411.90625 712.917969 409.8125 C 713.074219 408.96875 712.054688 408.1875 711.375 408.914062 Z M 723.550781 388.460938 C 721.691406 392.644531 719.433594 396.632812 718.203125 401.054688 C 718.097656 401.429688 718.621094 401.785156 718.890625 401.457031 C 721.894531 397.851562 723.53125 393.496094 725.167969 389.140625 C 725.511719 388.214844 723.960938 387.546875 723.550781 388.460938 Z M 737.113281 366.050781 C 735.269531 369.296875 733.0625 372.476562 732.300781 376.175781 C 732.199219 376.667969 732.789062 377.070312 733.179688 376.683594 C 735.847656 374.027344 737.292969 370.460938 738.992188 367.148438 C 739.628906 365.90625 737.804688 364.820312 737.113281 366.050781 Z M 758.363281 317.976562 C 759.054688 315.878906 759.957031 313.664062 759.617188 311.433594 C 759.566406 311.109375 759.128906 311.0625 758.925781 311.25 C 757.367188 312.695312 756.726562 314.902344 756.003906 316.851562 C 755.140625 319.167969 754.441406 321.238281 754.425781 323.714844 C 754.421875 324.164062 755.078125 324.515625 755.390625 324.113281 C 756.878906 322.195312 757.601562 320.28125 758.363281 317.976562 Z M 764.066406 302.4375 C 765.359375 300.722656 765.914062 298.65625 766.671875 296.667969 C 767.582031 294.28125 768.578125 291.90625 769.640625 289.585938 C 770.097656 288.59375 768.785156 287.796875 768.164062 288.726562 C 765.71875 292.382812 762.441406 297.5 762.804688 302.09375 C 762.863281 302.792969 763.660156 302.972656 764.066406 302.4375 Z M 624.957031 511.148438 C 623.859375 513.566406 624.066406 516.601562 625.855469 518.644531 C 627.359375 520.355469 631.328125 522.535156 633.433594 520.964844 C 633.695312 520.769531 633.855469 520.425781 633.65625 520.117188 C 632.867188 518.882812 631.6875 518.902344 630.371094 518.464844 C 627.4375 517.492188 625.820312 514.636719 627.480469 511.765625 C 628.65625 509.722656 631.125 508.773438 633.394531 508.808594 C 635.777344 508.847656 637.503906 510.171875 639.667969 510.832031 C 640.527344 511.089844 640.917969 510.058594 640.460938 509.472656 C 636.726562 504.664062 627.472656 505.613281 624.957031 511.148438 Z M 654.808594 486.613281 C 659.617188 487.511719 663.648438 490.792969 668.234375 492.222656 C 668.875 492.421875 669.378906 491.550781 668.894531 491.09375 C 665.738281 488.125 660.722656 486.175781 656.582031 484.929688 C 653.441406 483.984375 650.195312 484.074219 647.894531 486.757812 C 642.722656 492.789062 650.023438 499.566406 655.78125 501.03125 C 657.03125 501.351562 657.792969 499.613281 656.664062 498.941406 C 654.894531 497.898438 652.972656 497.125 651.273438 495.941406 C 649.296875 494.5625 648.335938 493.132812 648.699219 490.664062 C 649.136719 487.667969 651.703125 486.03125 654.808594 486.613281 Z M 804.632812 302.984375 C 803.277344 303.199219 803.625 305.011719 804.632812 305.402344 C 806.054688 305.949219 807.640625 305.707031 808.285156 307.296875 C 809.097656 309.316406 807.988281 311.433594 806.019531 312.109375 C 804.527344 312.621094 802.855469 312.789062 801.289062 312.6875 C 799.722656 312.585938 798.554688 312.203125 797.015625 312.617188 C 796.753906 312.6875 796.617188 313.007812 796.761719 313.242188 C 799.320312 317.332031 808.648438 315.96875 810.667969 311.851562 C 812.929688 307.246094 809.914062 302.15625 804.632812 302.984375 Z M 781.445312 322.765625 C 780.382812 322.890625 780.152344 324.246094 781.195312 324.632812 C 782.265625 325.027344 783.332031 325.4375 784.394531 325.867188 C 787.160156 329.078125 787.070312 331.515625 784.125 333.167969 C 781.988281 334.378906 779.25 333.953125 777.035156 333.359375 C 773.769531 332.488281 771.261719 330.519531 768.351562 328.945312 C 767.851562 328.671875 767.210938 329.234375 767.542969 329.753906 C 770.929688 335.082031 780.804688 338.824219 786.3125 334.722656 C 791.804688 330.632812 788.121094 322.011719 781.445312 322.765625 Z M 712.933594 370.402344 C 710.28125 368.964844 707.582031 367.457031 704.996094 365.902344 C 703.949219 365.269531 701.039062 363.960938 700.476562 362.808594 C 698.136719 358.050781 705.585938 358.324219 707.394531 358.601562 C 712.316406 359.359375 717.65625 363.914062 722.652344 362.398438 C 723.078125 362.269531 723.203125 361.640625 722.78125 361.414062 C 720.589844 360.246094 718.121094 359.820312 715.804688 358.902344 C 713.621094 358.035156 711.488281 356.992188 709.1875 356.453125 C 705.757812 355.644531 701.523438 355.570312 698.789062 358.167969 C 691.875 364.742188 708.449219 370.144531 712.636719 371.105469 C 713.046875 371.199219 713.332031 370.617188 712.933594 370.402344 Z M 682.75 387.195312 C 683.21875 387.277344 683.839844 386.746094 683.46875 386.261719 C 682.671875 385.230469 681.617188 384.59375 680.746094 383.640625 C 679.375 382.128906 679.042969 381.308594 679.488281 379.3125 C 680.066406 376.722656 681.769531 376.144531 684.449219 376.144531 C 688.734375 376.144531 692.820312 378.269531 697.042969 378.058594 C 697.496094 378.035156 697.894531 377.386719 697.460938 377.046875 C 694.4375 374.683594 689.859375 374.121094 686.128906 373.703125 C 683.339844 373.390625 680.207031 373.636719 678.105469 375.730469 C 674.121094 379.699219 677.875 386.296875 682.75 387.195312 Z M 664.59375 404.027344 C 666.710938 405.863281 670.417969 407.5625 673.203125 406.605469 C 673.6875 406.4375 674.039062 405.699219 673.542969 405.316406 C 670.285156 402.796875 664.355469 403.371094 663.386719 398.15625 C 662.652344 394.179688 666.355469 392.625 669.605469 393.425781 C 671.878906 393.988281 673.742188 394.988281 676.132812 394.921875 C 676.699219 394.902344 676.867188 394.023438 676.269531 393.890625 C 672.90625 393.15625 669.445312 390.714844 665.886719 391.511719 C 663.347656 392.085938 661.683594 394.382812 661.445312 396.90625 C 661.191406 399.652344 662.550781 402.261719 664.59375 404.027344 Z M 668.324219 432.773438 C 670.929688 434.425781 675.535156 437.148438 678.648438 436.097656 C 679.050781 435.960938 679.335938 435.460938 679.070312 435.0625 C 678.085938 433.609375 676.59375 433.203125 675.015625 432.558594 C 672.691406 431.609375 670.398438 430.621094 668.371094 429.117188 C 666.550781 427.765625 662.972656 424.734375 663.011719 422.179688 C 663.089844 417.515625 670.308594 421.179688 672.042969 421.683594 C 672.679688 421.871094 672.988281 421 672.476562 420.652344 C 670.160156 419.070312 665.4375 416.726562 662.570312 417.96875 C 659.71875 419.207031 660.78125 422.703125 661.652344 424.871094 C 663.007812 428.261719 665.253906 430.828125 668.324219 432.773438 Z M 683.847656 475.96875 C 680.6875 471.648438 677.65625 467.0625 673.851562 463.277344 C 673.21875 462.648438 672.347656 463.441406 672.683594 464.179688 C 675.09375 469.460938 678.769531 474.199219 682.171875 478.875 C 685 482.761719 687.671875 487.296875 691.585938 490.171875 C 692.136719 490.574219 693 489.902344 692.761719 489.273438 C 690.90625 484.347656 686.921875 480.183594 683.847656 475.96875 Z M 698.570312 464.570312 C 695.261719 459.839844 692.109375 454.882812 688.15625 450.652344 C 687.703125 450.167969 687.039062 450.78125 687.289062 451.320312 C 689.933594 457 693.777344 462.136719 697.335938 467.273438 C 700.234375 471.453125 702.945312 476.695312 707.066406 479.773438 C 707.496094 480.089844 708.109375 479.5625 707.957031 479.085938 C 706.257812 473.804688 701.730469 469.085938 698.570312 464.570312 Z M 764.195312 343.996094 C 761.90625 340.042969 759.53125 335.980469 756.546875 332.507812 C 755.976562 331.847656 754.992188 332.691406 755.375 333.410156 C 757.636719 337.628906 760.429688 341.574219 762.808594 345.734375 C 764.921875 349.433594 766.523438 353.644531 769.25 356.929688 C 769.609375 357.367188 770.21875 356.886719 770.125 356.421875 C 769.222656 352 766.429688 347.863281 764.195312 343.996094 Z M 747.46875 353.890625 C 749.765625 358.179688 752.699219 363.003906 752.832031 367.976562 C 752.847656 368.582031 752.085938 368.683594 751.777344 368.261719 C 748.519531 363.785156 746.582031 357.996094 743.992188 353.082031 C 741.480469 348.308594 738.828125 343.601562 736.738281 338.625 C 736.378906 337.761719 737.695312 337.363281 738.152344 338.027344 C 741.625 343.054688 744.585938 348.507812 747.46875 353.890625 " fill-opacity="1" fill-rule="nonzero"/></svg>