<svg xmlns="http://www.w3.org/2000/svg" xmlns:xlink="http://www.w3.org/1999/xlink" width="1920" zoomAndPan="magnify" viewBox="0 0 1440 809.999993" height="1080" preserveAspectRatio="xMidYMid meet" version="1.0"><defs><clipPath id="edb47e540e"><path d="M 434 283 L 1003 283 L 1003 527.71875 L 434 527.71875 Z M 434 283 " clip-rule="nonzero"/></clipPath></defs><g clip-path="url(#edb47e540e)"><path fill="#000000" d="M 950.144531 284.71875 C 939.128906 287.988281 932.351562 297.195312 934.773438 305.671875 C 937.195312 314.394531 946.632812 317.664062 954.984375 312.578125 C 962.125 308.214844 968.417969 310.394531 966.84375 316.816406 C 965.027344 323.839844 952.5625 332.320312 935.742188 337.890625 C 921.703125 342.492188 916.984375 351.820312 923.398438 361.871094 C 926.664062 366.839844 932.230469 368.292969 956.679688 370.109375 C 994.316406 373.015625 993.105469 373.015625 998.308594 367.808594 C 1007.992188 358.117188 999.519531 345.277344 983.304688 345.277344 L 979.1875 345.277344 L 983.546875 340.191406 C 992.5 329.777344 996.253906 315.242188 992.742188 304.582031 C 990.6875 298.285156 982.457031 289.804688 975.195312 286.414062 C 968.902344 283.386719 957.042969 282.660156 950.144531 284.71875 Z M 510.957031 318.226562 C 497 318.949219 477.507812 321.238281 469.808594 322.921875 C 454.046875 326.535156 451.640625 332.796875 444.78125 387.824219 C 433.714844 477.535156 432.03125 501.496094 436.242188 510.648438 C 439.128906 517.027344 445.503906 522.566406 453.445312 525.21875 C 458.859375 527.144531 463.671875 527.503906 485.929688 527.503906 L 512.039062 527.503906 L 515.648438 524.011719 C 520.222656 519.679688 521.183594 515.101562 518.898438 509.5625 C 516.011719 502.699219 512.039062 501.617188 489.660156 501.496094 C 479.195312 501.496094 468.484375 501.132812 465.839844 500.652344 L 461.027344 499.691406 L 461.265625 487.167969 C 461.386719 475.125 467.160156 420.335938 468.363281 418.289062 C 468.726562 417.808594 474.5 417.328125 481.238281 417.328125 C 503.976562 417.328125 515.527344 414.074219 519.859375 406.609375 C 522.027344 402.878906 522.027344 402.15625 520.460938 397.578125 C 519.257812 393.964844 517.574219 392.039062 514.324219 390.234375 C 510.234375 388.066406 509.152344 388.066406 499.886719 389.390625 C 494.351562 390.234375 485.570312 390.835938 480.398438 390.835938 L 471.011719 390.835938 L 471.613281 386.863281 C 471.972656 384.816406 473.296875 375.902344 474.378906 367.113281 C 475.464844 358.445312 476.785156 350.617188 477.269531 349.894531 C 478.589844 347.726562 486.414062 346.523438 510.957031 345.078125 C 539.59375 343.390625 540.796875 343.152344 544.886719 339.058594 C 550.902344 333.035156 548.976562 323.285156 541.035156 319.1875 C 537.667969 317.382812 529.605469 317.140625 510.957031 318.226562 Z M 877.527344 355.996094 C 864.214844 360.964844 854.414062 370.289062 846.546875 385.671875 C 834.6875 408.320312 829.726562 433.878906 833.355469 451.925781 C 837.109375 469.851562 846.667969 484.023438 859.375 490.320312 C 867.605469 494.316406 879.707031 494.195312 888.058594 489.835938 C 897.980469 484.628906 908.753906 472.152344 910.933594 463.070312 C 912.503906 456.285156 905.605469 447.6875 898.34375 447.6875 C 893.867188 447.6875 889.027344 451.078125 884.667969 457.253906 C 878.859375 465.25 874.988281 467.792969 871.234375 466.097656 C 863.492188 462.582031 857.558594 447.082031 859.011719 434.484375 C 861.070312 416.679688 869.542969 395.363281 877.890625 387.003906 C 882.371094 382.523438 886.242188 380.828125 886.242188 383.492188 C 886.242188 385.066406 892.777344 388.335938 895.925781 388.335938 C 900.160156 388.335938 905.484375 384.945312 907.542969 380.828125 C 911.414062 373.316406 906.816406 361.8125 898.101562 357.328125 C 893.019531 354.664062 882.976562 354.058594 877.527344 355.996094 Z M 732.90625 359.871094 C 726.976562 362.902344 720.441406 368.957031 714.875 376.707031 L 712.453125 380.101562 L 708.824219 373.074219 C 700.714844 356.601562 686.675781 356.117188 670.699219 371.863281 L 664.042969 378.285156 L 660.65625 375.496094 C 654.605469 370.167969 644.4375 372.589844 640.445312 380.101562 C 638.628906 383.492188 637.175781 407.109375 636.8125 438.117188 C 636.453125 461.128906 636.691406 464.644531 638.507812 467.429688 C 643.46875 474.9375 653.03125 476.027344 659.082031 469.730469 C 661.867188 466.824219 662.472656 464.28125 664.769531 449.261719 C 667.433594 430.972656 670.578125 418.980469 675.058594 410.136719 C 678.445312 403.597656 684.980469 394.390625 686.3125 394.390625 C 686.796875 394.390625 688.371094 401.539062 689.824219 410.257812 C 692.121094 424.550781 692.726562 426.488281 695.875 429.761719 C 700.59375 434.484375 707.492188 435.453125 712.816406 432.0625 C 715.84375 430.125 718.625 425.882812 724.675781 413.53125 C 732.421875 397.785156 736.660156 390.757812 737.746094 391.96875 C 737.988281 392.332031 737.503906 407.230469 736.539062 425.277344 C 734.480469 464.765625 734.84375 479.660156 737.746094 484.144531 C 742.226562 490.925781 752.511719 491.652344 758.078125 485.71875 C 760.621094 482.933594 760.984375 481.359375 761.347656 470.941406 C 761.589844 464.523438 762.4375 443.929688 763.285156 425.277344 C 765.582031 375.375 763.886719 365.566406 751.90625 359.507812 C 745.007812 355.996094 740.53125 356.117188 732.90625 359.871094 Z M 571.824219 400.449219 C 567.226562 400.933594 562.871094 402.265625 560.933594 403.71875 C 553.550781 409.167969 552.945312 418.375 559.601562 423.945312 C 563.714844 427.457031 566.015625 427.578125 589.011719 426.003906 C 601.839844 425.15625 602.324219 425.035156 605.589844 421.28125 C 612.125 414.015625 608.980469 403.113281 599.660156 400.449219 C 594.699219 399.117188 583.5625 399.117188 571.824219 400.449219 Z M 574.609375 436.664062 C 564.320312 437.632812 559.964844 440.296875 558.148438 446.476562 C 557.058594 450.230469 557.179688 451.683594 558.875 455.316406 C 562.507812 463.070312 570.007812 464.765625 589.375 462.21875 C 600.507812 460.765625 605.226562 458.34375 607.40625 452.894531 C 609.707031 447.6875 608.011719 441.628906 603.410156 437.996094 C 600.023438 435.332031 592.519531 435.089844 574.609375 436.664062 Z M 793.539062 456.042969 C 782.769531 462.824219 787.851562 479.175781 800.679688 479.175781 C 809.03125 479.175781 815.566406 469.851562 812.417969 462.339844 C 809.273438 454.46875 800.558594 451.5625 793.539062 456.042969 Z M 793.539062 456.042969 " fill-opacity="1" fill-rule="nonzero"/><path fill="#000000" d="M 950.144531 284.71875 C 939.128906 287.988281 932.351562 297.195312 934.773438 305.671875 C 937.195312 314.394531 946.632812 317.664062 954.984375 312.578125 C 962.125 308.214844 968.417969 310.394531 966.84375 316.816406 C 965.027344 323.839844 952.5625 332.320312 935.742188 337.890625 C 921.703125 342.492188 916.984375 351.820312 923.398438 361.871094 C 926.664062 366.839844 932.230469 368.292969 956.679688 370.109375 C 994.316406 373.015625 993.105469 373.015625 998.308594 367.808594 C 1007.992188 358.117188 999.519531 345.277344 983.304688 345.277344 L 979.1875 345.277344 L 983.546875 340.191406 C 992.5 329.777344 996.253906 315.242188 992.742188 304.582031 C 990.6875 298.285156 982.457031 289.804688 975.195312 286.414062 C 968.902344 283.386719 957.042969 282.660156 950.144531 284.71875 Z M 510.957031 318.226562 C 497 318.949219 477.507812 321.238281 469.808594 322.921875 C 454.046875 326.535156 451.640625 332.796875 444.78125 387.824219 C 433.714844 477.535156 432.03125 501.496094 436.242188 510.648438 C 439.128906 517.027344 445.503906 522.566406 453.445312 525.21875 C 458.859375 527.144531 463.671875 527.503906 485.929688 527.503906 L 512.039062 527.503906 L 515.648438 524.011719 C 520.222656 519.679688 521.183594 515.101562 518.898438 509.5625 C 516.011719 502.699219 512.039062 501.617188 489.660156 501.496094 C 479.195312 501.496094 468.484375 501.132812 465.839844 500.652344 L 461.027344 499.691406 L 461.265625 487.167969 C 461.386719 475.125 467.160156 420.335938 468.363281 418.289062 C 468.726562 417.808594 474.5 417.328125 481.238281 417.328125 C 503.976562 417.328125 515.527344 414.074219 519.859375 406.609375 C 522.027344 402.878906 522.027344 402.15625 520.460938 397.578125 C 519.257812 393.964844 517.574219 392.039062 514.324219 390.234375 C 510.234375 388.066406 509.152344 388.066406 499.886719 389.390625 C 494.351562 390.234375 485.570312 390.835938 480.398438 390.835938 L 471.011719 390.835938 L 471.613281 386.863281 C 471.972656 384.816406 473.296875 375.902344 474.378906 367.113281 C 475.464844 358.445312 476.785156 350.617188 477.269531 349.894531 C 478.589844 347.726562 486.414062 346.523438 510.957031 345.078125 C 539.59375 343.390625 540.796875 343.152344 544.886719 339.058594 C 550.902344 333.035156 548.976562 323.285156 541.035156 319.1875 C 537.667969 317.382812 529.605469 317.140625 510.957031 318.226562 Z M 877.527344 355.996094 C 864.214844 360.964844 854.414062 370.289062 846.546875 385.671875 C 834.6875 408.320312 829.726562 433.878906 833.355469 451.925781 C 837.109375 469.851562 846.667969 484.023438 859.375 490.320312 C 867.605469 494.316406 879.707031 494.195312 888.058594 489.835938 C 897.980469 484.628906 908.753906 472.152344 910.933594 463.070312 C 912.503906 456.285156 905.605469 447.6875 898.34375 447.6875 C 893.867188 447.6875 889.027344 451.078125 884.667969 457.253906 C 878.859375 465.25 874.988281 467.792969 871.234375 466.097656 C 863.492188 462.582031 857.558594 447.082031 859.011719 434.484375 C 861.070312 416.679688 869.542969 395.363281 877.890625 387.003906 C 882.371094 382.523438 886.242188 380.828125 886.242188 383.492188 C 886.242188 385.066406 892.777344 388.335938 895.925781 388.335938 C 900.160156 388.335938 905.484375 384.945312 907.542969 380.828125 C 911.414062 373.316406 906.816406 361.8125 898.101562 357.328125 C 893.019531 354.664062 882.976562 354.058594 877.527344 355.996094 Z M 732.90625 359.871094 C 726.976562 362.902344 720.441406 368.957031 714.875 376.707031 L 712.453125 380.101562 L 708.824219 373.074219 C 700.714844 356.601562 686.675781 356.117188 670.699219 371.863281 L 664.042969 378.285156 L 660.65625 375.496094 C 654.605469 370.167969 644.4375 372.589844 640.445312 380.101562 C 638.628906 383.492188 637.175781 407.109375 636.8125 438.117188 C 636.453125 461.128906 636.691406 464.644531 638.507812 467.429688 C 643.46875 474.9375 653.03125 476.027344 659.082031 469.730469 C 661.867188 466.824219 662.472656 464.28125 664.769531 449.261719 C 667.433594 430.972656 670.578125 418.980469 675.058594 410.136719 C 678.445312 403.597656 684.980469 394.390625 686.3125 394.390625 C 686.796875 394.390625 688.371094 401.539062 689.824219 410.257812 C 692.121094 424.550781 692.726562 426.488281 695.875 429.761719 C 700.59375 434.484375 707.492188 435.453125 712.816406 432.0625 C 715.84375 430.125 718.625 425.882812 724.675781 413.53125 C 732.421875 397.785156 736.660156 390.757812 737.746094 391.96875 C 737.988281 392.332031 737.503906 407.230469 736.539062 425.277344 C 734.480469 464.765625 734.84375 479.660156 737.746094 484.144531 C 742.226562 490.925781 752.511719 491.652344 758.078125 485.71875 C 760.621094 482.933594 760.984375 481.359375 761.347656 470.941406 C 761.589844 464.523438 762.4375 443.929688 763.285156 425.277344 C 765.582031 375.375 763.886719 365.566406 751.90625 359.507812 C 745.007812 355.996094 740.53125 356.117188 732.90625 359.871094 Z M 571.824219 400.449219 C 567.226562 400.933594 562.871094 402.265625 560.933594 403.71875 C 553.550781 409.167969 552.945312 418.375 559.601562 423.945312 C 563.714844 427.457031 566.015625 427.578125 589.011719 426.003906 C 601.839844 425.15625 602.324219 425.035156 605.589844 421.28125 C 612.125 414.015625 608.980469 403.113281 599.660156 400.449219 C 594.699219 399.117188 583.5625 399.117188 571.824219 400.449219 Z M 574.609375 436.664062 C 564.320312 437.632812 559.964844 440.296875 558.148438 446.476562 C 557.058594 450.230469 557.179688 451.683594 558.875 455.316406 C 562.507812 463.070312 570.007812 464.765625 589.375 462.21875 C 600.507812 460.765625 605.226562 458.34375 607.40625 452.894531 C 609.707031 447.6875 608.011719 441.628906 603.410156 437.996094 C 600.023438 435.332031 592.519531 435.089844 574.609375 436.664062 Z M 793.539062 456.042969 C 782.769531 462.824219 787.851562 479.175781 800.679688 479.175781 C 809.03125 479.175781 815.566406 469.851562 812.417969 462.339844 C 809.273438 454.46875 800.558594 451.5625 793.539062 456.042969 Z M 793.539062 456.042969 " fill-opacity="1" fill-rule="nonzero"/></g></svg>